STARTFONT 2.1
COMMENT
COMMENT Converted from OpenType font "DepartureMono-Regular.otf" by "otf2bdf 3.0".
COMMENT
FONT -FreeType-Departure Mono-Medium-R-Normal--17-120-100-100-P-79-ISO10646-1
SIZE 12 100 100
FONTBOUNDINGBOX 11 22 0 -5
STARTPROPERTIES 19
FOUNDRY "FreeType"
FAMILY_NAME "Departure Mono"
WEIGHT_NAME "Medium"
SLANT "R"
SETWIDTH_NAME "Normal"
ADD_STYLE_NAME ""
PIXEL_SIZE 17
POINT_SIZE 120
RESOLUTION_X 100
RESOLUTION_Y 100
SPACING "P"
AVERAGE_WIDTH 79
CHARSET_REGISTRY "ISO10646"
CHARSET_ENCODING "1"
FONT_ASCENT 17
FONT_DESCENT 4
COPYRIGHT "Copyright 20222024 Helena Zhang"
_OTF_FONTFILE "DepartureMono-Regular.otf"
_OTF_PSNAME "DepartureMono-Regular"
ENDPROPERTIES
CHARS 1069
STARTCHAR 0020
ENCODING 32
SWIDTH 660 0
DWIDTH 11 0
BBX 0 0 0 0
BITMAP
ENDCHAR
STARTCHAR 0021
ENCODING 33
SWIDTH 660 0
DWIDTH 11 0
BBX 1 12 5 0
BITMAP
80
80
80
80
80
80
80
80
80
00
80
80
ENDCHAR
STARTCHAR 0022
ENCODING 34
SWIDTH 660 0
DWIDTH 11 0
BBX 5 4 3 8
BITMAP
D8
D8
D8
D8
ENDCHAR
STARTCHAR 0023
ENCODING 35
SWIDTH 660 0
DWIDTH 11 0
BBX 11 12 0 0
BITMAP
0480
0480
0480
3FE0
1B00
1B00
1B00
FF80
FF80
2400
2400
2400
ENDCHAR
STARTCHAR 0024
ENCODING 36
SWIDTH 660 0
DWIDTH 11 0
BBX 7 16 2 -2
BITMAP
10
10
7C
92
92
90
7C
7C
12
12
12
92
7C
7C
10
10
ENDCHAR
STARTCHAR 0025
ENCODING 37
SWIDTH 660 0
DWIDTH 11 0
BBX 9 12 2 0
BITMAP
6180
9180
9180
6200
0C00
0C00
1000
6200
6200
8D80
8200
8200
ENDCHAR
STARTCHAR 0026
ENCODING 38
SWIDTH 660 0
DWIDTH 11 0
BBX 9 12 2 0
BITMAP
7000
8C00
8C00
8000
6180
6180
8E00
8C00
8C00
8C00
7000
7000
ENDCHAR
STARTCHAR 0027
ENCODING 39
SWIDTH 660 0
DWIDTH 11 0
BBX 1 4 5 8
BITMAP
80
80
80
80
ENDCHAR
STARTCHAR 0028
ENCODING 40
SWIDTH 660 0
DWIDTH 11 0
BBX 5 16 3 -2
BITMAP
18
18
20
C0
C0
C0
C0
C0
C0
C0
C0
C0
20
20
18
18
ENDCHAR
STARTCHAR 0029
ENCODING 41
SWIDTH 660 0
DWIDTH 11 0
BBX 5 16 3 -2
BITMAP
C0
C0
20
18
18
18
18
18
18
18
18
18
20
20
C0
C0
ENDCHAR
STARTCHAR 002A
ENCODING 42
SWIDTH 660 0
DWIDTH 11 0
BBX 7 7 2 5
BITMAP
10
92
92
7C
92
92
10
ENDCHAR
STARTCHAR 002B
ENCODING 43
SWIDTH 660 0
DWIDTH 11 0
BBX 7 7 2 2
BITMAP
10
10
10
FE
10
10
10
ENDCHAR
STARTCHAR 002C
ENCODING 44
SWIDTH 660 0
DWIDTH 11 0
BBX 3 5 3 -2
BITMAP
20
20
20
C0
C0
ENDCHAR
STARTCHAR 002D
ENCODING 45
SWIDTH 660 0
DWIDTH 11 0
BBX 5 1 3 5
BITMAP
F8
ENDCHAR
STARTCHAR 002E
ENCODING 46
SWIDTH 660 0
DWIDTH 11 0
BBX 1 3 5 0
BITMAP
80
80
80
ENDCHAR
STARTCHAR 002F
ENCODING 47
SWIDTH 660 0
DWIDTH 11 0
BBX 7 16 2 -2
BITMAP
02
02
02
0C
0C
0C
10
10
10
60
60
60
80
80
80
80
ENDCHAR
STARTCHAR 0030
ENCODING 48
SWIDTH 660 0
DWIDTH 11 0
BBX 7 12 2 0
BITMAP
7C
82
82
8E
92
92
E2
82
82
82
7C
7C
ENDCHAR
STARTCHAR 0031
ENCODING 49
SWIDTH 660 0
DWIDTH 11 0
BBX 7 12 2 0
BITMAP
10
F0
F0
10
10
10
10
10
10
10
FE
FE
ENDCHAR
STARTCHAR 0032
ENCODING 50
SWIDTH 660 0
DWIDTH 11 0
BBX 7 12 2 0
BITMAP
7C
82
82
02
0C
0C
10
60
60
80
FE
FE
ENDCHAR
STARTCHAR 0033
ENCODING 51
SWIDTH 660 0
DWIDTH 11 0
BBX 7 12 2 0
BITMAP
7C
82
82
02
1C
1C
02
02
02
82
7C
7C
ENDCHAR
STARTCHAR 0034
ENCODING 52
SWIDTH 660 0
DWIDTH 11 0
BBX 7 12 2 0
BITMAP
0E
12
12
62
82
82
82
FE
FE
02
02
02
ENDCHAR
STARTCHAR 0035
ENCODING 53
SWIDTH 660 0
DWIDTH 11 0
BBX 7 12 2 0
BITMAP
FE
80
80
80
FC
FC
02
02
02
82
7C
7C
ENDCHAR
STARTCHAR 0036
ENCODING 54
SWIDTH 660 0
DWIDTH 11 0
BBX 7 12 2 0
BITMAP
7C
82
82
80
FC
FC
82
82
82
82
7C
7C
ENDCHAR
STARTCHAR 0037
ENCODING 55
SWIDTH 660 0
DWIDTH 11 0
BBX 7 12 2 0
BITMAP
FE
02
02
02
0C
0C
10
60
60
60
60
60
ENDCHAR
STARTCHAR 0038
ENCODING 56
SWIDTH 660 0
DWIDTH 11 0
BBX 7 12 2 0
BITMAP
7C
82
82
82
7C
7C
82
82
82
82
7C
7C
ENDCHAR
STARTCHAR 0039
ENCODING 57
SWIDTH 660 0
DWIDTH 11 0
BBX 7 12 2 0
BITMAP
7C
82
82
82
82
82
7E
02
02
82
7C
7C
ENDCHAR
STARTCHAR 003A
ENCODING 58
SWIDTH 660 0
DWIDTH 11 0
BBX 1 9 5 0
BITMAP
80
80
80
00
00
00
80
80
80
ENDCHAR
STARTCHAR 003B
ENCODING 59
SWIDTH 660 0
DWIDTH 11 0
BBX 3 11 3 -2
BITMAP
20
20
20
00
00
00
20
20
20
C0
C0
ENDCHAR
STARTCHAR 003C
ENCODING 60
SWIDTH 660 0
DWIDTH 11 0
BBX 6 11 2 0
BITMAP
0C
0C
10
60
60
80
60
60
10
0C
0C
ENDCHAR
STARTCHAR 003D
ENCODING 61
SWIDTH 660 0
DWIDTH 11 0
BBX 7 5 2 3
BITMAP
FE
FE
00
FE
FE
ENDCHAR
STARTCHAR 003E
ENCODING 62
SWIDTH 660 0
DWIDTH 11 0
BBX 6 11 3 0
BITMAP
C0
C0
20
18
18
04
18
18
20
C0
C0
ENDCHAR
STARTCHAR 003F
ENCODING 63
SWIDTH 660 0
DWIDTH 11 0
BBX 7 12 2 0
BITMAP
7C
82
82
02
0C
0C
10
10
10
00
10
10
ENDCHAR
STARTCHAR 0040
ENCODING 64
SWIDTH 660 0
DWIDTH 11 0
BBX 7 12 2 0
BITMAP
7C
82
82
02
72
72
92
92
92
92
6C
6C
ENDCHAR
STARTCHAR 0041
ENCODING 65
SWIDTH 660 0
DWIDTH 11 0
BBX 7 12 2 0
BITMAP
10
6C
6C
82
82
82
FE
82
82
82
82
82
ENDCHAR
STARTCHAR 0042
ENCODING 66
SWIDTH 660 0
DWIDTH 11 0
BBX 7 12 2 0
BITMAP
FC
82
82
82
FC
FC
82
82
82
82
FC
FC
ENDCHAR
STARTCHAR 0043
ENCODING 67
SWIDTH 660 0
DWIDTH 11 0
BBX 7 12 2 0
BITMAP
7C
82
82
80
80
80
80
80
80
82
7C
7C
ENDCHAR
STARTCHAR 0044
ENCODING 68
SWIDTH 660 0
DWIDTH 11 0
BBX 7 12 2 0
BITMAP
FC
82
82
82
82
82
82
82
82
82
FC
FC
ENDCHAR
STARTCHAR 0045
ENCODING 69
SWIDTH 660 0
DWIDTH 11 0
BBX 7 12 2 0
BITMAP
FE
80
80
80
FC
FC
80
80
80
80
FE
FE
ENDCHAR
STARTCHAR 0046
ENCODING 70
SWIDTH 660 0
DWIDTH 11 0
BBX 7 12 2 0
BITMAP
FE
80
80
80
FC
FC
80
80
80
80
80
80
ENDCHAR
STARTCHAR 0047
ENCODING 71
SWIDTH 660 0
DWIDTH 11 0
BBX 7 12 2 0
BITMAP
7C
82
82
80
80
80
8E
82
82
82
7C
7C
ENDCHAR
STARTCHAR 0048
ENCODING 72
SWIDTH 660 0
DWIDTH 11 0
BBX 7 12 2 0
BITMAP
82
82
82
82
FE
FE
82
82
82
82
82
82
ENDCHAR
STARTCHAR 0049
ENCODING 73
SWIDTH 660 0
DWIDTH 11 0
BBX 7 12 2 0
BITMAP
FE
10
10
10
10
10
10
10
10
10
FE
FE
ENDCHAR
STARTCHAR 004A
ENCODING 74
SWIDTH 660 0
DWIDTH 11 0
BBX 7 12 2 0
BITMAP
1E
02
02
02
02
02
02
02
02
82
7C
7C
ENDCHAR
STARTCHAR 004B
ENCODING 75
SWIDTH 660 0
DWIDTH 11 0
BBX 7 12 2 0
BITMAP
82
8C
8C
90
F0
F0
8C
8C
8C
82
82
82
ENDCHAR
STARTCHAR 004C
ENCODING 76
SWIDTH 660 0
DWIDTH 11 0
BBX 7 12 2 0
BITMAP
80
80
80
80
80
80
80
80
80
80
FE
FE
ENDCHAR
STARTCHAR 004D
ENCODING 77
SWIDTH 660 0
DWIDTH 11 0
BBX 7 12 2 0
BITMAP
82
82
82
EE
92
92
92
82
82
82
82
82
ENDCHAR
STARTCHAR 004E
ENCODING 78
SWIDTH 660 0
DWIDTH 11 0
BBX 7 12 2 0
BITMAP
82
82
82
E2
92
92
8E
82
82
82
82
82
ENDCHAR
STARTCHAR 004F
ENCODING 79
SWIDTH 660 0
DWIDTH 11 0
BBX 7 12 2 0
BITMAP
7C
82
82
82
82
82
82
82
82
82
7C
7C
ENDCHAR
STARTCHAR 0050
ENCODING 80
SWIDTH 660 0
DWIDTH 11 0
BBX 7 12 2 0
BITMAP
FC
82
82
82
82
82
FC
80
80
80
80
80
ENDCHAR
STARTCHAR 0051
ENCODING 81
SWIDTH 660 0
DWIDTH 11 0
BBX 7 14 2 -2
BITMAP
7C
82
82
82
82
82
82
82
82
82
7C
7C
0E
0E
ENDCHAR
STARTCHAR 0052
ENCODING 82
SWIDTH 660 0
DWIDTH 11 0
BBX 7 12 2 0
BITMAP
FC
82
82
82
82
82
FC
8C
8C
82
82
82
ENDCHAR
STARTCHAR 0053
ENCODING 83
SWIDTH 660 0
DWIDTH 11 0
BBX 7 12 2 0
BITMAP
7C
82
82
80
7C
7C
02
02
02
82
7C
7C
ENDCHAR
STARTCHAR 0054
ENCODING 84
SWIDTH 660 0
DWIDTH 11 0
BBX 7 12 2 0
BITMAP
FE
10
10
10
10
10
10
10
10
10
10
10
ENDCHAR
STARTCHAR 0055
ENCODING 85
SWIDTH 660 0
DWIDTH 11 0
BBX 7 12 2 0
BITMAP
82
82
82
82
82
82
82
82
82
82
7C
7C
ENDCHAR
STARTCHAR 0056
ENCODING 86
SWIDTH 660 0
DWIDTH 11 0
BBX 7 12 2 0
BITMAP
82
82
82
82
82
82
82
6C
6C
6C
10
10
ENDCHAR
STARTCHAR 0057
ENCODING 87
SWIDTH 660 0
DWIDTH 11 0
BBX 7 12 2 0
BITMAP
82
82
82
82
92
92
92
6C
6C
6C
6C
6C
ENDCHAR
STARTCHAR 0058
ENCODING 88
SWIDTH 660 0
DWIDTH 11 0
BBX 7 12 2 0
BITMAP
82
82
82
6C
10
10
6C
82
82
82
82
82
ENDCHAR
STARTCHAR 0059
ENCODING 89
SWIDTH 660 0
DWIDTH 11 0
BBX 7 12 2 0
BITMAP
82
82
82
82
6C
6C
10
10
10
10
10
10
ENDCHAR
STARTCHAR 005A
ENCODING 90
SWIDTH 660 0
DWIDTH 11 0
BBX 7 12 2 0
BITMAP
FE
02
02
0C
10
10
60
80
80
80
FE
FE
ENDCHAR
STARTCHAR 005B
ENCODING 91
SWIDTH 660 0
DWIDTH 11 0
BBX 5 16 3 -2
BITMAP
F8
F8
C0
C0
C0
C0
C0
C0
C0
C0
C0
C0
C0
C0
F8
F8
ENDCHAR
STARTCHAR 005C
ENCODING 92
SWIDTH 660 0
DWIDTH 11 0
BBX 7 16 2 -2
BITMAP
80
80
80
60
60
60
10
10
10
0C
0C
0C
02
02
02
02
ENDCHAR
STARTCHAR 005D
ENCODING 93
SWIDTH 660 0
DWIDTH 11 0
BBX 5 16 3 -2
BITMAP
F8
F8
18
18
18
18
18
18
18
18
18
18
18
18
F8
F8
ENDCHAR
STARTCHAR 005E
ENCODING 94
SWIDTH 660 0
DWIDTH 11 0
BBX 5 3 3 9
BITMAP
20
D8
D8
ENDCHAR
STARTCHAR 005F
ENCODING 95
SWIDTH 660 0
DWIDTH 11 0
BBX 7 2 2 0
BITMAP
FE
FE
ENDCHAR
STARTCHAR 0060
ENCODING 96
SWIDTH 660 0
DWIDTH 11 0
BBX 3 3 3 11
BITMAP
C0
C0
20
ENDCHAR
STARTCHAR 0061
ENCODING 97
SWIDTH 660 0
DWIDTH 11 0
BBX 7 9 2 0
BITMAP
7C
02
02
7E
82
82
8E
72
72
ENDCHAR
STARTCHAR 0062
ENCODING 98
SWIDTH 660 0
DWIDTH 11 0
BBX 7 12 2 0
BITMAP
80
80
80
9C
E2
E2
82
82
82
E2
9C
9C
ENDCHAR
STARTCHAR 0063
ENCODING 99
SWIDTH 660 0
DWIDTH 11 0
BBX 7 9 2 0
BITMAP
7C
82
82
80
80
80
82
7C
7C
ENDCHAR
STARTCHAR 0064
ENCODING 100
SWIDTH 660 0
DWIDTH 11 0
BBX 7 12 2 0
BITMAP
02
02
02
72
8E
8E
82
82
82
8E
72
72
ENDCHAR
STARTCHAR 0065
ENCODING 101
SWIDTH 660 0
DWIDTH 11 0
BBX 7 9 2 0
BITMAP
7C
82
82
FE
80
80
82
7C
7C
ENDCHAR
STARTCHAR 0066
ENCODING 102
SWIDTH 660 0
DWIDTH 11 0
BBX 7 12 2 0
BITMAP
1E
60
60
FE
60
60
60
60
60
60
FC
FC
ENDCHAR
STARTCHAR 0067
ENCODING 103
SWIDTH 660 0
DWIDTH 11 0
BBX 7 12 2 -3
BITMAP
72
8E
8E
82
82
82
8E
72
72
02
02
7C
ENDCHAR
STARTCHAR 0068
ENCODING 104
SWIDTH 660 0
DWIDTH 11 0
BBX 7 12 2 0
BITMAP
80
80
80
9C
E2
E2
82
82
82
82
82
82
ENDCHAR
STARTCHAR 0069
ENCODING 105
SWIDTH 660 0
DWIDTH 11 0
BBX 7 12 2 0
BITMAP
10
00
00
F0
10
10
10
10
10
10
FE
FE
ENDCHAR
STARTCHAR 006A
ENCODING 106
SWIDTH 660 0
DWIDTH 11 0
BBX 6 15 2 -3
BITMAP
0C
00
00
7C
0C
0C
0C
0C
0C
0C
0C
0C
8C
8C
70
ENDCHAR
STARTCHAR 006B
ENCODING 107
SWIDTH 660 0
DWIDTH 11 0
BBX 7 12 2 0
BITMAP
80
80
80
82
8C
8C
90
F0
F0
8C
82
82
ENDCHAR
STARTCHAR 006C
ENCODING 108
SWIDTH 660 0
DWIDTH 11 0
BBX 7 12 2 0
BITMAP
F0
10
10
10
10
10
10
10
10
10
FE
FE
ENDCHAR
STARTCHAR 006D
ENCODING 109
SWIDTH 660 0
DWIDTH 11 0
BBX 7 9 2 0
BITMAP
EC
92
92
92
92
92
92
92
92
ENDCHAR
STARTCHAR 006E
ENCODING 110
SWIDTH 660 0
DWIDTH 11 0
BBX 7 9 2 0
BITMAP
9C
E2
E2
82
82
82
82
82
82
ENDCHAR
STARTCHAR 006F
ENCODING 111
SWIDTH 660 0
DWIDTH 11 0
BBX 7 9 2 0
BITMAP
7C
82
82
82
82
82
82
7C
7C
ENDCHAR
STARTCHAR 0070
ENCODING 112
SWIDTH 660 0
DWIDTH 11 0
BBX 7 12 2 -3
BITMAP
9C
E2
E2
82
82
82
E2
9C
9C
80
80
80
ENDCHAR
STARTCHAR 0071
ENCODING 113
SWIDTH 660 0
DWIDTH 11 0
BBX 7 12 2 -3
BITMAP
72
8E
8E
82
82
82
8E
72
72
02
02
02
ENDCHAR
STARTCHAR 0072
ENCODING 114
SWIDTH 660 0
DWIDTH 11 0
BBX 7 9 2 0
BITMAP
EE
70
70
60
60
60
60
FC
FC
ENDCHAR
STARTCHAR 0073
ENCODING 115
SWIDTH 660 0
DWIDTH 11 0
BBX 7 9 2 0
BITMAP
7C
82
82
7C
02
02
82
7C
7C
ENDCHAR
STARTCHAR 0074
ENCODING 116
SWIDTH 660 0
DWIDTH 11 0
BBX 7 12 2 0
BITMAP
60
60
60
FE
60
60
60
60
60
62
1C
1C
ENDCHAR
STARTCHAR 0075
ENCODING 117
SWIDTH 660 0
DWIDTH 11 0
BBX 7 9 2 0
BITMAP
82
82
82
82
82
82
8E
72
72
ENDCHAR
STARTCHAR 0076
ENCODING 118
SWIDTH 660 0
DWIDTH 11 0
BBX 7 9 2 0
BITMAP
82
82
82
82
6C
6C
6C
10
10
ENDCHAR
STARTCHAR 0077
ENCODING 119
SWIDTH 660 0
DWIDTH 11 0
BBX 7 9 2 0
BITMAP
92
92
92
92
92
92
92
6E
6E
ENDCHAR
STARTCHAR 0078
ENCODING 120
SWIDTH 660 0
DWIDTH 11 0
BBX 7 9 2 0
BITMAP
82
6C
6C
10
6C
6C
82
82
82
ENDCHAR
STARTCHAR 0079
ENCODING 121
SWIDTH 660 0
DWIDTH 11 0
BBX 7 12 2 -3
BITMAP
82
82
82
82
6C
6C
6C
10
10
10
10
E0
ENDCHAR
STARTCHAR 007A
ENCODING 122
SWIDTH 660 0
DWIDTH 11 0
BBX 7 9 2 0
BITMAP
FE
0C
0C
10
60
60
80
FE
FE
ENDCHAR
STARTCHAR 007B
ENCODING 123
SWIDTH 660 0
DWIDTH 11 0
BBX 8 16 0 -2
BITMAP
07
07
18
18
18
18
E0
E0
18
18
18
18
18
18
07
07
ENDCHAR
STARTCHAR 007C
ENCODING 124
SWIDTH 660 0
DWIDTH 11 0
BBX 1 16 5 -2
BITMAP
80
80
80
80
80
80
80
80
80
80
80
80
80
80
80
80
ENDCHAR
STARTCHAR 007D
ENCODING 125
SWIDTH 660 0
DWIDTH 11 0
BBX 8 16 3 -2
BITMAP
E0
E0
18
18
18
18
07
07
18
18
18
18
18
18
E0
E0
ENDCHAR
STARTCHAR 007E
ENCODING 126
SWIDTH 660 0
DWIDTH 11 0
BBX 7 5 2 3
BITMAP
60
60
92
0C
0C
ENDCHAR
STARTCHAR 00A0
ENCODING 160
SWIDTH 660 0
DWIDTH 11 0
BBX 0 0 0 0
BITMAP
ENDCHAR
STARTCHAR 00A1
ENCODING 161
SWIDTH 660 0
DWIDTH 11 0
BBX 1 12 5 -3
BITMAP
80
00
00
80
80
80
80
80
80
80
80
80
ENDCHAR
STARTCHAR 00A2
ENCODING 162
SWIDTH 660 0
DWIDTH 11 0
BBX 7 11 2 0
BITMAP
10
10
7C
92
92
90
92
92
7C
10
10
ENDCHAR
STARTCHAR 00A3
ENCODING 163
SWIDTH 660 0
DWIDTH 11 0
BBX 7 12 2 0
BITMAP
1C
62
62
60
60
60
FC
60
60
60
FE
FE
ENDCHAR
STARTCHAR 00A4
ENCODING 164
SWIDTH 660 0
DWIDTH 11 0
BBX 7 9 2 0
BITMAP
92
6C
6C
82
82
82
6C
92
92
ENDCHAR
STARTCHAR 00A5
ENCODING 165
SWIDTH 660 0
DWIDTH 11 0
BBX 7 12 2 0
BITMAP
82
82
82
6C
10
10
FE
10
10
FE
10
10
ENDCHAR
STARTCHAR 00A6
ENCODING 166
SWIDTH 660 0
DWIDTH 11 0
BBX 1 16 5 -2
BITMAP
80
80
80
80
80
80
00
00
00
80
80
80
80
80
80
80
ENDCHAR
STARTCHAR 00A7
ENCODING 167
SWIDTH 660 0
DWIDTH 11 0
BBX 7 14 2 -2
BITMAP
7C
82
82
E0
7C
7C
82
7C
7C
0E
82
82
7C
7C
ENDCHAR
STARTCHAR 00A8
ENCODING 168
SWIDTH 660 0
DWIDTH 11 0
BBX 5 1 3 11
BITMAP
D8
ENDCHAR
STARTCHAR 00A9
ENCODING 169
SWIDTH 660 0
DWIDTH 11 0
BBX 7 18 2 -3
BITMAP
7C
82
82
00
10
10
6C
60
60
60
6C
6C
10
00
00
82
82
7C
ENDCHAR
STARTCHAR 00AA
ENCODING 170
SWIDTH 660 0
DWIDTH 11 0
BBX 7 7 2 5
BITMAP
7E
82
82
82
8E
8E
72
ENDCHAR
STARTCHAR 00AB
ENCODING 171
SWIDTH 660 0
DWIDTH 11 0
BBX 9 7 0 2
BITMAP
1880
2300
2300
C400
2300
2300
1880
ENDCHAR
STARTCHAR 00AC
ENCODING 172
SWIDTH 660 0
DWIDTH 11 0
BBX 7 4 2 2
BITMAP
FE
02
02
02
ENDCHAR
STARTCHAR 00AD
ENCODING 173
SWIDTH 660 0
DWIDTH 11 0
BBX 5 1 3 5
BITMAP
F8
ENDCHAR
STARTCHAR 00AE
ENCODING 174
SWIDTH 660 0
DWIDTH 11 0
BBX 7 18 2 -3
BITMAP
7C
82
82
00
70
70
6C
6C
6C
70
6C
6C
6C
00
00
82
82
7C
ENDCHAR
STARTCHAR 00AF
ENCODING 175
SWIDTH 660 0
DWIDTH 11 0
BBX 5 1 3 11
BITMAP
F8
ENDCHAR
STARTCHAR 00B0
ENCODING 176
SWIDTH 660 0
DWIDTH 11 0
BBX 5 4 3 8
BITMAP
20
D8
D8
20
ENDCHAR
STARTCHAR 00B1
ENCODING 177
SWIDTH 660 0
DWIDTH 11 0
BBX 7 11 2 0
BITMAP
10
10
10
FE
FE
10
10
10
00
FE
FE
ENDCHAR
STARTCHAR 00B2
ENCODING 178
SWIDTH 660 0
DWIDTH 11 0
BBX 7 9 2 5
BITMAP
7C
7C
82
0C
0C
10
60
60
FE
ENDCHAR
STARTCHAR 00B3
ENCODING 179
SWIDTH 660 0
DWIDTH 11 0
BBX 7 9 2 5
BITMAP
7C
7C
82
1C
1C
02
82
82
7C
ENDCHAR
STARTCHAR 00B4
ENCODING 180
SWIDTH 660 0
DWIDTH 11 0
BBX 3 3 5 11
BITMAP
60
60
80
ENDCHAR
STARTCHAR 00B5
ENCODING 181
SWIDTH 660 0
DWIDTH 11 0
BBX 7 12 2 -3
BITMAP
82
82
82
82
82
82
8E
F2
F2
80
80
80
ENDCHAR
STARTCHAR 00B6
ENCODING 182
SWIDTH 660 0
DWIDTH 11 0
BBX 7 12 2 0
BITMAP
7E
F2
F2
F2
F2
F2
72
02
02
02
02
02
ENDCHAR
STARTCHAR 00B7
ENCODING 183
SWIDTH 660 0
DWIDTH 11 0
BBX 1 3 5 5
BITMAP
80
80
80
ENDCHAR
STARTCHAR 00B8
ENCODING 184
SWIDTH 660 0
DWIDTH 11 0
BBX 3 5 5 -5
BITMAP
80
80
60
80
80
ENDCHAR
STARTCHAR 00B9
ENCODING 185
SWIDTH 660 0
DWIDTH 11 0
BBX 5 9 3 5
BITMAP
20
20
E0
20
20
20
20
20
F8
ENDCHAR
STARTCHAR 00BA
ENCODING 186
SWIDTH 660 0
DWIDTH 11 0
BBX 7 7 2 5
BITMAP
7C
82
82
82
82
82
7C
ENDCHAR
STARTCHAR 00BB
ENCODING 187
SWIDTH 660 0
DWIDTH 11 0
BBX 9 7 2 2
BITMAP
8C00
6200
6200
1180
6200
6200
8C00
ENDCHAR
STARTCHAR 00BC
ENCODING 188
SWIDTH 660 0
DWIDTH 11 0
BBX 11 20 0 -5
BITMAP
2000
E000
E000
2000
2000
2000
F800
00E0
00E0
1F00
E000
E000
00E0
0360
0360
0460
0460
07E0
0060
0060
ENDCHAR
STARTCHAR 00BD
ENCODING 189
SWIDTH 660 0
DWIDTH 11 0
BBX 11 20 0 -5
BITMAP
2000
E000
E000
2000
2000
2000
F800
00E0
00E0
1F00
E000
E000
0380
0460
0460
0080
0080
0300
07E0
07E0
ENDCHAR
STARTCHAR 00BE
ENCODING 190
SWIDTH 660 0
DWIDTH 11 0
BBX 11 20 0 -5
BITMAP
3800
C400
C400
1800
C400
C400
3800
00E0
00E0
1F00
E000
E000
00E0
0360
0360
0460
0460
07E0
0060
0060
ENDCHAR
STARTCHAR 00BF
ENCODING 191
SWIDTH 660 0
DWIDTH 11 0
BBX 7 12 2 -3
BITMAP
10
00
00
10
10
10
60
80
80
82
82
7C
ENDCHAR
STARTCHAR 00C0
ENCODING 192
SWIDTH 660 0
DWIDTH 11 0
BBX 7 17 2 0
BITMAP
60
60
10
00
00
10
6C
6C
82
82
82
FE
82
82
82
82
82
ENDCHAR
STARTCHAR 00C1
ENCODING 193
SWIDTH 660 0
DWIDTH 11 0
BBX 7 17 2 0
BITMAP
0C
0C
10
00
00
10
6C
6C
82
82
82
FE
82
82
82
82
82
ENDCHAR
STARTCHAR 00C2
ENCODING 194
SWIDTH 660 0
DWIDTH 11 0
BBX 7 17 2 0
BITMAP
10
10
6C
00
00
10
6C
6C
82
82
82
FE
82
82
82
82
82
ENDCHAR
STARTCHAR 00C3
ENCODING 195
SWIDTH 660 0
DWIDTH 11 0
BBX 7 17 2 0
BITMAP
12
12
6C
00
00
10
6C
6C
82
82
82
FE
82
82
82
82
82
ENDCHAR
STARTCHAR 00C4
ENCODING 196
SWIDTH 660 0
DWIDTH 11 0
BBX 7 15 2 0
BITMAP
6C
00
00
10
6C
6C
82
82
82
FE
82
82
82
82
82
ENDCHAR
STARTCHAR 00C5
ENCODING 197
SWIDTH 660 0
DWIDTH 11 0
BBX 7 17 2 0
BITMAP
10
10
6C
10
10
10
6C
6C
82
82
82
FE
82
82
82
82
82
ENDCHAR
STARTCHAR 00C6
ENCODING 198
SWIDTH 660 0
DWIDTH 11 0
BBX 11 12 0 0
BITMAP
1FE0
2400
2400
C400
C780
C780
FC00
C400
C400
C400
C7E0
C7E0
ENDCHAR
STARTCHAR 00C7
ENCODING 199
SWIDTH 660 0
DWIDTH 11 0
BBX 7 17 2 -5
BITMAP
7C
82
82
80
80
80
80
80
80
82
7C
7C
10
10
0C
10
10
ENDCHAR
STARTCHAR 00C8
ENCODING 200
SWIDTH 660 0
DWIDTH 11 0
BBX 7 17 2 0
BITMAP
60
60
10
00
00
FE
80
80
80
FC
FC
80
80
80
80
FE
FE
ENDCHAR
STARTCHAR 00C9
ENCODING 201
SWIDTH 660 0
DWIDTH 11 0
BBX 7 17 2 0
BITMAP
0C
0C
10
00
00
FE
80
80
80
FC
FC
80
80
80
80
FE
FE
ENDCHAR
STARTCHAR 00CA
ENCODING 202
SWIDTH 660 0
DWIDTH 11 0
BBX 7 17 2 0
BITMAP
10
10
6C
00
00
FE
80
80
80
FC
FC
80
80
80
80
FE
FE
ENDCHAR
STARTCHAR 00CB
ENCODING 203
SWIDTH 660 0
DWIDTH 11 0
BBX 7 15 2 0
BITMAP
6C
00
00
FE
80
80
80
FC
FC
80
80
80
80
FE
FE
ENDCHAR
STARTCHAR 00CC
ENCODING 204
SWIDTH 660 0
DWIDTH 11 0
BBX 7 17 2 0
BITMAP
60
60
10
00
00
FE
10
10
10
10
10
10
10
10
10
FE
FE
ENDCHAR
STARTCHAR 00CD
ENCODING 205
SWIDTH 660 0
DWIDTH 11 0
BBX 7 17 2 0
BITMAP
0C
0C
10
00
00
FE
10
10
10
10
10
10
10
10
10
FE
FE
ENDCHAR
STARTCHAR 00CE
ENCODING 206
SWIDTH 660 0
DWIDTH 11 0
BBX 7 17 2 0
BITMAP
10
10
6C
00
00
FE
10
10
10
10
10
10
10
10
10
FE
FE
ENDCHAR
STARTCHAR 00CF
ENCODING 207
SWIDTH 660 0
DWIDTH 11 0
BBX 7 15 2 0
BITMAP
6C
00
00
FE
10
10
10
10
10
10
10
10
10
FE
FE
ENDCHAR
STARTCHAR 00D0
ENCODING 208
SWIDTH 660 0
DWIDTH 11 0
BBX 9 12 0 0
BITMAP
3F00
2080
2080
2080
FC80
FC80
2080
2080
2080
2080
3F00
3F00
ENDCHAR
STARTCHAR 00D1
ENCODING 209
SWIDTH 660 0
DWIDTH 11 0
BBX 7 17 2 0
BITMAP
12
12
6C
00
00
82
82
82
E2
92
92
8E
82
82
82
82
82
ENDCHAR
STARTCHAR 00D2
ENCODING 210
SWIDTH 660 0
DWIDTH 11 0
BBX 7 17 2 0
BITMAP
60
60
10
00
00
7C
82
82
82
82
82
82
82
82
82
7C
7C
ENDCHAR
STARTCHAR 00D3
ENCODING 211
SWIDTH 660 0
DWIDTH 11 0
BBX 7 17 2 0
BITMAP
0C
0C
10
00
00
7C
82
82
82
82
82
82
82
82
82
7C
7C
ENDCHAR
STARTCHAR 00D4
ENCODING 212
SWIDTH 660 0
DWIDTH 11 0
BBX 7 17 2 0
BITMAP
10
10
6C
00
00
7C
82
82
82
82
82
82
82
82
82
7C
7C
ENDCHAR
STARTCHAR 00D5
ENCODING 213
SWIDTH 660 0
DWIDTH 11 0
BBX 7 17 2 0
BITMAP
12
12
6C
00
00
7C
82
82
82
82
82
82
82
82
82
7C
7C
ENDCHAR
STARTCHAR 00D6
ENCODING 214
SWIDTH 660 0
DWIDTH 11 0
BBX 7 15 2 0
BITMAP
6C
00
00
7C
82
82
82
82
82
82
82
82
82
7C
7C
ENDCHAR
STARTCHAR 00D7
ENCODING 215
SWIDTH 660 0
DWIDTH 11 0
BBX 7 7 2 2
BITMAP
82
6C
6C
10
6C
6C
82
ENDCHAR
STARTCHAR 00D8
ENCODING 216
SWIDTH 660 0
DWIDTH 11 0
BBX 11 12 0 0
BITMAP
1F60
2080
2080
2380
2480
2480
3880
2080
2080
E080
1F00
1F00
ENDCHAR
STARTCHAR 00D9
ENCODING 217
SWIDTH 660 0
DWIDTH 11 0
BBX 7 17 2 0
BITMAP
60
60
10
00
00
82
82
82
82
82
82
82
82
82
82
7C
7C
ENDCHAR
STARTCHAR 00DA
ENCODING 218
SWIDTH 660 0
DWIDTH 11 0
BBX 7 17 2 0
BITMAP
0C
0C
10
00
00
82
82
82
82
82
82
82
82
82
82
7C
7C
ENDCHAR
STARTCHAR 00DB
ENCODING 219
SWIDTH 660 0
DWIDTH 11 0
BBX 7 17 2 0
BITMAP
10
10
6C
00
00
82
82
82
82
82
82
82
82
82
82
7C
7C
ENDCHAR
STARTCHAR 00DC
ENCODING 220
SWIDTH 660 0
DWIDTH 11 0
BBX 7 15 2 0
BITMAP
6C
00
00
82
82
82
82
82
82
82
82
82
82
7C
7C
ENDCHAR
STARTCHAR 00DD
ENCODING 221
SWIDTH 660 0
DWIDTH 11 0
BBX 7 17 2 0
BITMAP
0C
0C
10
00
00
82
82
82
82
6C
6C
10
10
10
10
10
10
ENDCHAR
STARTCHAR 00DE
ENCODING 222
SWIDTH 660 0
DWIDTH 11 0
BBX 7 12 2 0
BITMAP
80
FC
FC
82
82
82
82
FC
FC
80
80
80
ENDCHAR
STARTCHAR 00DF
ENCODING 223
SWIDTH 660 0
DWIDTH 11 0
BBX 7 15 2 -3
BITMAP
70
8C
8C
8C
8C
8C
82
82
82
82
9C
9C
80
80
80
ENDCHAR
STARTCHAR 00E0
ENCODING 224
SWIDTH 660 0
DWIDTH 11 0
BBX 7 14 2 0
BITMAP
60
60
10
00
00
7C
02
02
7E
82
82
8E
72
72
ENDCHAR
STARTCHAR 00E1
ENCODING 225
SWIDTH 660 0
DWIDTH 11 0
BBX 7 14 2 0
BITMAP
0C
0C
10
00
00
7C
02
02
7E
82
82
8E
72
72
ENDCHAR
STARTCHAR 00E2
ENCODING 226
SWIDTH 660 0
DWIDTH 11 0
BBX 7 14 2 0
BITMAP
10
10
6C
00
00
7C
02
02
7E
82
82
8E
72
72
ENDCHAR
STARTCHAR 00E3
ENCODING 227
SWIDTH 660 0
DWIDTH 11 0
BBX 7 14 2 0
BITMAP
12
12
6C
00
00
7C
02
02
7E
82
82
8E
72
72
ENDCHAR
STARTCHAR 00E4
ENCODING 228
SWIDTH 660 0
DWIDTH 11 0
BBX 7 12 2 0
BITMAP
6C
00
00
7C
02
02
7E
82
82
8E
72
72
ENDCHAR
STARTCHAR 00E5
ENCODING 229
SWIDTH 660 0
DWIDTH 11 0
BBX 7 15 2 0
BITMAP
10
6C
6C
10
00
00
7C
02
02
7E
82
82
8E
72
72
ENDCHAR
STARTCHAR 00E6
ENCODING 230
SWIDTH 660 0
DWIDTH 11 0
BBX 11 9 0 0
BITMAP
3B80
0460
0460
3FE0
C400
C400
C460
3B80
3B80
ENDCHAR
STARTCHAR 00E7
ENCODING 231
SWIDTH 660 0
DWIDTH 11 0
BBX 7 14 2 -5
BITMAP
7C
82
82
80
80
80
82
7C
7C
10
10
0C
10
10
ENDCHAR
STARTCHAR 00E8
ENCODING 232
SWIDTH 660 0
DWIDTH 11 0
BBX 7 14 2 0
BITMAP
60
60
10
00
00
7C
82
82
FE
80
80
82
7C
7C
ENDCHAR
STARTCHAR 00E9
ENCODING 233
SWIDTH 660 0
DWIDTH 11 0
BBX 7 14 2 0
BITMAP
0C
0C
10
00
00
7C
82
82
FE
80
80
82
7C
7C
ENDCHAR
STARTCHAR 00EA
ENCODING 234
SWIDTH 660 0
DWIDTH 11 0
BBX 7 14 2 0
BITMAP
10
10
6C
00
00
7C
82
82
FE
80
80
82
7C
7C
ENDCHAR
STARTCHAR 00EB
ENCODING 235
SWIDTH 660 0
DWIDTH 11 0
BBX 7 12 2 0
BITMAP
6C
00
00
7C
82
82
FE
80
80
82
7C
7C
ENDCHAR
STARTCHAR 00EC
ENCODING 236
SWIDTH 660 0
DWIDTH 11 0
BBX 7 14 2 0
BITMAP
60
60
10
00
00
F0
10
10
10
10
10
10
FE
FE
ENDCHAR
STARTCHAR 00ED
ENCODING 237
SWIDTH 660 0
DWIDTH 11 0
BBX 7 14 2 0
BITMAP
0C
0C
10
00
00
F0
10
10
10
10
10
10
FE
FE
ENDCHAR
STARTCHAR 00EE
ENCODING 238
SWIDTH 660 0
DWIDTH 11 0
BBX 7 14 2 0
BITMAP
10
10
6C
00
00
F0
10
10
10
10
10
10
FE
FE
ENDCHAR
STARTCHAR 00EF
ENCODING 239
SWIDTH 660 0
DWIDTH 11 0
BBX 7 12 2 0
BITMAP
6C
00
00
F0
10
10
10
10
10
10
FE
FE
ENDCHAR
STARTCHAR 00F0
ENCODING 240
SWIDTH 660 0
DWIDTH 11 0
BBX 7 12 2 0
BITMAP
72
0C
0C
72
8E
8E
82
82
82
82
7C
7C
ENDCHAR
STARTCHAR 00F1
ENCODING 241
SWIDTH 660 0
DWIDTH 11 0
BBX 7 14 2 0
BITMAP
12
12
6C
00
00
9C
E2
E2
82
82
82
82
82
82
ENDCHAR
STARTCHAR 00F2
ENCODING 242
SWIDTH 660 0
DWIDTH 11 0
BBX 7 14 2 0
BITMAP
60
60
10
00
00
7C
82
82
82
82
82
82
7C
7C
ENDCHAR
STARTCHAR 00F3
ENCODING 243
SWIDTH 660 0
DWIDTH 11 0
BBX 7 14 2 0
BITMAP
0C
0C
10
00
00
7C
82
82
82
82
82
82
7C
7C
ENDCHAR
STARTCHAR 00F4
ENCODING 244
SWIDTH 660 0
DWIDTH 11 0
BBX 7 14 2 0
BITMAP
10
10
6C
00
00
7C
82
82
82
82
82
82
7C
7C
ENDCHAR
STARTCHAR 00F5
ENCODING 245
SWIDTH 660 0
DWIDTH 11 0
BBX 7 14 2 0
BITMAP
12
12
6C
00
00
7C
82
82
82
82
82
82
7C
7C
ENDCHAR
STARTCHAR 00F6
ENCODING 246
SWIDTH 660 0
DWIDTH 11 0
BBX 7 12 2 0
BITMAP
6C
00
00
7C
82
82
82
82
82
82
7C
7C
ENDCHAR
STARTCHAR 00F7
ENCODING 247
SWIDTH 660 0
DWIDTH 11 0
BBX 7 7 2 2
BITMAP
10
00
00
FE
00
00
10
ENDCHAR
STARTCHAR 00F8
ENCODING 248
SWIDTH 660 0
DWIDTH 11 0
BBX 11 11 0 -2
BITMAP
1F60
2080
2080
2380
2480
2480
3880
3F00
3F00
C000
C000
ENDCHAR
STARTCHAR 00F9
ENCODING 249
SWIDTH 660 0
DWIDTH 11 0
BBX 7 14 2 0
BITMAP
60
60
10
00
00
82
82
82
82
82
82
8E
72
72
ENDCHAR
STARTCHAR 00FA
ENCODING 250
SWIDTH 660 0
DWIDTH 11 0
BBX 7 14 2 0
BITMAP
0C
0C
10
00
00
82
82
82
82
82
82
8E
72
72
ENDCHAR
STARTCHAR 00FB
ENCODING 251
SWIDTH 660 0
DWIDTH 11 0
BBX 7 14 2 0
BITMAP
10
10
6C
00
00
82
82
82
82
82
82
8E
72
72
ENDCHAR
STARTCHAR 00FC
ENCODING 252
SWIDTH 660 0
DWIDTH 11 0
BBX 7 12 2 0
BITMAP
6C
00
00
82
82
82
82
82
82
8E
72
72
ENDCHAR
STARTCHAR 00FD
ENCODING 253
SWIDTH 660 0
DWIDTH 11 0
BBX 7 17 2 -3
BITMAP
0C
0C
10
00
00
82
82
82
82
6C
6C
6C
10
10
10
10
E0
ENDCHAR
STARTCHAR 00FE
ENCODING 254
SWIDTH 660 0
DWIDTH 11 0
BBX 7 15 2 -3
BITMAP
80
80
80
9C
E2
E2
82
82
82
E2
9C
9C
80
80
80
ENDCHAR
STARTCHAR 00FF
ENCODING 255
SWIDTH 660 0
DWIDTH 11 0
BBX 7 15 2 -3
BITMAP
6C
00
00
82
82
82
82
6C
6C
6C
10
10
10
10
E0
ENDCHAR
STARTCHAR 0100
ENCODING 256
SWIDTH 660 0
DWIDTH 11 0
BBX 7 15 2 0
BITMAP
7C
00
00
10
6C
6C
82
82
82
FE
82
82
82
82
82
ENDCHAR
STARTCHAR 0101
ENCODING 257
SWIDTH 660 0
DWIDTH 11 0
BBX 7 12 2 0
BITMAP
7C
00
00
7C
02
02
7E
82
82
8E
72
72
ENDCHAR
STARTCHAR 0102
ENCODING 258
SWIDTH 660 0
DWIDTH 11 0
BBX 7 17 2 0
BITMAP
82
82
7C
00
00
10
6C
6C
82
82
82
FE
82
82
82
82
82
ENDCHAR
STARTCHAR 0103
ENCODING 259
SWIDTH 660 0
DWIDTH 11 0
BBX 7 14 2 0
BITMAP
82
82
7C
00
00
7C
02
02
7E
82
82
8E
72
72
ENDCHAR
STARTCHAR 0104
ENCODING 260
SWIDTH 660 0
DWIDTH 11 0
BBX 7 17 2 -5
BITMAP
10
6C
6C
82
82
82
FE
82
82
82
82
82
02
02
0C
02
02
ENDCHAR
STARTCHAR 0105
ENCODING 261
SWIDTH 660 0
DWIDTH 11 0
BBX 7 14 2 -5
BITMAP
7C
02
02
7E
82
82
8E
72
72
02
02
0C
02
02
ENDCHAR
STARTCHAR 0106
ENCODING 262
SWIDTH 660 0
DWIDTH 11 0
BBX 7 17 2 0
BITMAP
0C
0C
10
00
00
7C
82
82
80
80
80
80
80
80
82
7C
7C
ENDCHAR
STARTCHAR 0107
ENCODING 263
SWIDTH 660 0
DWIDTH 11 0
BBX 7 14 2 0
BITMAP
0C
0C
10
00
00
7C
82
82
80
80
80
82
7C
7C
ENDCHAR
STARTCHAR 0108
ENCODING 264
SWIDTH 660 0
DWIDTH 11 0
BBX 7 17 2 0
BITMAP
10
10
6C
00
00
7C
82
82
80
80
80
80
80
80
82
7C
7C
ENDCHAR
STARTCHAR 0109
ENCODING 265
SWIDTH 660 0
DWIDTH 11 0
BBX 7 14 2 0
BITMAP
10
10
6C
00
00
7C
82
82
80
80
80
82
7C
7C
ENDCHAR
STARTCHAR 010A
ENCODING 266
SWIDTH 660 0
DWIDTH 11 0
BBX 7 15 2 0
BITMAP
10
00
00
7C
82
82
80
80
80
80
80
80
82
7C
7C
ENDCHAR
STARTCHAR 010B
ENCODING 267
SWIDTH 660 0
DWIDTH 11 0
BBX 7 12 2 0
BITMAP
10
00
00
7C
82
82
80
80
80
82
7C
7C
ENDCHAR
STARTCHAR 010C
ENCODING 268
SWIDTH 660 0
DWIDTH 11 0
BBX 7 17 2 0
BITMAP
6C
6C
10
00
00
7C
82
82
80
80
80
80
80
80
82
7C
7C
ENDCHAR
STARTCHAR 010D
ENCODING 269
SWIDTH 660 0
DWIDTH 11 0
BBX 7 14 2 0
BITMAP
6C
6C
10
00
00
7C
82
82
80
80
80
82
7C
7C
ENDCHAR
STARTCHAR 010E
ENCODING 270
SWIDTH 660 0
DWIDTH 11 0
BBX 7 17 2 0
BITMAP
6C
6C
10
00
00
FC
82
82
82
82
82
82
82
82
82
FC
FC
ENDCHAR
STARTCHAR 010F
ENCODING 271
SWIDTH 660 0
DWIDTH 11 0
BBX 11 12 0 0
BITMAP
0360
0380
0380
3B00
C700
C700
C300
C300
C300
C700
3B00
3B00
ENDCHAR
STARTCHAR 0110
ENCODING 272
SWIDTH 660 0
DWIDTH 11 0
BBX 9 12 0 0
BITMAP
3F00
2080
2080
2080
FC80
FC80
2080
2080
2080
2080
3F00
3F00
ENDCHAR
STARTCHAR 0111
ENCODING 273
SWIDTH 660 0
DWIDTH 11 0
BBX 9 12 2 0
BITMAP
1F80
0200
0200
7200
8E00
8E00
8200
8200
8200
8E00
7200
7200
ENDCHAR
STARTCHAR 0112
ENCODING 274
SWIDTH 660 0
DWIDTH 11 0
BBX 7 15 2 0
BITMAP
7C
00
00
FE
80
80
80
FC
FC
80
80
80
80
FE
FE
ENDCHAR
STARTCHAR 0113
ENCODING 275
SWIDTH 660 0
DWIDTH 11 0
BBX 7 12 2 0
BITMAP
7C
00
00
7C
82
82
FE
80
80
82
7C
7C
ENDCHAR
STARTCHAR 0114
ENCODING 276
SWIDTH 660 0
DWIDTH 11 0
BBX 7 17 2 0
BITMAP
82
82
7C
00
00
FE
80
80
80
FC
FC
80
80
80
80
FE
FE
ENDCHAR
STARTCHAR 0115
ENCODING 277
SWIDTH 660 0
DWIDTH 11 0
BBX 7 14 2 0
BITMAP
82
82
7C
00
00
7C
82
82
FE
80
80
82
7C
7C
ENDCHAR
STARTCHAR 0116
ENCODING 278
SWIDTH 660 0
DWIDTH 11 0
BBX 7 15 2 0
BITMAP
10
00
00
FE
80
80
80
FC
FC
80
80
80
80
FE
FE
ENDCHAR
STARTCHAR 0117
ENCODING 279
SWIDTH 660 0
DWIDTH 11 0
BBX 7 12 2 0
BITMAP
10
00
00
7C
82
82
FE
80
80
82
7C
7C
ENDCHAR
STARTCHAR 0118
ENCODING 280
SWIDTH 660 0
DWIDTH 11 0
BBX 7 17 2 -5
BITMAP
FE
80
80
80
FC
FC
80
80
80
80
FE
FE
02
02
0C
02
02
ENDCHAR
STARTCHAR 0119
ENCODING 281
SWIDTH 660 0
DWIDTH 11 0
BBX 7 14 2 -5
BITMAP
7C
82
82
FE
80
80
82
7C
7C
10
10
60
10
10
ENDCHAR
STARTCHAR 011A
ENCODING 282
SWIDTH 660 0
DWIDTH 11 0
BBX 7 17 2 0
BITMAP
6C
6C
10
00
00
FE
80
80
80
FC
FC
80
80
80
80
FE
FE
ENDCHAR
STARTCHAR 011B
ENCODING 283
SWIDTH 660 0
DWIDTH 11 0
BBX 7 14 2 0
BITMAP
6C
6C
10
00
00
7C
82
82
FE
80
80
82
7C
7C
ENDCHAR
STARTCHAR 011C
ENCODING 284
SWIDTH 660 0
DWIDTH 11 0
BBX 7 17 2 0
BITMAP
10
10
6C
00
00
7C
82
82
80
80
80
8E
82
82
82
7C
7C
ENDCHAR
STARTCHAR 011D
ENCODING 285
SWIDTH 660 0
DWIDTH 11 0
BBX 7 17 2 -3
BITMAP
10
10
6C
00
00
72
8E
8E
82
82
82
8E
72
72
02
02
7C
ENDCHAR
STARTCHAR 011E
ENCODING 286
SWIDTH 660 0
DWIDTH 11 0
BBX 7 17 2 0
BITMAP
82
82
7C
00
00
7C
82
82
80
80
80
8E
82
82
82
7C
7C
ENDCHAR
STARTCHAR 011F
ENCODING 287
SWIDTH 660 0
DWIDTH 11 0
BBX 7 17 2 -3
BITMAP
82
82
7C
00
00
72
8E
8E
82
82
82
8E
72
72
02
02
7C
ENDCHAR
STARTCHAR 0120
ENCODING 288
SWIDTH 660 0
DWIDTH 11 0
BBX 7 15 2 0
BITMAP
10
00
00
7C
82
82
80
80
80
8E
82
82
82
7C
7C
ENDCHAR
STARTCHAR 0121
ENCODING 289
SWIDTH 660 0
DWIDTH 11 0
BBX 7 15 2 -3
BITMAP
10
00
00
72
8E
8E
82
82
82
8E
72
72
02
02
7C
ENDCHAR
STARTCHAR 0122
ENCODING 290
SWIDTH 660 0
DWIDTH 11 0
BBX 7 17 2 -5
BITMAP
7C
82
82
80
80
80
8E
82
82
82
7C
7C
00
00
10
60
60
ENDCHAR
STARTCHAR 0123
ENCODING 291
SWIDTH 660 0
DWIDTH 11 0
BBX 7 17 2 -3
BITMAP
0C
0C
10
00
00
72
8E
8E
82
82
82
8E
72
72
02
02
7C
ENDCHAR
STARTCHAR 0124
ENCODING 292
SWIDTH 660 0
DWIDTH 11 0
BBX 7 17 2 0
BITMAP
10
10
6C
00
00
82
82
82
82
FE
FE
82
82
82
82
82
82
ENDCHAR
STARTCHAR 0125
ENCODING 293
SWIDTH 660 0
DWIDTH 11 0
BBX 9 17 0 0
BITMAP
2000
2000
D800
0000
0000
2000
2000
2000
2700
3880
3880
2080
2080
2080
2080
2080
2080
ENDCHAR
STARTCHAR 0126
ENCODING 294
SWIDTH 660 0
DWIDTH 11 0
BBX 11 12 0 0
BITMAP
2080
FFE0
FFE0
2080
3F80
3F80
2080
2080
2080
2080
2080
2080
ENDCHAR
STARTCHAR 0127
ENCODING 295
SWIDTH 660 0
DWIDTH 11 0
BBX 9 12 0 0
BITMAP
FC00
2000
2000
2700
3880
3880
2080
2080
2080
2080
2080
2080
ENDCHAR
STARTCHAR 0128
ENCODING 296
SWIDTH 660 0
DWIDTH 11 0
BBX 7 17 2 0
BITMAP
12
12
6C
00
00
FE
10
10
10
10
10
10
10
10
10
FE
FE
ENDCHAR
STARTCHAR 0129
ENCODING 297
SWIDTH 660 0
DWIDTH 11 0
BBX 7 14 2 0
BITMAP
6C
6C
90
00
00
F0
10
10
10
10
10
10
FE
FE
ENDCHAR
STARTCHAR 012A
ENCODING 298
SWIDTH 660 0
DWIDTH 11 0
BBX 7 15 2 0
BITMAP
7C
00
00
FE
10
10
10
10
10
10
10
10
10
FE
FE
ENDCHAR
STARTCHAR 012B
ENCODING 299
SWIDTH 660 0
DWIDTH 11 0
BBX 7 12 2 0
BITMAP
7C
00
00
F0
10
10
10
10
10
10
FE
FE
ENDCHAR
STARTCHAR 012C
ENCODING 300
SWIDTH 660 0
DWIDTH 11 0
BBX 7 17 2 0
BITMAP
82
82
7C
00
00
FE
10
10
10
10
10
10
10
10
10
FE
FE
ENDCHAR
STARTCHAR 012D
ENCODING 301
SWIDTH 660 0
DWIDTH 11 0
BBX 7 14 2 0
BITMAP
82
82
7C
00
00
F0
10
10
10
10
10
10
FE
FE
ENDCHAR
STARTCHAR 012E
ENCODING 302
SWIDTH 660 0
DWIDTH 11 0
BBX 7 17 2 -5
BITMAP
FE
10
10
10
10
10
10
10
10
10
FE
FE
10
10
60
10
10
ENDCHAR
STARTCHAR 012F
ENCODING 303
SWIDTH 660 0
DWIDTH 11 0
BBX 7 14 2 -5
BITMAP
F0
10
10
10
10
10
10
FE
FE
10
10
60
10
10
ENDCHAR
STARTCHAR 0130
ENCODING 304
SWIDTH 660 0
DWIDTH 11 0
BBX 7 15 2 0
BITMAP
10
00
00
FE
10
10
10
10
10
10
10
10
10
FE
FE
ENDCHAR
STARTCHAR 0131
ENCODING 305
SWIDTH 660 0
DWIDTH 11 0
BBX 7 9 2 0
BITMAP
F0
10
10
10
10
10
10
FE
FE
ENDCHAR
STARTCHAR 0132
ENCODING 306
SWIDTH 660 0
DWIDTH 11 0
BBX 7 12 2 0
BITMAP
8E
82
82
82
82
82
02
02
02
82
7C
7C
ENDCHAR
STARTCHAR 0133
ENCODING 307
SWIDTH 660 0
DWIDTH 11 0
BBX 7 15 2 -3
BITMAP
82
00
00
82
82
82
82
82
82
8E
72
72
02
02
1C
ENDCHAR
STARTCHAR 0134
ENCODING 308
SWIDTH 660 0
DWIDTH 11 0
BBX 7 17 2 0
BITMAP
0C
0C
12
00
00
1E
02
02
02
02
02
02
02
02
82
7C
7C
ENDCHAR
STARTCHAR 0135
ENCODING 309
SWIDTH 660 0
DWIDTH 11 0
BBX 6 17 2 -3
BITMAP
10
10
6C
00
00
7C
0C
0C
0C
0C
0C
0C
0C
0C
8C
8C
70
ENDCHAR
STARTCHAR 0136
ENCODING 310
SWIDTH 660 0
DWIDTH 11 0
BBX 7 17 2 -5
BITMAP
82
8C
8C
90
F0
F0
8C
8C
8C
82
82
82
00
00
10
60
60
ENDCHAR
STARTCHAR 0137
ENCODING 311
SWIDTH 660 0
DWIDTH 11 0
BBX 7 17 2 -5
BITMAP
80
80
80
82
8C
8C
90
F0
F0
8C
82
82
00
00
10
60
60
ENDCHAR
STARTCHAR 0138
ENCODING 312
SWIDTH 660 0
DWIDTH 11 0
BBX 7 9 2 0
BITMAP
82
8C
8C
90
F0
F0
8C
82
82
ENDCHAR
STARTCHAR 0139
ENCODING 313
SWIDTH 660 0
DWIDTH 11 0
BBX 7 17 2 0
BITMAP
60
60
80
00
00
80
80
80
80
80
80
80
80
80
80
FE
FE
ENDCHAR
STARTCHAR 013A
ENCODING 314
SWIDTH 660 0
DWIDTH 11 0
BBX 7 17 2 0
BITMAP
0C
0C
10
00
00
F0
10
10
10
10
10
10
10
10
10
FE
FE
ENDCHAR
STARTCHAR 013B
ENCODING 315
SWIDTH 660 0
DWIDTH 11 0
BBX 7 17 2 -5
BITMAP
80
80
80
80
80
80
80
80
80
80
FE
FE
00
00
10
60
60
ENDCHAR
STARTCHAR 013C
ENCODING 316
SWIDTH 660 0
DWIDTH 11 0
BBX 7 17 2 -5
BITMAP
F0
10
10
10
10
10
10
10
10
10
FE
FE
00
00
10
60
60
ENDCHAR
STARTCHAR 013D
ENCODING 317
SWIDTH 660 0
DWIDTH 11 0
BBX 7 12 2 0
BITMAP
8C
90
90
80
80
80
80
80
80
80
FE
FE
ENDCHAR
STARTCHAR 013E
ENCODING 318
SWIDTH 660 0
DWIDTH 11 0
BBX 9 12 2 0
BITMAP
F180
1200
1200
1000
1000
1000
1000
1000
1000
1000
FE00
FE00
ENDCHAR
STARTCHAR 013F
ENCODING 319
SWIDTH 660 0
DWIDTH 11 0
BBX 7 12 2 0
BITMAP
80
80
80
80
8C
8C
8C
80
80
80
FE
FE
ENDCHAR
STARTCHAR 0140
ENCODING 320
SWIDTH 660 0
DWIDTH 11 0
BBX 7 12 2 0
BITMAP
F0
10
10
10
12
12
12
10
10
10
FE
FE
ENDCHAR
STARTCHAR 0141
ENCODING 321
SWIDTH 660 0
DWIDTH 11 0
BBX 9 12 0 0
BITMAP
2000
2300
2300
2400
3800
3800
2000
E000
E000
2000
3F80
3F80
ENDCHAR
STARTCHAR 0142
ENCODING 322
SWIDTH 660 0
DWIDTH 11 0
BBX 7 12 2 0
BITMAP
F0
12
12
1C
10
10
70
90
90
10
FE
FE
ENDCHAR
STARTCHAR 0143
ENCODING 323
SWIDTH 660 0
DWIDTH 11 0
BBX 7 17 2 0
BITMAP
0C
0C
10
00
00
82
82
82
E2
92
92
8E
82
82
82
82
82
ENDCHAR
STARTCHAR 0144
ENCODING 324
SWIDTH 660 0
DWIDTH 11 0
BBX 7 14 2 0
BITMAP
0C
0C
10
00
00
9C
E2
E2
82
82
82
82
82
82
ENDCHAR
STARTCHAR 0145
ENCODING 325
SWIDTH 660 0
DWIDTH 11 0
BBX 7 17 2 -5
BITMAP
82
82
82
E2
92
92
8E
82
82
82
82
82
00
00
10
60
60
ENDCHAR
STARTCHAR 0146
ENCODING 326
SWIDTH 660 0
DWIDTH 11 0
BBX 7 14 2 -5
BITMAP
9C
E2
E2
82
82
82
82
82
82
00
00
10
60
60
ENDCHAR
STARTCHAR 0147
ENCODING 327
SWIDTH 660 0
DWIDTH 11 0
BBX 7 17 2 0
BITMAP
6C
6C
10
00
00
82
82
82
E2
92
92
8E
82
82
82
82
82
ENDCHAR
STARTCHAR 0148
ENCODING 328
SWIDTH 660 0
DWIDTH 11 0
BBX 7 14 2 0
BITMAP
6C
6C
10
00
00
9C
E2
E2
82
82
82
82
82
82
ENDCHAR
STARTCHAR 014A
ENCODING 330
SWIDTH 660 0
DWIDTH 11 0
BBX 7 15 2 -3
BITMAP
82
82
82
E2
92
92
8E
82
82
82
82
82
02
02
0C
ENDCHAR
STARTCHAR 014B
ENCODING 331
SWIDTH 660 0
DWIDTH 11 0
BBX 7 12 2 -3
BITMAP
9C
E2
E2
82
82
82
82
82
82
02
02
0C
ENDCHAR
STARTCHAR 014C
ENCODING 332
SWIDTH 660 0
DWIDTH 11 0
BBX 7 15 2 0
BITMAP
7C
00
00
7C
82
82
82
82
82
82
82
82
82
7C
7C
ENDCHAR
STARTCHAR 014D
ENCODING 333
SWIDTH 660 0
DWIDTH 11 0
BBX 7 12 2 0
BITMAP
7C
00
00
7C
82
82
82
82
82
82
7C
7C
ENDCHAR
STARTCHAR 014E
ENCODING 334
SWIDTH 660 0
DWIDTH 11 0
BBX 7 17 2 0
BITMAP
82
82
7C
00
00
7C
82
82
82
82
82
82
82
82
82
7C
7C
ENDCHAR
STARTCHAR 014F
ENCODING 335
SWIDTH 660 0
DWIDTH 11 0
BBX 7 14 2 0
BITMAP
82
82
7C
00
00
7C
82
82
82
82
82
82
7C
7C
ENDCHAR
STARTCHAR 0150
ENCODING 336
SWIDTH 660 0
DWIDTH 11 0
BBX 7 17 2 0
BITMAP
6C
6C
6C
00
00
7C
82
82
82
82
82
82
82
82
82
7C
7C
ENDCHAR
STARTCHAR 0151
ENCODING 337
SWIDTH 660 0
DWIDTH 11 0
BBX 7 14 2 0
BITMAP
6C
6C
6C
00
00
7C
82
82
82
82
82
82
7C
7C
ENDCHAR
STARTCHAR 0152
ENCODING 338
SWIDTH 660 0
DWIDTH 11 0
BBX 11 12 0 0
BITMAP
3FE0
C400
C400
C400
C780
C780
C400
C400
C400
C400
3FE0
3FE0
ENDCHAR
STARTCHAR 0153
ENCODING 339
SWIDTH 660 0
DWIDTH 11 0
BBX 11 9 0 0
BITMAP
3B80
C460
C460
C7E0
C400
C400
C460
3B80
3B80
ENDCHAR
STARTCHAR 0154
ENCODING 340
SWIDTH 660 0
DWIDTH 11 0
BBX 7 17 2 0
BITMAP
0C
0C
10
00
00
FC
82
82
82
82
82
FC
8C
8C
82
82
82
ENDCHAR
STARTCHAR 0155
ENCODING 341
SWIDTH 660 0
DWIDTH 11 0
BBX 7 14 2 0
BITMAP
0C
0C
10
00
00
EE
70
70
60
60
60
60
FC
FC
ENDCHAR
STARTCHAR 0156
ENCODING 342
SWIDTH 660 0
DWIDTH 11 0
BBX 7 17 2 -5
BITMAP
FC
82
82
82
82
82
FC
8C
8C
82
82
82
00
00
10
60
60
ENDCHAR
STARTCHAR 0157
ENCODING 343
SWIDTH 660 0
DWIDTH 11 0
BBX 7 14 2 -5
BITMAP
EE
70
70
60
60
60
60
FC
FC
00
00
60
80
80
ENDCHAR
STARTCHAR 0158
ENCODING 344
SWIDTH 660 0
DWIDTH 11 0
BBX 7 17 2 0
BITMAP
6C
6C
10
00
00
FC
82
82
82
82
82
FC
8C
8C
82
82
82
ENDCHAR
STARTCHAR 0159
ENCODING 345
SWIDTH 660 0
DWIDTH 11 0
BBX 7 14 2 0
BITMAP
6C
6C
10
00
00
EE
70
70
60
60
60
60
FC
FC
ENDCHAR
STARTCHAR 015A
ENCODING 346
SWIDTH 660 0
DWIDTH 11 0
BBX 7 17 2 0
BITMAP
0C
0C
10
00
00
7C
82
82
80
7C
7C
02
02
02
82
7C
7C
ENDCHAR
STARTCHAR 015B
ENCODING 347
SWIDTH 660 0
DWIDTH 11 0
BBX 7 14 2 0
BITMAP
0C
0C
10
00
00
7C
82
82
7C
02
02
82
7C
7C
ENDCHAR
STARTCHAR 015C
ENCODING 348
SWIDTH 660 0
DWIDTH 11 0
BBX 7 17 2 0
BITMAP
10
10
6C
00
00
7C
82
82
80
7C
7C
02
02
02
82
7C
7C
ENDCHAR
STARTCHAR 015D
ENCODING 349
SWIDTH 660 0
DWIDTH 11 0
BBX 7 14 2 0
BITMAP
10
10
6C
00
00
7C
82
82
7C
02
02
82
7C
7C
ENDCHAR
STARTCHAR 015E
ENCODING 350
SWIDTH 660 0
DWIDTH 11 0
BBX 7 17 2 -5
BITMAP
7C
82
82
80
7C
7C
02
02
02
82
7C
7C
10
10
0C
10
10
ENDCHAR
STARTCHAR 015F
ENCODING 351
SWIDTH 660 0
DWIDTH 11 0
BBX 7 14 2 -5
BITMAP
7C
82
82
7C
02
02
82
7C
7C
10
10
0C
10
10
ENDCHAR
STARTCHAR 0160
ENCODING 352
SWIDTH 660 0
DWIDTH 11 0
BBX 7 17 2 0
BITMAP
6C
6C
10
00
00
7C
82
82
80
7C
7C
02
02
02
82
7C
7C
ENDCHAR
STARTCHAR 0161
ENCODING 353
SWIDTH 660 0
DWIDTH 11 0
BBX 7 14 2 0
BITMAP
6C
6C
10
00
00
7C
82
82
7C
02
02
82
7C
7C
ENDCHAR
STARTCHAR 0162
ENCODING 354
SWIDTH 660 0
DWIDTH 11 0
BBX 7 17 2 -5
BITMAP
FE
10
10
10
10
10
10
10
10
10
10
10
10
10
0C
10
10
ENDCHAR
STARTCHAR 0163
ENCODING 355
SWIDTH 660 0
DWIDTH 11 0
BBX 7 17 2 -5
BITMAP
60
60
60
FE
60
60
60
60
60
62
1C
1C
10
10
0C
10
10
ENDCHAR
STARTCHAR 0164
ENCODING 356
SWIDTH 660 0
DWIDTH 11 0
BBX 7 17 2 0
BITMAP
6C
6C
10
00
00
FE
10
10
10
10
10
10
10
10
10
10
10
ENDCHAR
STARTCHAR 0165
ENCODING 357
SWIDTH 660 0
DWIDTH 11 0
BBX 7 14 2 0
BITMAP
02
02
6C
60
60
FE
60
60
60
60
60
62
1C
1C
ENDCHAR
STARTCHAR 0166
ENCODING 358
SWIDTH 660 0
DWIDTH 11 0
BBX 7 12 2 0
BITMAP
FE
10
10
10
7C
7C
10
10
10
10
10
10
ENDCHAR
STARTCHAR 0167
ENCODING 359
SWIDTH 660 0
DWIDTH 11 0
BBX 7 12 2 0
BITMAP
60
60
60
FE
60
60
FE
60
60
62
1C
1C
ENDCHAR
STARTCHAR 0168
ENCODING 360
SWIDTH 660 0
DWIDTH 11 0
BBX 7 17 2 0
BITMAP
12
12
6C
00
00
82
82
82
82
82
82
82
82
82
82
7C
7C
ENDCHAR
STARTCHAR 0169
ENCODING 361
SWIDTH 660 0
DWIDTH 11 0
BBX 7 14 2 0
BITMAP
12
12
6C
00
00
82
82
82
82
82
82
8E
72
72
ENDCHAR
STARTCHAR 016A
ENCODING 362
SWIDTH 660 0
DWIDTH 11 0
BBX 7 15 2 0
BITMAP
7C
00
00
82
82
82
82
82
82
82
82
82
82
7C
7C
ENDCHAR
STARTCHAR 016B
ENCODING 363
SWIDTH 660 0
DWIDTH 11 0
BBX 7 12 2 0
BITMAP
7C
00
00
82
82
82
82
82
82
8E
72
72
ENDCHAR
STARTCHAR 016C
ENCODING 364
SWIDTH 660 0
DWIDTH 11 0
BBX 7 17 2 0
BITMAP
82
82
7C
00
00
82
82
82
82
82
82
82
82
82
82
7C
7C
ENDCHAR
STARTCHAR 016D
ENCODING 365
SWIDTH 660 0
DWIDTH 11 0
BBX 7 14 2 0
BITMAP
82
82
7C
00
00
82
82
82
82
82
82
8E
72
72
ENDCHAR
STARTCHAR 016E
ENCODING 366
SWIDTH 660 0
DWIDTH 11 0
BBX 7 17 2 0
BITMAP
10
10
6C
10
10
82
82
82
82
82
82
82
82
82
82
7C
7C
ENDCHAR
STARTCHAR 016F
ENCODING 367
SWIDTH 660 0
DWIDTH 11 0
BBX 7 15 2 0
BITMAP
10
6C
6C
10
00
00
82
82
82
82
82
82
8E
72
72
ENDCHAR
STARTCHAR 0170
ENCODING 368
SWIDTH 660 0
DWIDTH 11 0
BBX 7 17 2 0
BITMAP
6C
6C
6C
00
00
82
82
82
82
82
82
82
82
82
82
7C
7C
ENDCHAR
STARTCHAR 0171
ENCODING 369
SWIDTH 660 0
DWIDTH 11 0
BBX 7 14 2 0
BITMAP
6C
6C
6C
00
00
82
82
82
82
82
82
8E
72
72
ENDCHAR
STARTCHAR 0172
ENCODING 370
SWIDTH 660 0
DWIDTH 11 0
BBX 7 17 2 -5
BITMAP
82
82
82
82
82
82
82
82
82
82
7C
7C
10
10
60
10
10
ENDCHAR
STARTCHAR 0173
ENCODING 371
SWIDTH 660 0
DWIDTH 11 0
BBX 7 14 2 -5
BITMAP
82
82
82
82
82
82
8E
72
72
02
02
0C
02
02
ENDCHAR
STARTCHAR 0174
ENCODING 372
SWIDTH 660 0
DWIDTH 11 0
BBX 7 17 2 0
BITMAP
10
10
6C
00
00
82
82
82
82
92
92
92
6C
6C
6C
6C
6C
ENDCHAR
STARTCHAR 0175
ENCODING 373
SWIDTH 660 0
DWIDTH 11 0
BBX 7 14 2 0
BITMAP
10
10
6C
00
00
92
92
92
92
92
92
92
6E
6E
ENDCHAR
STARTCHAR 0176
ENCODING 374
SWIDTH 660 0
DWIDTH 11 0
BBX 7 17 2 0
BITMAP
10
10
6C
00
00
82
82
82
82
6C
6C
10
10
10
10
10
10
ENDCHAR
STARTCHAR 0177
ENCODING 375
SWIDTH 660 0
DWIDTH 11 0
BBX 7 17 2 -3
BITMAP
10
10
6C
00
00
82
82
82
82
6C
6C
6C
10
10
10
10
E0
ENDCHAR
STARTCHAR 0178
ENCODING 376
SWIDTH 660 0
DWIDTH 11 0
BBX 7 15 2 0
BITMAP
6C
00
00
82
82
82
82
6C
6C
10
10
10
10
10
10
ENDCHAR
STARTCHAR 0179
ENCODING 377
SWIDTH 660 0
DWIDTH 11 0
BBX 7 17 2 0
BITMAP
0C
0C
10
00
00
FE
02
02
0C
10
10
60
80
80
80
FE
FE
ENDCHAR
STARTCHAR 017A
ENCODING 378
SWIDTH 660 0
DWIDTH 11 0
BBX 7 14 2 0
BITMAP
0C
0C
10
00
00
FE
0C
0C
10
60
60
80
FE
FE
ENDCHAR
STARTCHAR 017B
ENCODING 379
SWIDTH 660 0
DWIDTH 11 0
BBX 7 15 2 0
BITMAP
10
00
00
FE
02
02
0C
10
10
60
80
80
80
FE
FE
ENDCHAR
STARTCHAR 017C
ENCODING 380
SWIDTH 660 0
DWIDTH 11 0
BBX 7 12 2 0
BITMAP
10
00
00
FE
0C
0C
10
60
60
80
FE
FE
ENDCHAR
STARTCHAR 017D
ENCODING 381
SWIDTH 660 0
DWIDTH 11 0
BBX 7 17 2 0
BITMAP
6C
6C
10
00
00
FE
02
02
0C
10
10
60
80
80
80
FE
FE
ENDCHAR
STARTCHAR 017E
ENCODING 382
SWIDTH 660 0
DWIDTH 11 0
BBX 7 14 2 0
BITMAP
6C
6C
10
00
00
FE
0C
0C
10
60
60
80
FE
FE
ENDCHAR
STARTCHAR 017F
ENCODING 383
SWIDTH 660 0
DWIDTH 11 0
BBX 7 12 2 0
BITMAP
0E
10
10
10
10
10
10
10
10
10
FE
FE
ENDCHAR
STARTCHAR 0181
ENCODING 385
SWIDTH 660 0
DWIDTH 11 0
BBX 9 12 0 0
BITMAP
FF00
2080
2080
2080
3F00
3F00
2080
2080
2080
2080
3F00
3F00
ENDCHAR
STARTCHAR 0186
ENCODING 390
SWIDTH 660 0
DWIDTH 11 0
BBX 7 12 2 0
BITMAP
7C
82
82
02
02
02
02
02
02
82
7C
7C
ENDCHAR
STARTCHAR 0189
ENCODING 393
SWIDTH 660 0
DWIDTH 11 0
BBX 9 12 0 0
BITMAP
3F00
2080
2080
2080
FC80
FC80
2080
2080
2080
2080
3F00
3F00
ENDCHAR
STARTCHAR 018A
ENCODING 394
SWIDTH 660 0
DWIDTH 11 0
BBX 9 12 0 0
BITMAP
FF00
2080
2080
2080
2080
2080
2080
2080
2080
2080
3F00
3F00
ENDCHAR
STARTCHAR 018E
ENCODING 398
SWIDTH 660 0
DWIDTH 11 0
BBX 7 12 2 0
BITMAP
FE
02
02
02
7E
7E
02
02
02
02
FE
FE
ENDCHAR
STARTCHAR 018F
ENCODING 399
SWIDTH 660 0
DWIDTH 11 0
BBX 7 12 2 0
BITMAP
7C
82
82
02
02
02
FE
82
82
82
7C
7C
ENDCHAR
STARTCHAR 0190
ENCODING 400
SWIDTH 660 0
DWIDTH 11 0
BBX 7 12 2 0
BITMAP
7C
82
82
80
70
70
80
80
80
82
7C
7C
ENDCHAR
STARTCHAR 0191
ENCODING 401
SWIDTH 660 0
DWIDTH 11 0
BBX 9 15 0 -3
BITMAP
3F80
2000
2000
2000
3F00
3F00
2000
2000
2000
2000
2000
2000
2000
2000
C000
ENDCHAR
STARTCHAR 0192
ENCODING 402
SWIDTH 660 0
DWIDTH 11 0
BBX 9 14 2 -2
BITMAP
0F80
1000
1000
7F80
1000
1000
1000
1000
1000
1000
1000
1000
E000
E000
ENDCHAR
STARTCHAR 0193
ENCODING 403
SWIDTH 660 0
DWIDTH 11 0
BBX 9 15 2 0
BITMAP
0180
0200
0200
7E00
8200
8200
8000
8000
8000
8E00
8200
8200
8200
7C00
7C00
ENDCHAR
STARTCHAR 0194
ENCODING 404
SWIDTH 660 0
DWIDTH 11 0
BBX 7 17 2 -5
BITMAP
82
82
82
82
82
82
82
6C
6C
6C
10
10
10
10
6C
10
10
ENDCHAR
STARTCHAR 0197
ENCODING 407
SWIDTH 660 0
DWIDTH 11 0
BBX 7 12 2 0
BITMAP
FE
10
10
10
7C
7C
10
10
10
10
FE
FE
ENDCHAR
STARTCHAR 0198
ENCODING 408
SWIDTH 660 0
DWIDTH 11 0
BBX 9 12 2 0
BITMAP
8380
8C00
8C00
9000
F000
F000
8C00
8C00
8C00
8200
8200
8200
ENDCHAR
STARTCHAR 0199
ENCODING 409
SWIDTH 660 0
DWIDTH 11 0
BBX 7 12 2 0
BITMAP
70
80
80
82
8C
8C
90
F0
F0
8C
82
82
ENDCHAR
STARTCHAR 019D
ENCODING 413
SWIDTH 660 0
DWIDTH 11 0
BBX 9 15 0 -3
BITMAP
2080
2080
2080
3880
2480
2480
2380
2080
2080
2080
2080
2080
2000
2000
C000
ENDCHAR
STARTCHAR 01AF
ENCODING 431
SWIDTH 660 0
DWIDTH 11 0
BBX 9 15 2 0
BITMAP
0180
0180
0180
8200
8200
8200
8200
8200
8200
8200
8200
8200
8200
7C00
7C00
ENDCHAR
STARTCHAR 01B0
ENCODING 432
SWIDTH 660 0
DWIDTH 11 0
BBX 9 11 2 0
BITMAP
0180
0180
8200
8200
8200
8200
8200
8200
8E00
7200
7200
ENDCHAR
STARTCHAR 01B2
ENCODING 434
SWIDTH 660 0
DWIDTH 11 0
BBX 7 12 2 0
BITMAP
8C
82
82
82
82
82
82
82
82
82
7C
7C
ENDCHAR
STARTCHAR 01B3
ENCODING 435
SWIDTH 660 0
DWIDTH 11 0
BBX 9 12 2 0
BITMAP
8180
8200
8200
8200
6C00
6C00
1000
1000
1000
1000
1000
1000
ENDCHAR
STARTCHAR 01B4
ENCODING 436
SWIDTH 660 0
DWIDTH 11 0
BBX 9 12 2 -3
BITMAP
8180
8200
8200
8200
6C00
6C00
6C00
1000
1000
1000
1000
E000
ENDCHAR
STARTCHAR 01C0
ENCODING 448
SWIDTH 660 0
DWIDTH 11 0
BBX 1 16 5 -2
BITMAP
80
80
80
80
80
80
80
80
80
80
80
80
80
80
80
80
ENDCHAR
STARTCHAR 01C1
ENCODING 449
SWIDTH 660 0
DWIDTH 11 0
BBX 5 16 3 -2
BITMAP
D8
D8
D8
D8
D8
D8
D8
D8
D8
D8
D8
D8
D8
D8
D8
D8
ENDCHAR
STARTCHAR 01C2
ENCODING 450
SWIDTH 660 0
DWIDTH 11 0
BBX 7 16 2 -2
BITMAP
10
10
10
10
10
FE
10
10
10
FE
FE
10
10
10
10
10
ENDCHAR
STARTCHAR 01C3
ENCODING 451
SWIDTH 660 0
DWIDTH 11 0
BBX 1 12 5 0
BITMAP
80
80
80
80
80
80
80
80
80
00
80
80
ENDCHAR
STARTCHAR 01CD
ENCODING 461
SWIDTH 660 0
DWIDTH 11 0
BBX 7 17 2 0
BITMAP
6C
6C
10
00
00
10
6C
6C
82
82
82
FE
82
82
82
82
82
ENDCHAR
STARTCHAR 01CE
ENCODING 462
SWIDTH 660 0
DWIDTH 11 0
BBX 7 14 2 0
BITMAP
6C
6C
10
00
00
7C
02
02
7E
82
82
8E
72
72
ENDCHAR
STARTCHAR 01CF
ENCODING 463
SWIDTH 660 0
DWIDTH 11 0
BBX 7 17 2 0
BITMAP
6C
6C
10
00
00
FE
10
10
10
10
10
10
10
10
10
FE
FE
ENDCHAR
STARTCHAR 01D0
ENCODING 464
SWIDTH 660 0
DWIDTH 11 0
BBX 7 14 2 0
BITMAP
6C
6C
10
00
00
F0
10
10
10
10
10
10
FE
FE
ENDCHAR
STARTCHAR 01D1
ENCODING 465
SWIDTH 660 0
DWIDTH 11 0
BBX 7 17 2 0
BITMAP
6C
6C
10
00
00
7C
82
82
82
82
82
82
82
82
82
7C
7C
ENDCHAR
STARTCHAR 01D2
ENCODING 466
SWIDTH 660 0
DWIDTH 11 0
BBX 7 14 2 0
BITMAP
6C
6C
10
00
00
7C
82
82
82
82
82
82
7C
7C
ENDCHAR
STARTCHAR 01D3
ENCODING 467
SWIDTH 660 0
DWIDTH 11 0
BBX 7 17 2 0
BITMAP
6C
6C
10
00
00
82
82
82
82
82
82
82
82
82
82
7C
7C
ENDCHAR
STARTCHAR 01D4
ENCODING 468
SWIDTH 660 0
DWIDTH 11 0
BBX 7 14 2 0
BITMAP
6C
6C
10
00
00
82
82
82
82
82
82
8E
72
72
ENDCHAR
STARTCHAR 01DD
ENCODING 477
SWIDTH 660 0
DWIDTH 11 0
BBX 7 9 2 0
BITMAP
7C
82
82
02
FE
FE
82
7C
7C
ENDCHAR
STARTCHAR 01E6
ENCODING 486
SWIDTH 660 0
DWIDTH 11 0
BBX 7 17 2 0
BITMAP
6C
6C
10
00
00
7C
82
82
80
80
80
8E
82
82
82
7C
7C
ENDCHAR
STARTCHAR 01E7
ENCODING 487
SWIDTH 660 0
DWIDTH 11 0
BBX 7 17 2 -3
BITMAP
6C
6C
10
00
00
72
8E
8E
82
82
82
8E
72
72
02
02
7C
ENDCHAR
STARTCHAR 01EA
ENCODING 490
SWIDTH 660 0
DWIDTH 11 0
BBX 7 17 2 -5
BITMAP
7C
82
82
82
82
82
82
82
82
82
7C
7C
10
10
60
10
10
ENDCHAR
STARTCHAR 01EB
ENCODING 491
SWIDTH 660 0
DWIDTH 11 0
BBX 7 14 2 -5
BITMAP
7C
82
82
82
82
82
82
7C
7C
10
10
60
10
10
ENDCHAR
STARTCHAR 01F8
ENCODING 504
SWIDTH 660 0
DWIDTH 11 0
BBX 7 17 2 0
BITMAP
60
60
10
00
00
82
82
82
E2
92
92
8E
82
82
82
82
82
ENDCHAR
STARTCHAR 01F9
ENCODING 505
SWIDTH 660 0
DWIDTH 11 0
BBX 7 14 2 0
BITMAP
60
60
10
00
00
9C
E2
E2
82
82
82
82
82
82
ENDCHAR
STARTCHAR 01FA
ENCODING 506
SWIDTH 660 0
DWIDTH 11 0
BBX 7 17 2 0
BITMAP
1E
1E
6C
10
10
10
6C
6C
82
82
82
FE
82
82
82
82
82
ENDCHAR
STARTCHAR 01FB
ENCODING 507
SWIDTH 660 0
DWIDTH 11 0
BBX 7 15 2 0
BITMAP
1E
6C
6C
10
00
00
7C
02
02
7E
82
82
8E
72
72
ENDCHAR
STARTCHAR 01FC
ENCODING 508
SWIDTH 660 0
DWIDTH 11 0
BBX 11 17 0 0
BITMAP
0300
0300
0400
0000
0000
1FE0
2400
2400
C400
C780
C780
FC00
C400
C400
C400
C7E0
C7E0
ENDCHAR
STARTCHAR 01FD
ENCODING 509
SWIDTH 660 0
DWIDTH 11 0
BBX 11 14 0 0
BITMAP
0300
0300
0400
0000
0000
3B80
0460
0460
3FE0
C400
C400
C460
3B80
3B80
ENDCHAR
STARTCHAR 01FE
ENCODING 510
SWIDTH 660 0
DWIDTH 11 0
BBX 11 17 0 0
BITMAP
0300
0300
0400
0000
0000
1F60
2080
2080
2380
2480
2480
3880
2080
2080
E080
1F00
1F00
ENDCHAR
STARTCHAR 01FF
ENCODING 511
SWIDTH 660 0
DWIDTH 11 0
BBX 11 16 0 -2
BITMAP
0300
0300
0400
0000
0000
1F60
2080
2080
2380
2480
2480
3880
3F00
3F00
C000
C000
ENDCHAR
STARTCHAR 0218
ENCODING 536
SWIDTH 660 0
DWIDTH 11 0
BBX 7 17 2 -5
BITMAP
7C
82
82
80
7C
7C
02
02
02
82
7C
7C
00
00
10
60
60
ENDCHAR
STARTCHAR 0219
ENCODING 537
SWIDTH 660 0
DWIDTH 11 0
BBX 7 14 2 -5
BITMAP
7C
82
82
7C
02
02
82
7C
7C
00
00
10
60
60
ENDCHAR
STARTCHAR 021A
ENCODING 538
SWIDTH 660 0
DWIDTH 11 0
BBX 7 17 2 -5
BITMAP
FE
10
10
10
10
10
10
10
10
10
10
10
00
00
10
60
60
ENDCHAR
STARTCHAR 021B
ENCODING 539
SWIDTH 660 0
DWIDTH 11 0
BBX 7 17 2 -5
BITMAP
60
60
60
FE
60
60
60
60
60
62
1C
1C
00
00
10
60
60
ENDCHAR
STARTCHAR 021E
ENCODING 542
SWIDTH 660 0
DWIDTH 11 0
BBX 7 17 2 0
BITMAP
6C
6C
10
00
00
82
82
82
82
FE
FE
82
82
82
82
82
82
ENDCHAR
STARTCHAR 021F
ENCODING 543
SWIDTH 660 0
DWIDTH 11 0
BBX 9 17 0 0
BITMAP
D800
D800
2000
0000
0000
2000
2000
2000
2700
3880
3880
2080
2080
2080
2080
2080
2080
ENDCHAR
STARTCHAR 0232
ENCODING 562
SWIDTH 660 0
DWIDTH 11 0
BBX 7 15 2 0
BITMAP
7C
00
00
82
82
82
82
6C
6C
10
10
10
10
10
10
ENDCHAR
STARTCHAR 0233
ENCODING 563
SWIDTH 660 0
DWIDTH 11 0
BBX 7 15 2 -3
BITMAP
7C
00
00
82
82
82
82
6C
6C
6C
10
10
10
10
E0
ENDCHAR
STARTCHAR 0237
ENCODING 567
SWIDTH 660 0
DWIDTH 11 0
BBX 6 12 2 -3
BITMAP
7C
0C
0C
0C
0C
0C
0C
0C
0C
8C
8C
70
ENDCHAR
STARTCHAR 0244
ENCODING 580
SWIDTH 660 0
DWIDTH 11 0
BBX 11 12 0 0
BITMAP
2080
2080
2080
2080
FFE0
FFE0
2080
2080
2080
2080
1F00
1F00
ENDCHAR
STARTCHAR 0253
ENCODING 595
SWIDTH 660 0
DWIDTH 11 0
BBX 7 12 2 0
BITMAP
70
80
80
9C
E2
E2
82
82
82
E2
9C
9C
ENDCHAR
STARTCHAR 0254
ENCODING 596
SWIDTH 660 0
DWIDTH 11 0
BBX 7 9 2 0
BITMAP
7C
82
82
02
02
02
82
7C
7C
ENDCHAR
STARTCHAR 0256
ENCODING 598
SWIDTH 660 0
DWIDTH 11 0
BBX 9 15 2 -3
BITMAP
0200
0200
0200
7200
8E00
8E00
8200
8200
8200
8E00
7200
7200
0200
0200
0180
ENDCHAR
STARTCHAR 0257
ENCODING 599
SWIDTH 660 0
DWIDTH 11 0
BBX 9 12 2 0
BITMAP
0180
0200
0200
7200
8E00
8E00
8200
8200
8200
8E00
7200
7200
ENDCHAR
STARTCHAR 0259
ENCODING 601
SWIDTH 660 0
DWIDTH 11 0
BBX 7 9 2 0
BITMAP
7C
82
82
02
FE
FE
82
7C
7C
ENDCHAR
STARTCHAR 025B
ENCODING 603
SWIDTH 660 0
DWIDTH 11 0
BBX 7 9 2 0
BITMAP
7C
82
82
70
80
80
82
7C
7C
ENDCHAR
STARTCHAR 0260
ENCODING 608
SWIDTH 660 0
DWIDTH 11 0
BBX 9 15 2 -3
BITMAP
0180
0200
0200
7200
8E00
8E00
8200
8200
8200
8E00
7200
7200
0200
0200
7C00
ENDCHAR
STARTCHAR 0263
ENCODING 611
SWIDTH 660 0
DWIDTH 11 0
BBX 7 14 2 -5
BITMAP
82
82
82
82
6C
6C
6C
10
10
10
10
6C
10
10
ENDCHAR
STARTCHAR 0268
ENCODING 616
SWIDTH 660 0
DWIDTH 11 0
BBX 7 12 2 0
BITMAP
10
00
00
F0
10
10
FE
10
10
10
FE
FE
ENDCHAR
STARTCHAR 0272
ENCODING 626
SWIDTH 660 0
DWIDTH 11 0
BBX 9 12 0 -3
BITMAP
2700
3880
3880
2080
2080
2080
2080
2080
2080
2000
2000
C000
ENDCHAR
STARTCHAR 027C
ENCODING 636
SWIDTH 660 0
DWIDTH 11 0
BBX 7 12 2 -3
BITMAP
EE
70
70
60
60
60
60
60
60
60
60
FC
ENDCHAR
STARTCHAR 0289
ENCODING 649
SWIDTH 660 0
DWIDTH 11 0
BBX 11 9 0 0
BITMAP
2080
2080
2080
FFE0
2080
2080
2380
1C80
1C80
ENDCHAR
STARTCHAR 028B
ENCODING 651
SWIDTH 660 0
DWIDTH 11 0
BBX 7 9 2 0
BITMAP
8C
82
82
82
82
82
82
7C
7C
ENDCHAR
STARTCHAR 0294
ENCODING 660
SWIDTH 660 0
DWIDTH 11 0
BBX 7 12 2 0
BITMAP
7C
82
82
02
0C
0C
10
10
10
10
10
10
ENDCHAR
STARTCHAR 02BB
ENCODING 699
SWIDTH 660 0
DWIDTH 11 0
BBX 3 4 5 8
BITMAP
60
80
80
80
ENDCHAR
STARTCHAR 02BC
ENCODING 700
SWIDTH 660 0
DWIDTH 11 0
BBX 3 4 3 8
BITMAP
20
20
20
C0
ENDCHAR
STARTCHAR 02C6
ENCODING 710
SWIDTH 660 0
DWIDTH 11 0
BBX 5 3 3 11
BITMAP
20
20
D8
ENDCHAR
STARTCHAR 02C7
ENCODING 711
SWIDTH 660 0
DWIDTH 11 0
BBX 5 3 3 11
BITMAP
D8
D8
20
ENDCHAR
STARTCHAR 02D8
ENCODING 728
SWIDTH 660 0
DWIDTH 11 0
BBX 7 3 2 11
BITMAP
82
82
7C
ENDCHAR
STARTCHAR 02D9
ENCODING 729
SWIDTH 660 0
DWIDTH 11 0
BBX 1 1 5 11
BITMAP
80
ENDCHAR
STARTCHAR 02DA
ENCODING 730
SWIDTH 660 0
DWIDTH 11 0
BBX 5 4 3 11
BITMAP
20
D8
D8
20
ENDCHAR
STARTCHAR 02DB
ENCODING 731
SWIDTH 660 0
DWIDTH 11 0
BBX 3 5 3 -5
BITMAP
20
20
C0
20
20
ENDCHAR
STARTCHAR 02DC
ENCODING 732
SWIDTH 660 0
DWIDTH 11 0
BBX 6 3 3 11
BITMAP
24
24
D8
ENDCHAR
STARTCHAR 02DD
ENCODING 733
SWIDTH 660 0
DWIDTH 11 0
BBX 5 3 3 11
BITMAP
D8
D8
D8
ENDCHAR
STARTCHAR 0300
ENCODING 768
SWIDTH 660 0
DWIDTH 11 0
BBX 3 3 3 11
BITMAP
C0
C0
20
ENDCHAR
STARTCHAR 0301
ENCODING 769
SWIDTH 660 0
DWIDTH 11 0
BBX 3 3 5 11
BITMAP
60
60
80
ENDCHAR
STARTCHAR 0302
ENCODING 770
SWIDTH 660 0
DWIDTH 11 0
BBX 5 3 3 11
BITMAP
20
20
D8
ENDCHAR
STARTCHAR 0303
ENCODING 771
SWIDTH 660 0
DWIDTH 11 0
BBX 6 3 3 11
BITMAP
24
24
D8
ENDCHAR
STARTCHAR 0304
ENCODING 772
SWIDTH 660 0
DWIDTH 11 0
BBX 5 1 3 11
BITMAP
F8
ENDCHAR
STARTCHAR 0306
ENCODING 774
SWIDTH 660 0
DWIDTH 11 0
BBX 7 3 2 11
BITMAP
82
82
7C
ENDCHAR
STARTCHAR 0307
ENCODING 775
SWIDTH 660 0
DWIDTH 11 0
BBX 1 1 5 11
BITMAP
80
ENDCHAR
STARTCHAR 0308
ENCODING 776
SWIDTH 660 0
DWIDTH 11 0
BBX 5 1 3 11
BITMAP
D8
ENDCHAR
STARTCHAR 030A
ENCODING 778
SWIDTH 660 0
DWIDTH 11 0
BBX 5 4 3 11
BITMAP
20
D8
D8
20
ENDCHAR
STARTCHAR 030B
ENCODING 779
SWIDTH 660 0
DWIDTH 11 0
BBX 5 3 3 11
BITMAP
D8
D8
D8
ENDCHAR
STARTCHAR 030C
ENCODING 780
SWIDTH 660 0
DWIDTH 11 0
BBX 5 3 3 11
BITMAP
D8
D8
20
ENDCHAR
STARTCHAR 0312
ENCODING 786
SWIDTH 660 0
DWIDTH 11 0
BBX 3 3 5 11
BITMAP
60
60
80
ENDCHAR
STARTCHAR 0323
ENCODING 803
SWIDTH 660 0
DWIDTH 11 0
BBX 1 1 5 -3
BITMAP
80
ENDCHAR
STARTCHAR 0326
ENCODING 806
SWIDTH 660 0
DWIDTH 11 0
BBX 3 3 3 -5
BITMAP
20
C0
C0
ENDCHAR
STARTCHAR 0327
ENCODING 807
SWIDTH 660 0
DWIDTH 11 0
BBX 3 5 5 -5
BITMAP
80
80
60
80
80
ENDCHAR
STARTCHAR 0328
ENCODING 808
SWIDTH 660 0
DWIDTH 11 0
BBX 3 5 3 -5
BITMAP
20
20
C0
20
20
ENDCHAR
STARTCHAR 032E
ENCODING 814
SWIDTH 660 0
DWIDTH 11 0
BBX 7 3 2 -5
BITMAP
82
7C
7C
ENDCHAR
STARTCHAR 037A
ENCODING 890
SWIDTH 660 0
DWIDTH 11 0
BBX 4 5 5 -5
BITMAP
80
80
80
70
70
ENDCHAR
STARTCHAR 0384
ENCODING 900
SWIDTH 660 0
DWIDTH 11 0
BBX 3 3 5 11
BITMAP
60
60
80
ENDCHAR
STARTCHAR 0385
ENCODING 901
SWIDTH 660 0
DWIDTH 11 0
BBX 7 4 2 11
BITMAP
0C
10
10
82
ENDCHAR
STARTCHAR 0386
ENCODING 902
SWIDTH 660 0
DWIDTH 11 0
BBX 7 15 2 0
BITMAP
60
80
80
10
6C
6C
82
82
82
FE
82
82
82
82
82
ENDCHAR
STARTCHAR 0388
ENCODING 904
SWIDTH 660 0
DWIDTH 11 0
BBX 9 15 0 0
BITMAP
2000
C000
C000
3F80
2000
2000
2000
3F00
3F00
2000
2000
2000
2000
3F80
3F80
ENDCHAR
STARTCHAR 0389
ENCODING 905
SWIDTH 660 0
DWIDTH 11 0
BBX 9 15 0 0
BITMAP
2000
C000
C000
2080
2080
2080
2080
3F80
3F80
2080
2080
2080
2080
2080
2080
ENDCHAR
STARTCHAR 038A
ENCODING 906
SWIDTH 660 0
DWIDTH 11 0
BBX 9 15 0 0
BITMAP
2000
C000
C000
3F80
0400
0400
0400
0400
0400
0400
0400
0400
0400
3F80
3F80
ENDCHAR
STARTCHAR 038C
ENCODING 908
SWIDTH 660 0
DWIDTH 11 0
BBX 9 15 0 0
BITMAP
2000
C000
C000
1F00
2080
2080
2080
2080
2080
2080
2080
2080
2080
1F00
1F00
ENDCHAR
STARTCHAR 038E
ENCODING 910
SWIDTH 660 0
DWIDTH 11 0
BBX 9 15 0 0
BITMAP
2000
C000
C000
2080
2080
2080
2080
1B00
1B00
0400
0400
0400
0400
0400
0400
ENDCHAR
STARTCHAR 038F
ENCODING 911
SWIDTH 660 0
DWIDTH 11 0
BBX 9 15 0 0
BITMAP
2000
C000
C000
1F00
2080
2080
2080
2080
2080
2080
2080
2080
1B00
3B80
3B80
ENDCHAR
STARTCHAR 0390
ENCODING 912
SWIDTH 660 0
DWIDTH 11 0
BBX 7 15 2 0
BITMAP
0C
10
10
82
00
00
F0
10
10
10
10
10
10
0E
0E
ENDCHAR
STARTCHAR 0391
ENCODING 913
SWIDTH 660 0
DWIDTH 11 0
BBX 7 12 2 0
BITMAP
10
6C
6C
82
82
82
FE
82
82
82
82
82
ENDCHAR
STARTCHAR 0392
ENCODING 914
SWIDTH 660 0
DWIDTH 11 0
BBX 7 12 2 0
BITMAP
FC
82
82
82
FC
FC
82
82
82
82
FC
FC
ENDCHAR
STARTCHAR 0393
ENCODING 915
SWIDTH 660 0
DWIDTH 11 0
BBX 7 12 2 0
BITMAP
FE
82
82
80
80
80
80
80
80
80
80
80
ENDCHAR
STARTCHAR 0394
ENCODING 916
SWIDTH 660 0
DWIDTH 11 0
BBX 7 12 2 0
BITMAP
10
10
10
6C
6C
6C
6C
82
82
82
FE
FE
ENDCHAR
STARTCHAR 0395
ENCODING 917
SWIDTH 660 0
DWIDTH 11 0
BBX 7 12 2 0
BITMAP
FE
80
80
80
FC
FC
80
80
80
80
FE
FE
ENDCHAR
STARTCHAR 0396
ENCODING 918
SWIDTH 660 0
DWIDTH 11 0
BBX 7 12 2 0
BITMAP
FE
02
02
0C
10
10
60
80
80
80
FE
FE
ENDCHAR
STARTCHAR 0397
ENCODING 919
SWIDTH 660 0
DWIDTH 11 0
BBX 7 12 2 0
BITMAP
82
82
82
82
FE
FE
82
82
82
82
82
82
ENDCHAR
STARTCHAR 0398
ENCODING 920
SWIDTH 660 0
DWIDTH 11 0
BBX 7 12 2 0
BITMAP
7C
82
82
82
FE
FE
82
82
82
82
7C
7C
ENDCHAR
STARTCHAR 0399
ENCODING 921
SWIDTH 660 0
DWIDTH 11 0
BBX 7 12 2 0
BITMAP
FE
10
10
10
10
10
10
10
10
10
FE
FE
ENDCHAR
STARTCHAR 039A
ENCODING 922
SWIDTH 660 0
DWIDTH 11 0
BBX 7 12 2 0
BITMAP
82
8C
8C
90
F0
F0
8C
8C
8C
82
82
82
ENDCHAR
STARTCHAR 039B
ENCODING 923
SWIDTH 660 0
DWIDTH 11 0
BBX 7 12 2 0
BITMAP
10
10
10
6C
6C
6C
82
82
82
82
82
82
ENDCHAR
STARTCHAR 039C
ENCODING 924
SWIDTH 660 0
DWIDTH 11 0
BBX 7 12 2 0
BITMAP
82
82
82
EE
92
92
92
82
82
82
82
82
ENDCHAR
STARTCHAR 039D
ENCODING 925
SWIDTH 660 0
DWIDTH 11 0
BBX 7 12 2 0
BITMAP
82
82
82
E2
92
92
8E
82
82
82
82
82
ENDCHAR
STARTCHAR 039E
ENCODING 926
SWIDTH 660 0
DWIDTH 11 0
BBX 7 12 2 0
BITMAP
FE
00
00
00
7C
7C
00
00
00
00
FE
FE
ENDCHAR
STARTCHAR 039F
ENCODING 927
SWIDTH 660 0
DWIDTH 11 0
BBX 7 12 2 0
BITMAP
7C
82
82
82
82
82
82
82
82
82
7C
7C
ENDCHAR
STARTCHAR 03A0
ENCODING 928
SWIDTH 660 0
DWIDTH 11 0
BBX 7 12 2 0
BITMAP
FE
82
82
82
82
82
82
82
82
82
82
82
ENDCHAR
STARTCHAR 03A1
ENCODING 929
SWIDTH 660 0
DWIDTH 11 0
BBX 7 12 2 0
BITMAP
FC
82
82
82
82
82
FC
80
80
80
80
80
ENDCHAR
STARTCHAR 03A3
ENCODING 931
SWIDTH 660 0
DWIDTH 11 0
BBX 7 12 2 0
BITMAP
FE
82
82
60
10
10
60
80
80
82
FE
FE
ENDCHAR
STARTCHAR 03A4
ENCODING 932
SWIDTH 660 0
DWIDTH 11 0
BBX 7 12 2 0
BITMAP
FE
10
10
10
10
10
10
10
10
10
10
10
ENDCHAR
STARTCHAR 03A5
ENCODING 933
SWIDTH 660 0
DWIDTH 11 0
BBX 7 12 2 0
BITMAP
82
82
82
82
6C
6C
10
10
10
10
10
10
ENDCHAR
STARTCHAR 03A6
ENCODING 934
SWIDTH 660 0
DWIDTH 11 0
BBX 7 12 2 0
BITMAP
10
7C
7C
92
92
92
92
92
92
7C
10
10
ENDCHAR
STARTCHAR 03A7
ENCODING 935
SWIDTH 660 0
DWIDTH 11 0
BBX 7 12 2 0
BITMAP
82
82
82
6C
10
10
6C
82
82
82
82
82
ENDCHAR
STARTCHAR 03A8
ENCODING 936
SWIDTH 660 0
DWIDTH 11 0
BBX 7 12 2 0
BITMAP
92
92
92
92
92
92
92
7C
7C
10
10
10
ENDCHAR
STARTCHAR 03A9
ENCODING 937
SWIDTH 660 0
DWIDTH 11 0
BBX 7 12 2 0
BITMAP
7C
82
82
82
82
82
82
82
82
6C
EE
EE
ENDCHAR
STARTCHAR 03AA
ENCODING 938
SWIDTH 660 0
DWIDTH 11 0
BBX 7 15 2 0
BITMAP
6C
00
00
FE
10
10
10
10
10
10
10
10
10
FE
FE
ENDCHAR
STARTCHAR 03AB
ENCODING 939
SWIDTH 660 0
DWIDTH 11 0
BBX 7 15 2 0
BITMAP
6C
00
00
82
82
82
82
6C
6C
10
10
10
10
10
10
ENDCHAR
STARTCHAR 03AC
ENCODING 940
SWIDTH 660 0
DWIDTH 11 0
BBX 7 14 2 0
BITMAP
0C
0C
10
00
00
72
8E
8E
8C
8C
8C
8E
72
72
ENDCHAR
STARTCHAR 03AD
ENCODING 941
SWIDTH 660 0
DWIDTH 11 0
BBX 7 14 2 0
BITMAP
0C
0C
10
00
00
7C
82
82
70
80
80
82
7C
7C
ENDCHAR
STARTCHAR 03AE
ENCODING 942
SWIDTH 660 0
DWIDTH 11 0
BBX 7 17 2 -3
BITMAP
0C
0C
10
00
00
9C
E2
E2
82
82
82
82
82
82
02
02
02
ENDCHAR
STARTCHAR 03AF
ENCODING 943
SWIDTH 660 0
DWIDTH 11 0
BBX 7 14 2 0
BITMAP
0C
0C
10
00
00
F0
10
10
10
10
10
10
0E
0E
ENDCHAR
STARTCHAR 03B0
ENCODING 944
SWIDTH 660 0
DWIDTH 11 0
BBX 7 15 2 0
BITMAP
0C
10
10
82
00
00
8C
82
82
82
82
82
82
7C
7C
ENDCHAR
STARTCHAR 03B1
ENCODING 945
SWIDTH 660 0
DWIDTH 11 0
BBX 7 9 2 0
BITMAP
72
8E
8E
8C
8C
8C
8E
72
72
ENDCHAR
STARTCHAR 03B2
ENCODING 946
SWIDTH 660 0
DWIDTH 11 0
BBX 7 15 2 -3
BITMAP
7C
82
82
82
9C
9C
82
82
82
E2
9C
9C
80
80
80
ENDCHAR
STARTCHAR 03B3
ENCODING 947
SWIDTH 660 0
DWIDTH 11 0
BBX 7 12 2 -3
BITMAP
82
82
82
82
6C
6C
6C
10
10
10
10
10
ENDCHAR
STARTCHAR 03B4
ENCODING 948
SWIDTH 660 0
DWIDTH 11 0
BBX 7 12 2 0
BITMAP
FE
60
60
10
6C
6C
82
82
82
82
7C
7C
ENDCHAR
STARTCHAR 03B5
ENCODING 949
SWIDTH 660 0
DWIDTH 11 0
BBX 7 9 2 0
BITMAP
7C
82
82
70
80
80
82
7C
7C
ENDCHAR
STARTCHAR 03B6
ENCODING 950
SWIDTH 660 0
DWIDTH 11 0
BBX 7 15 2 -3
BITMAP
7E
0C
0C
10
60
60
60
80
80
80
7C
7C
02
02
0C
ENDCHAR
STARTCHAR 03B7
ENCODING 951
SWIDTH 660 0
DWIDTH 11 0
BBX 7 12 2 -3
BITMAP
9C
E2
E2
82
82
82
82
82
82
02
02
02
ENDCHAR
STARTCHAR 03B8
ENCODING 952
SWIDTH 660 0
DWIDTH 11 0
BBX 7 12 2 0
BITMAP
7C
82
82
82
FE
FE
82
82
82
82
7C
7C
ENDCHAR
STARTCHAR 03B9
ENCODING 953
SWIDTH 660 0
DWIDTH 11 0
BBX 7 9 2 0
BITMAP
F0
10
10
10
10
10
10
0E
0E
ENDCHAR
STARTCHAR 03BA
ENCODING 954
SWIDTH 660 0
DWIDTH 11 0
BBX 7 9 2 0
BITMAP
82
8C
8C
90
F0
F0
8C
82
82
ENDCHAR
STARTCHAR 03BB
ENCODING 955
SWIDTH 660 0
DWIDTH 11 0
BBX 7 12 2 0
BITMAP
E0
10
10
10
6C
6C
6C
82
82
82
82
82
ENDCHAR
STARTCHAR 03BC
ENCODING 956
SWIDTH 660 0
DWIDTH 11 0
BBX 7 12 2 -3
BITMAP
82
82
82
82
82
82
8E
F2
F2
80
80
80
ENDCHAR
STARTCHAR 03BD
ENCODING 957
SWIDTH 660 0
DWIDTH 11 0
BBX 7 9 2 0
BITMAP
82
82
82
82
6C
6C
6C
10
10
ENDCHAR
STARTCHAR 03BE
ENCODING 958
SWIDTH 660 0
DWIDTH 11 0
BBX 7 15 2 -3
BITMAP
7C
82
82
80
70
70
80
80
80
80
7C
7C
02
02
0C
ENDCHAR
STARTCHAR 03BF
ENCODING 959
SWIDTH 660 0
DWIDTH 11 0
BBX 7 9 2 0
BITMAP
7C
82
82
82
82
82
82
7C
7C
ENDCHAR
STARTCHAR 03C0
ENCODING 960
SWIDTH 660 0
DWIDTH 11 0
BBX 9 9 0 0
BITMAP
FF80
2300
2300
2300
2300
2300
2300
2080
2080
ENDCHAR
STARTCHAR 03C1
ENCODING 961
SWIDTH 660 0
DWIDTH 11 0
BBX 7 12 2 -3
BITMAP
7C
82
82
82
82
82
E2
9C
9C
80
80
80
ENDCHAR
STARTCHAR 03C2
ENCODING 962
SWIDTH 660 0
DWIDTH 11 0
BBX 7 12 2 -3
BITMAP
7C
82
82
80
80
80
80
7C
7C
02
02
0C
ENDCHAR
STARTCHAR 03C3
ENCODING 963
SWIDTH 660 0
DWIDTH 11 0
BBX 9 9 2 0
BITMAP
7F80
8200
8200
8200
8200
8200
8200
7C00
7C00
ENDCHAR
STARTCHAR 03C4
ENCODING 964
SWIDTH 660 0
DWIDTH 11 0
BBX 7 9 2 0
BITMAP
FE
10
10
10
10
10
10
0C
0C
ENDCHAR
STARTCHAR 03C5
ENCODING 965
SWIDTH 660 0
DWIDTH 11 0
BBX 7 9 2 0
BITMAP
8C
82
82
82
82
82
82
7C
7C
ENDCHAR
STARTCHAR 03C6
ENCODING 966
SWIDTH 660 0
DWIDTH 11 0
BBX 7 12 2 -3
BITMAP
1C
92
92
92
92
92
92
7C
7C
10
10
10
ENDCHAR
STARTCHAR 03C7
ENCODING 967
SWIDTH 660 0
DWIDTH 11 0
BBX 7 12 2 -3
BITMAP
82
82
82
6C
10
10
6C
82
82
82
82
82
ENDCHAR
STARTCHAR 03C8
ENCODING 968
SWIDTH 660 0
DWIDTH 11 0
BBX 7 12 2 -3
BITMAP
92
92
92
92
92
92
92
7C
7C
10
10
10
ENDCHAR
STARTCHAR 03C9
ENCODING 969
SWIDTH 660 0
DWIDTH 11 0
BBX 7 9 2 0
BITMAP
6C
82
82
92
92
92
92
6C
6C
ENDCHAR
STARTCHAR 03CA
ENCODING 970
SWIDTH 660 0
DWIDTH 11 0
BBX 7 12 2 0
BITMAP
6C
00
00
F0
10
10
10
10
10
10
0E
0E
ENDCHAR
STARTCHAR 03CB
ENCODING 971
SWIDTH 660 0
DWIDTH 11 0
BBX 7 12 2 0
BITMAP
6C
00
00
8C
82
82
82
82
82
82
7C
7C
ENDCHAR
STARTCHAR 03CC
ENCODING 972
SWIDTH 660 0
DWIDTH 11 0
BBX 7 14 2 0
BITMAP
0C
0C
10
00
00
7C
82
82
82
82
82
82
7C
7C
ENDCHAR
STARTCHAR 03CD
ENCODING 973
SWIDTH 660 0
DWIDTH 11 0
BBX 7 14 2 0
BITMAP
0C
0C
10
00
00
8C
82
82
82
82
82
82
7C
7C
ENDCHAR
STARTCHAR 03CE
ENCODING 974
SWIDTH 660 0
DWIDTH 11 0
BBX 7 14 2 0
BITMAP
0C
0C
10
00
00
6C
82
82
92
92
92
92
6C
6C
ENDCHAR
STARTCHAR 0400
ENCODING 1024
SWIDTH 660 0
DWIDTH 11 0
BBX 7 17 2 0
BITMAP
60
60
10
00
00
FE
80
80
80
FC
FC
80
80
80
80
FE
FE
ENDCHAR
STARTCHAR 0401
ENCODING 1025
SWIDTH 660 0
DWIDTH 11 0
BBX 7 15 2 0
BITMAP
6C
00
00
FE
80
80
80
FC
FC
80
80
80
80
FE
FE
ENDCHAR
STARTCHAR 0402
ENCODING 1026
SWIDTH 660 0
DWIDTH 11 0
BBX 9 12 0 0
BITMAP
FC00
2000
2000
2000
2700
2700
3880
2080
2080
2080
2700
2700
ENDCHAR
STARTCHAR 0403
ENCODING 1027
SWIDTH 660 0
DWIDTH 11 0
BBX 7 17 2 0
BITMAP
0C
0C
10
00
00
FE
62
62
60
60
60
60
60
60
60
F0
F0
ENDCHAR
STARTCHAR 0404
ENCODING 1028
SWIDTH 660 0
DWIDTH 11 0
BBX 7 12 2 0
BITMAP
7C
82
82
80
F0
F0
80
80
80
82
7C
7C
ENDCHAR
STARTCHAR 0405
ENCODING 1029
SWIDTH 660 0
DWIDTH 11 0
BBX 7 12 2 0
BITMAP
7C
82
82
80
7C
7C
02
02
02
82
7C
7C
ENDCHAR
STARTCHAR 0406
ENCODING 1030
SWIDTH 660 0
DWIDTH 11 0
BBX 7 12 2 0
BITMAP
FE
10
10
10
10
10
10
10
10
10
FE
FE
ENDCHAR
STARTCHAR 0407
ENCODING 1031
SWIDTH 660 0
DWIDTH 11 0
BBX 7 15 2 0
BITMAP
6C
00
00
FE
10
10
10
10
10
10
10
10
10
FE
FE
ENDCHAR
STARTCHAR 0408
ENCODING 1032
SWIDTH 660 0
DWIDTH 11 0
BBX 7 12 2 0
BITMAP
1E
02
02
02
02
02
02
02
02
82
7C
7C
ENDCHAR
STARTCHAR 0409
ENCODING 1033
SWIDTH 660 0
DWIDTH 11 0
BBX 11 12 0 0
BITMAP
3C00
2400
2400
2400
2780
2780
2460
C460
C460
C460
C780
C780
ENDCHAR
STARTCHAR 040A
ENCODING 1034
SWIDTH 660 0
DWIDTH 11 0
BBX 11 12 0 0
BITMAP
C400
C400
C400
C400
FF80
FF80
C460
C460
C460
C460
C780
C780
ENDCHAR
STARTCHAR 040B
ENCODING 1035
SWIDTH 660 0
DWIDTH 11 0
BBX 9 12 0 0
BITMAP
FC00
2000
2000
2000
2700
2700
3880
2080
2080
2080
2080
2080
ENDCHAR
STARTCHAR 040C
ENCODING 1036
SWIDTH 660 0
DWIDTH 11 0
BBX 7 17 2 0
BITMAP
0C
0C
10
00
00
82
8C
8C
8C
F0
F0
8C
8C
8C
82
82
82
ENDCHAR
STARTCHAR 040D
ENCODING 1037
SWIDTH 660 0
DWIDTH 11 0
BBX 7 17 2 0
BITMAP
60
60
10
00
00
82
82
82
8E
92
92
E2
82
82
82
82
82
ENDCHAR
STARTCHAR 040E
ENCODING 1038
SWIDTH 660 0
DWIDTH 11 0
BBX 7 17 2 0
BITMAP
82
82
7C
00
00
82
82
82
82
6C
6C
6C
10
10
10
E0
E0
ENDCHAR
STARTCHAR 040F
ENCODING 1039
SWIDTH 660 0
DWIDTH 11 0
BBX 7 15 2 -3
BITMAP
82
82
82
82
82
82
82
82
82
82
FE
FE
10
10
10
ENDCHAR
STARTCHAR 0410
ENCODING 1040
SWIDTH 660 0
DWIDTH 11 0
BBX 7 12 2 0
BITMAP
10
6C
6C
82
82
82
FE
82
82
82
82
82
ENDCHAR
STARTCHAR 0411
ENCODING 1041
SWIDTH 660 0
DWIDTH 11 0
BBX 7 12 2 0
BITMAP
FC
80
80
80
FC
FC
82
82
82
82
FC
FC
ENDCHAR
STARTCHAR 0412
ENCODING 1042
SWIDTH 660 0
DWIDTH 11 0
BBX 7 12 2 0
BITMAP
FC
82
82
82
FC
FC
82
82
82
82
FC
FC
ENDCHAR
STARTCHAR 0413
ENCODING 1043
SWIDTH 660 0
DWIDTH 11 0
BBX 7 12 2 0
BITMAP
FE
62
62
60
60
60
60
60
60
60
F0
F0
ENDCHAR
STARTCHAR 0414
ENCODING 1044
SWIDTH 660 0
DWIDTH 11 0
BBX 11 15 0 -3
BITMAP
1F80
1880
1880
1880
1880
1880
1880
2080
2080
2080
FFE0
FFE0
C060
C060
C060
ENDCHAR
STARTCHAR 0415
ENCODING 1045
SWIDTH 660 0
DWIDTH 11 0
BBX 7 12 2 0
BITMAP
FE
80
80
80
FC
FC
80
80
80
80
FE
FE
ENDCHAR
STARTCHAR 0416
ENCODING 1046
SWIDTH 660 0
DWIDTH 11 0
BBX 11 12 0 0
BITMAP
C460
2480
2480
2480
1F00
1F00
2480
2480
2480
2480
C460
C460
ENDCHAR
STARTCHAR 0417
ENCODING 1047
SWIDTH 660 0
DWIDTH 11 0
BBX 7 12 2 0
BITMAP
7C
82
82
02
1C
1C
02
02
02
82
7C
7C
ENDCHAR
STARTCHAR 0418
ENCODING 1048
SWIDTH 660 0
DWIDTH 11 0
BBX 7 12 2 0
BITMAP
82
82
82
8E
92
92
E2
82
82
82
82
82
ENDCHAR
STARTCHAR 0419
ENCODING 1049
SWIDTH 660 0
DWIDTH 11 0
BBX 7 17 2 0
BITMAP
82
82
7C
00
00
82
82
82
8E
92
92
E2
82
82
82
82
82
ENDCHAR
STARTCHAR 041A
ENCODING 1050
SWIDTH 660 0
DWIDTH 11 0
BBX 7 12 2 0
BITMAP
82
8C
8C
8C
F0
F0
8C
8C
8C
82
82
82
ENDCHAR
STARTCHAR 041B
ENCODING 1051
SWIDTH 660 0
DWIDTH 11 0
BBX 7 12 2 0
BITMAP
7E
62
62
62
62
62
62
82
82
82
82
82
ENDCHAR
STARTCHAR 041C
ENCODING 1052
SWIDTH 660 0
DWIDTH 11 0
BBX 7 12 2 0
BITMAP
82
82
82
EE
92
92
92
82
82
82
82
82
ENDCHAR
STARTCHAR 041D
ENCODING 1053
SWIDTH 660 0
DWIDTH 11 0
BBX 7 12 2 0
BITMAP
82
82
82
82
FE
FE
82
82
82
82
82
82
ENDCHAR
STARTCHAR 041E
ENCODING 1054
SWIDTH 660 0
DWIDTH 11 0
BBX 7 12 2 0
BITMAP
7C
82
82
82
82
82
82
82
82
82
7C
7C
ENDCHAR
STARTCHAR 041F
ENCODING 1055
SWIDTH 660 0
DWIDTH 11 0
BBX 7 12 2 0
BITMAP
FE
82
82
82
82
82
82
82
82
82
82
82
ENDCHAR
STARTCHAR 0420
ENCODING 1056
SWIDTH 660 0
DWIDTH 11 0
BBX 7 12 2 0
BITMAP
FC
82
82
82
82
82
FC
80
80
80
80
80
ENDCHAR
STARTCHAR 0421
ENCODING 1057
SWIDTH 660 0
DWIDTH 11 0
BBX 7 12 2 0
BITMAP
7C
82
82
80
80
80
80
80
80
82
7C
7C
ENDCHAR
STARTCHAR 0422
ENCODING 1058
SWIDTH 660 0
DWIDTH 11 0
BBX 7 12 2 0
BITMAP
FE
10
10
10
10
10
10
10
10
10
10
10
ENDCHAR
STARTCHAR 0423
ENCODING 1059
SWIDTH 660 0
DWIDTH 11 0
BBX 7 12 2 0
BITMAP
82
82
82
82
6C
6C
6C
10
10
10
E0
E0
ENDCHAR
STARTCHAR 0424
ENCODING 1060
SWIDTH 660 0
DWIDTH 11 0
BBX 7 12 2 0
BITMAP
10
7C
7C
92
92
92
92
92
92
7C
10
10
ENDCHAR
STARTCHAR 0425
ENCODING 1061
SWIDTH 660 0
DWIDTH 11 0
BBX 7 12 2 0
BITMAP
82
82
82
6C
10
10
6C
82
82
82
82
82
ENDCHAR
STARTCHAR 0426
ENCODING 1062
SWIDTH 660 0
DWIDTH 11 0
BBX 9 15 2 -3
BITMAP
8200
8200
8200
8200
8200
8200
8200
8200
8200
8200
FF80
FF80
0180
0180
0180
ENDCHAR
STARTCHAR 0427
ENCODING 1063
SWIDTH 660 0
DWIDTH 11 0
BBX 7 12 2 0
BITMAP
82
82
82
82
8E
8E
72
02
02
02
02
02
ENDCHAR
STARTCHAR 0428
ENCODING 1064
SWIDTH 660 0
DWIDTH 11 0
BBX 7 12 2 0
BITMAP
92
92
92
92
92
92
92
92
92
92
FE
FE
ENDCHAR
STARTCHAR 0429
ENCODING 1065
SWIDTH 660 0
DWIDTH 11 0
BBX 9 15 2 -3
BITMAP
9200
9200
9200
9200
9200
9200
9200
9200
9200
9200
FF80
FF80
0180
0180
0180
ENDCHAR
STARTCHAR 042A
ENCODING 1066
SWIDTH 660 0
DWIDTH 11 0
BBX 9 12 0 0
BITMAP
E000
2000
2000
2000
3F00
3F00
2080
2080
2080
2080
3F00
3F00
ENDCHAR
STARTCHAR 042B
ENCODING 1067
SWIDTH 660 0
DWIDTH 11 0
BBX 7 12 2 0
BITMAP
82
82
82
82
E2
E2
92
92
92
92
E2
E2
ENDCHAR
STARTCHAR 042C
ENCODING 1068
SWIDTH 660 0
DWIDTH 11 0
BBX 7 12 2 0
BITMAP
80
80
80
80
FC
FC
82
82
82
82
FC
FC
ENDCHAR
STARTCHAR 042D
ENCODING 1069
SWIDTH 660 0
DWIDTH 11 0
BBX 7 12 2 0
BITMAP
7C
82
82
02
1E
1E
02
02
02
82
7C
7C
ENDCHAR
STARTCHAR 042E
ENCODING 1070
SWIDTH 660 0
DWIDTH 11 0
BBX 9 12 2 0
BITMAP
8E00
9180
9180
9180
F180
F180
9180
9180
9180
9180
8E00
8E00
ENDCHAR
STARTCHAR 042F
ENCODING 1071
SWIDTH 660 0
DWIDTH 11 0
BBX 7 12 2 0
BITMAP
7E
82
82
82
82
82
7E
62
62
82
82
82
ENDCHAR
STARTCHAR 0430
ENCODING 1072
SWIDTH 660 0
DWIDTH 11 0
BBX 7 9 2 0
BITMAP
7C
02
02
7E
82
82
8E
72
72
ENDCHAR
STARTCHAR 0431
ENCODING 1073
SWIDTH 660 0
DWIDTH 11 0
BBX 7 12 2 0
BITMAP
02
7C
7C
80
FC
FC
82
82
82
82
7C
7C
ENDCHAR
STARTCHAR 0432
ENCODING 1074
SWIDTH 660 0
DWIDTH 11 0
BBX 7 9 2 0
BITMAP
FC
82
82
FC
82
82
82
FC
FC
ENDCHAR
STARTCHAR 0433
ENCODING 1075
SWIDTH 660 0
DWIDTH 11 0
BBX 7 9 2 0
BITMAP
FE
62
62
60
60
60
60
F0
F0
ENDCHAR
STARTCHAR 0434
ENCODING 1076
SWIDTH 660 0
DWIDTH 11 0
BBX 11 12 0 -3
BITMAP
1F80
1880
1880
1880
1880
1880
2080
FFE0
FFE0
C060
C060
C060
ENDCHAR
STARTCHAR 0435
ENCODING 1077
SWIDTH 660 0
DWIDTH 11 0
BBX 7 9 2 0
BITMAP
7C
82
82
FE
80
80
82
7C
7C
ENDCHAR
STARTCHAR 0436
ENCODING 1078
SWIDTH 660 0
DWIDTH 11 0
BBX 11 9 0 0
BITMAP
C460
2480
2480
1F00
2480
2480
2480
C460
C460
ENDCHAR
STARTCHAR 0437
ENCODING 1079
SWIDTH 660 0
DWIDTH 11 0
BBX 7 9 2 0
BITMAP
7C
82
82
1C
02
02
82
7C
7C
ENDCHAR
STARTCHAR 0438
ENCODING 1080
SWIDTH 660 0
DWIDTH 11 0
BBX 7 9 2 0
BITMAP
82
8E
8E
92
E2
E2
82
82
82
ENDCHAR
STARTCHAR 0439
ENCODING 1081
SWIDTH 660 0
DWIDTH 11 0
BBX 7 14 2 0
BITMAP
82
82
7C
00
00
82
8E
8E
92
E2
E2
82
82
82
ENDCHAR
STARTCHAR 043A
ENCODING 1082
SWIDTH 660 0
DWIDTH 11 0
BBX 7 9 2 0
BITMAP
82
8C
8C
90
F0
F0
8C
82
82
ENDCHAR
STARTCHAR 043B
ENCODING 1083
SWIDTH 660 0
DWIDTH 11 0
BBX 7 9 2 0
BITMAP
7E
62
62
62
62
62
82
82
82
ENDCHAR
STARTCHAR 043C
ENCODING 1084
SWIDTH 660 0
DWIDTH 11 0
BBX 7 9 2 0
BITMAP
82
EE
EE
92
92
92
82
82
82
ENDCHAR
STARTCHAR 043D
ENCODING 1085
SWIDTH 660 0
DWIDTH 11 0
BBX 7 9 2 0
BITMAP
82
82
82
FE
82
82
82
82
82
ENDCHAR
STARTCHAR 043E
ENCODING 1086
SWIDTH 660 0
DWIDTH 11 0
BBX 7 9 2 0
BITMAP
7C
82
82
82
82
82
82
7C
7C
ENDCHAR
STARTCHAR 043F
ENCODING 1087
SWIDTH 660 0
DWIDTH 11 0
BBX 7 9 2 0
BITMAP
FE
82
82
82
82
82
82
82
82
ENDCHAR
STARTCHAR 0440
ENCODING 1088
SWIDTH 660 0
DWIDTH 11 0
BBX 7 12 2 -3
BITMAP
9C
E2
E2
82
82
82
E2
9C
9C
80
80
80
ENDCHAR
STARTCHAR 0441
ENCODING 1089
SWIDTH 660 0
DWIDTH 11 0
BBX 7 9 2 0
BITMAP
7C
82
82
80
80
80
82
7C
7C
ENDCHAR
STARTCHAR 0442
ENCODING 1090
SWIDTH 660 0
DWIDTH 11 0
BBX 7 9 2 0
BITMAP
FE
10
10
10
10
10
10
10
10
ENDCHAR
STARTCHAR 0443
ENCODING 1091
SWIDTH 660 0
DWIDTH 11 0
BBX 7 12 2 -3
BITMAP
82
82
82
82
6C
6C
6C
10
10
10
10
E0
ENDCHAR
STARTCHAR 0444
ENCODING 1092
SWIDTH 660 0
DWIDTH 11 0
BBX 7 15 2 -3
BITMAP
10
10
10
7C
92
92
92
92
92
92
7C
7C
10
10
10
ENDCHAR
STARTCHAR 0445
ENCODING 1093
SWIDTH 660 0
DWIDTH 11 0
BBX 7 9 2 0
BITMAP
82
6C
6C
10
6C
6C
82
82
82
ENDCHAR
STARTCHAR 0446
ENCODING 1094
SWIDTH 660 0
DWIDTH 11 0
BBX 9 12 2 -3
BITMAP
8200
8200
8200
8200
8200
8200
8200
FF80
FF80
0180
0180
0180
ENDCHAR
STARTCHAR 0447
ENCODING 1095
SWIDTH 660 0
DWIDTH 11 0
BBX 7 9 2 0
BITMAP
82
82
82
8E
72
72
02
02
02
ENDCHAR
STARTCHAR 0448
ENCODING 1096
SWIDTH 660 0
DWIDTH 11 0
BBX 7 9 2 0
BITMAP
92
92
92
92
92
92
92
FE
FE
ENDCHAR
STARTCHAR 0449
ENCODING 1097
SWIDTH 660 0
DWIDTH 11 0
BBX 9 12 2 -3
BITMAP
9200
9200
9200
9200
9200
9200
9200
FF80
FF80
0180
0180
0180
ENDCHAR
STARTCHAR 044A
ENCODING 1098
SWIDTH 660 0
DWIDTH 11 0
BBX 9 9 0 0
BITMAP
E000
2000
2000
3F00
2080
2080
2080
3F00
3F00
ENDCHAR
STARTCHAR 044B
ENCODING 1099
SWIDTH 660 0
DWIDTH 11 0
BBX 7 9 2 0
BITMAP
82
82
82
E2
92
92
92
E2
E2
ENDCHAR
STARTCHAR 044C
ENCODING 1100
SWIDTH 660 0
DWIDTH 11 0
BBX 7 9 2 0
BITMAP
80
80
80
FC
82
82
82
FC
FC
ENDCHAR
STARTCHAR 044D
ENCODING 1101
SWIDTH 660 0
DWIDTH 11 0
BBX 7 9 2 0
BITMAP
7C
82
82
1E
02
02
82
7C
7C
ENDCHAR
STARTCHAR 044E
ENCODING 1102
SWIDTH 660 0
DWIDTH 11 0
BBX 9 9 2 0
BITMAP
8E00
9180
9180
F180
9180
9180
9180
8E00
8E00
ENDCHAR
STARTCHAR 044F
ENCODING 1103
SWIDTH 660 0
DWIDTH 11 0
BBX 7 9 2 0
BITMAP
7E
82
82
82
7E
7E
62
82
82
ENDCHAR
STARTCHAR 0450
ENCODING 1104
SWIDTH 660 0
DWIDTH 11 0
BBX 7 14 2 0
BITMAP
60
60
10
00
00
7C
82
82
FE
80
80
82
7C
7C
ENDCHAR
STARTCHAR 0451
ENCODING 1105
SWIDTH 660 0
DWIDTH 11 0
BBX 7 12 2 0
BITMAP
6C
00
00
7C
82
82
FE
80
80
82
7C
7C
ENDCHAR
STARTCHAR 0452
ENCODING 1106
SWIDTH 660 0
DWIDTH 11 0
BBX 9 15 0 -3
BITMAP
2000
FC00
FC00
2000
2700
2700
3880
2080
2080
2080
2080
2080
0080
0080
0300
ENDCHAR
STARTCHAR 0453
ENCODING 1107
SWIDTH 660 0
DWIDTH 11 0
BBX 7 14 2 0
BITMAP
0C
0C
10
00
00
FE
62
62
60
60
60
60
F0
F0
ENDCHAR
STARTCHAR 0454
ENCODING 1108
SWIDTH 660 0
DWIDTH 11 0
BBX 7 9 2 0
BITMAP
7C
82
82
F0
80
80
82
7C
7C
ENDCHAR
STARTCHAR 0455
ENCODING 1109
SWIDTH 660 0
DWIDTH 11 0
BBX 7 9 2 0
BITMAP
7C
82
82
7C
02
02
82
7C
7C
ENDCHAR
STARTCHAR 0456
ENCODING 1110
SWIDTH 660 0
DWIDTH 11 0
BBX 7 12 2 0
BITMAP
10
00
00
F0
10
10
10
10
10
10
FE
FE
ENDCHAR
STARTCHAR 0457
ENCODING 1111
SWIDTH 660 0
DWIDTH 11 0
BBX 7 12 2 0
BITMAP
6C
00
00
F0
10
10
10
10
10
10
FE
FE
ENDCHAR
STARTCHAR 0458
ENCODING 1112
SWIDTH 660 0
DWIDTH 11 0
BBX 6 15 2 -3
BITMAP
0C
00
00
7C
0C
0C
0C
0C
0C
0C
0C
0C
8C
8C
70
ENDCHAR
STARTCHAR 0459
ENCODING 1113
SWIDTH 660 0
DWIDTH 11 0
BBX 11 9 0 0
BITMAP
3C00
2400
2400
2780
2460
2460
C460
C780
C780
ENDCHAR
STARTCHAR 045A
ENCODING 1114
SWIDTH 660 0
DWIDTH 11 0
BBX 11 9 0 0
BITMAP
C400
C400
C400
FF80
C460
C460
C460
C780
C780
ENDCHAR
STARTCHAR 045B
ENCODING 1115
SWIDTH 660 0
DWIDTH 11 0
BBX 9 12 0 0
BITMAP
2000
FC00
FC00
2000
2700
2700
3880
2080
2080
2080
2080
2080
ENDCHAR
STARTCHAR 045C
ENCODING 1116
SWIDTH 660 0
DWIDTH 11 0
BBX 7 14 2 0
BITMAP
0C
0C
10
00
00
82
8C
8C
90
F0
F0
8C
82
82
ENDCHAR
STARTCHAR 045D
ENCODING 1117
SWIDTH 660 0
DWIDTH 11 0
BBX 7 14 2 0
BITMAP
60
60
10
00
00
82
8E
8E
92
E2
E2
82
82
82
ENDCHAR
STARTCHAR 045E
ENCODING 1118
SWIDTH 660 0
DWIDTH 11 0
BBX 7 17 2 -3
BITMAP
82
82
7C
00
00
82
82
82
82
6C
6C
6C
10
10
10
10
E0
ENDCHAR
STARTCHAR 045F
ENCODING 1119
SWIDTH 660 0
DWIDTH 11 0
BBX 7 12 2 -3
BITMAP
82
82
82
82
82
82
82
FE
FE
10
10
10
ENDCHAR
STARTCHAR 0462
ENCODING 1122
SWIDTH 660 0
DWIDTH 11 0
BBX 9 12 0 0
BITMAP
2000
FC00
FC00
2000
3F00
3F00
2080
2080
2080
2080
3F00
3F00
ENDCHAR
STARTCHAR 0463
ENCODING 1123
SWIDTH 660 0
DWIDTH 11 0
BBX 9 12 0 0
BITMAP
2000
2000
2000
FC00
2000
2000
3F00
2080
2080
2080
3F00
3F00
ENDCHAR
STARTCHAR 0474
ENCODING 1140
SWIDTH 660 0
DWIDTH 11 0
BBX 9 12 2 0
BITMAP
8180
8200
8200
8200
8200
8200
8200
6C00
6C00
6C00
1000
1000
ENDCHAR
STARTCHAR 0475
ENCODING 1141
SWIDTH 660 0
DWIDTH 11 0
BBX 9 9 2 0
BITMAP
8180
8200
8200
8200
6C00
6C00
6C00
1000
1000
ENDCHAR
STARTCHAR 048A
ENCODING 1162
SWIDTH 660 0
DWIDTH 11 0
BBX 9 20 2 -3
BITMAP
8200
8200
7C00
0000
0000
8200
8200
8200
8E00
9200
9200
E200
8200
8200
8200
8380
8380
0180
0180
0200
ENDCHAR
STARTCHAR 048B
ENCODING 1163
SWIDTH 660 0
DWIDTH 11 0
BBX 9 17 2 -3
BITMAP
8200
8200
7C00
0000
0000
8200
8E00
8E00
9200
E200
E200
8200
8380
8380
0180
0180
0200
ENDCHAR
STARTCHAR 048C
ENCODING 1164
SWIDTH 660 0
DWIDTH 11 0
BBX 9 12 0 0
BITMAP
2000
FC00
FC00
2000
3F00
3F00
2080
2080
2080
2080
3F00
3F00
ENDCHAR
STARTCHAR 048D
ENCODING 1165
SWIDTH 660 0
DWIDTH 11 0
BBX 9 12 0 0
BITMAP
2000
2000
2000
FC00
2000
2000
3F00
2080
2080
2080
3F00
3F00
ENDCHAR
STARTCHAR 048E
ENCODING 1166
SWIDTH 660 0
DWIDTH 11 0
BBX 7 12 2 0
BITMAP
FC
82
82
82
92
92
FC
82
82
80
80
80
ENDCHAR
STARTCHAR 048F
ENCODING 1167
SWIDTH 660 0
DWIDTH 11 0
BBX 9 12 2 -3
BITMAP
9C00
E200
E200
8200
9200
9200
EE00
9E00
9E00
8180
8180
8000
ENDCHAR
STARTCHAR 0490
ENCODING 1168
SWIDTH 660 0
DWIDTH 11 0
BBX 7 14 2 0
BITMAP
02
02
FE
62
62
60
60
60
60
60
60
60
F0
F0
ENDCHAR
STARTCHAR 0491
ENCODING 1169
SWIDTH 660 0
DWIDTH 11 0
BBX 7 11 2 0
BITMAP
02
02
FE
62
62
60
60
60
60
F0
F0
ENDCHAR
STARTCHAR 0492
ENCODING 1170
SWIDTH 660 0
DWIDTH 11 0
BBX 9 12 0 0
BITMAP
3F80
2000
2000
2000
FF00
FF00
2000
2000
2000
2000
2000
2000
ENDCHAR
STARTCHAR 0493
ENCODING 1171
SWIDTH 660 0
DWIDTH 11 0
BBX 9 9 0 0
BITMAP
3F80
2000
2000
FF00
2000
2000
2000
2000
2000
ENDCHAR
STARTCHAR 0494
ENCODING 1172
SWIDTH 660 0
DWIDTH 11 0
BBX 7 15 2 -3
BITMAP
FC
80
80
80
9C
9C
E2
82
82
82
82
82
02
02
0C
ENDCHAR
STARTCHAR 0495
ENCODING 1173
SWIDTH 660 0
DWIDTH 11 0
BBX 7 12 2 -3
BITMAP
FC
80
80
9C
E2
E2
82
82
82
02
02
0C
ENDCHAR
STARTCHAR 0496
ENCODING 1174
SWIDTH 660 0
DWIDTH 11 0
BBX 11 15 0 -3
BITMAP
C460
2480
2480
2480
1F00
1F00
2480
2480
2480
2480
C460
C460
0060
0060
0060
ENDCHAR
STARTCHAR 0497
ENCODING 1175
SWIDTH 660 0
DWIDTH 11 0
BBX 11 12 0 -3
BITMAP
C460
2480
2480
1F00
2480
2480
2480
C460
C460
0060
0060
0060
ENDCHAR
STARTCHAR 0498
ENCODING 1176
SWIDTH 660 0
DWIDTH 11 0
BBX 7 17 2 -5
BITMAP
7C
82
82
02
1C
1C
02
02
02
82
7C
7C
10
10
0C
10
10
ENDCHAR
STARTCHAR 0499
ENCODING 1177
SWIDTH 660 0
DWIDTH 11 0
BBX 7 14 2 -5
BITMAP
7C
82
82
1C
02
02
82
7C
7C
10
10
0C
10
10
ENDCHAR
STARTCHAR 049A
ENCODING 1178
SWIDTH 660 0
DWIDTH 11 0
BBX 9 15 2 -3
BITMAP
8200
8C00
8C00
8C00
F000
F000
8C00
8C00
8C00
8200
8380
8380
0180
0180
0180
ENDCHAR
STARTCHAR 049B
ENCODING 1179
SWIDTH 660 0
DWIDTH 11 0
BBX 9 12 2 -3
BITMAP
8200
8C00
8C00
9000
F000
F000
8C00
8380
8380
0180
0180
0180
ENDCHAR
STARTCHAR 049E
ENCODING 1182
SWIDTH 660 0
DWIDTH 11 0
BBX 9 12 0 0
BITMAP
2080
FB00
FB00
2300
3C00
3C00
2300
2300
2300
2080
2080
2080
ENDCHAR
STARTCHAR 049F
ENCODING 1183
SWIDTH 660 0
DWIDTH 11 0
BBX 9 12 0 0
BITMAP
2000
F800
F800
2080
2300
2300
2400
3C00
3C00
2300
2080
2080
ENDCHAR
STARTCHAR 04A0
ENCODING 1184
SWIDTH 660 0
DWIDTH 11 0
BBX 9 12 0 0
BITMAP
E080
2300
2300
2300
3C00
3C00
2300
2300
2300
2080
2080
2080
ENDCHAR
STARTCHAR 04A1
ENCODING 1185
SWIDTH 660 0
DWIDTH 11 0
BBX 9 9 0 0
BITMAP
E080
2300
2300
2400
3C00
3C00
2300
2080
2080
ENDCHAR
STARTCHAR 04A2
ENCODING 1186
SWIDTH 660 0
DWIDTH 11 0
BBX 9 15 2 -3
BITMAP
8200
8200
8200
8200
FE00
FE00
8200
8200
8200
8200
8380
8380
0180
0180
0180
ENDCHAR
STARTCHAR 04A3
ENCODING 1187
SWIDTH 660 0
DWIDTH 11 0
BBX 9 12 2 -3
BITMAP
8200
8200
8200
FE00
8200
8200
8200
8380
8380
0180
0180
0180
ENDCHAR
STARTCHAR 04A4
ENCODING 1188
SWIDTH 660 0
DWIDTH 11 0
BBX 9 12 2 0
BITMAP
8380
8200
8200
8200
FE00
FE00
8200
8200
8200
8200
8200
8200
ENDCHAR
STARTCHAR 04A5
ENCODING 1189
SWIDTH 660 0
DWIDTH 11 0
BBX 9 9 2 0
BITMAP
8380
8200
8200
FE00
8200
8200
8200
8200
8200
ENDCHAR
STARTCHAR 04A6
ENCODING 1190
SWIDTH 660 0
DWIDTH 11 0
BBX 7 15 2 -3
BITMAP
F0
90
90
90
9C
9C
92
92
92
92
92
92
02
02
0C
ENDCHAR
STARTCHAR 04A7
ENCODING 1191
SWIDTH 660 0
DWIDTH 11 0
BBX 7 12 2 -3
BITMAP
F0
90
90
9C
92
92
92
92
92
02
02
0C
ENDCHAR
STARTCHAR 04A8
ENCODING 1192
SWIDTH 660 0
DWIDTH 11 0
BBX 7 14 2 -2
BITMAP
10
60
60
8C
92
92
92
92
92
92
8C
8C
72
72
ENDCHAR
STARTCHAR 04A9
ENCODING 1193
SWIDTH 660 0
DWIDTH 11 0
BBX 7 11 2 -2
BITMAP
60
8C
8C
92
92
92
92
8C
8C
72
72
ENDCHAR
STARTCHAR 04AA
ENCODING 1194
SWIDTH 660 0
DWIDTH 11 0
BBX 7 17 2 -5
BITMAP
7C
82
82
80
80
80
80
80
80
82
7C
7C
10
10
0C
10
10
ENDCHAR
STARTCHAR 04AB
ENCODING 1195
SWIDTH 660 0
DWIDTH 11 0
BBX 7 14 2 -5
BITMAP
7C
82
82
80
80
80
82
7C
7C
10
10
0C
10
10
ENDCHAR
STARTCHAR 04AC
ENCODING 1196
SWIDTH 660 0
DWIDTH 11 0
BBX 7 15 2 -3
BITMAP
FE
10
10
10
10
10
10
10
10
10
1C
1C
0C
0C
0C
ENDCHAR
STARTCHAR 04AD
ENCODING 1197
SWIDTH 660 0
DWIDTH 11 0
BBX 7 12 2 -3
BITMAP
FE
10
10
10
10
10
10
1C
1C
0C
0C
0C
ENDCHAR
STARTCHAR 04AE
ENCODING 1198
SWIDTH 660 0
DWIDTH 11 0
BBX 7 12 2 0
BITMAP
82
82
82
82
6C
6C
10
10
10
10
10
10
ENDCHAR
STARTCHAR 04AF
ENCODING 1199
SWIDTH 660 0
DWIDTH 11 0
BBX 7 12 2 -3
BITMAP
82
82
82
82
6C
6C
6C
10
10
10
10
10
ENDCHAR
STARTCHAR 04B0
ENCODING 1200
SWIDTH 660 0
DWIDTH 11 0
BBX 7 12 2 0
BITMAP
82
82
82
82
6C
6C
10
7C
7C
10
10
10
ENDCHAR
STARTCHAR 04B1
ENCODING 1201
SWIDTH 660 0
DWIDTH 11 0
BBX 7 12 2 -3
BITMAP
82
82
82
82
6C
6C
6C
10
10
7C
7C
10
ENDCHAR
STARTCHAR 04B2
ENCODING 1202
SWIDTH 660 0
DWIDTH 11 0
BBX 9 15 2 -3
BITMAP
8200
8200
8200
6C00
1000
1000
6C00
8200
8200
8200
8380
8380
0180
0180
0180
ENDCHAR
STARTCHAR 04B3
ENCODING 1203
SWIDTH 660 0
DWIDTH 11 0
BBX 9 12 2 -3
BITMAP
8200
6C00
6C00
1000
6C00
6C00
8200
8380
8380
0180
0180
0180
ENDCHAR
STARTCHAR 04B4
ENCODING 1204
SWIDTH 660 0
DWIDTH 11 0
BBX 11 15 0 -3
BITMAP
F880
2080
2080
2080
2080
2080
2080
2080
2080
2080
3FE0
3FE0
0060
0060
0060
ENDCHAR
STARTCHAR 04B5
ENCODING 1205
SWIDTH 660 0
DWIDTH 11 0
BBX 11 12 0 -3
BITMAP
F880
2080
2080
2080
2080
2080
2080
3FE0
3FE0
0060
0060
0060
ENDCHAR
STARTCHAR 04B6
ENCODING 1206
SWIDTH 660 0
DWIDTH 11 0
BBX 9 15 2 -3
BITMAP
8200
8200
8200
8200
8E00
8E00
7200
0200
0200
0200
0380
0380
0180
0180
0180
ENDCHAR
STARTCHAR 04B7
ENCODING 1207
SWIDTH 660 0
DWIDTH 11 0
BBX 9 12 2 -3
BITMAP
8200
8200
8200
8E00
7200
7200
0200
0380
0380
0180
0180
0180
ENDCHAR
STARTCHAR 04BA
ENCODING 1210
SWIDTH 660 0
DWIDTH 11 0
BBX 7 12 2 0
BITMAP
80
80
80
80
9C
9C
E2
82
82
82
82
82
ENDCHAR
STARTCHAR 04BB
ENCODING 1211
SWIDTH 660 0
DWIDTH 11 0
BBX 7 12 2 0
BITMAP
80
80
80
9C
E2
E2
82
82
82
82
82
82
ENDCHAR
STARTCHAR 04BC
ENCODING 1212
SWIDTH 660 0
DWIDTH 11 0
BBX 9 12 0 0
BITMAP
1F00
2080
2080
2080
FF80
FF80
2000
2000
2000
2080
1F00
1F00
ENDCHAR
STARTCHAR 04BD
ENCODING 1213
SWIDTH 660 0
DWIDTH 11 0
BBX 9 9 0 0
BITMAP
1F00
2080
2080
FF80
2000
2000
2080
1F00
1F00
ENDCHAR
STARTCHAR 04BE
ENCODING 1214
SWIDTH 660 0
DWIDTH 11 0
BBX 9 15 0 -3
BITMAP
1F00
2080
2080
2080
FF80
FF80
2000
2000
2000
2080
1F00
1F00
0400
0400
0400
ENDCHAR
STARTCHAR 04BF
ENCODING 1215
SWIDTH 660 0
DWIDTH 11 0
BBX 9 12 0 -3
BITMAP
1F00
2080
2080
FF80
2000
2000
2080
1F00
1F00
0400
0400
0400
ENDCHAR
STARTCHAR 04C0
ENCODING 1216
SWIDTH 660 0
DWIDTH 11 0
BBX 7 12 2 0
BITMAP
FE
10
10
10
10
10
10
10
10
10
FE
FE
ENDCHAR
STARTCHAR 04C1
ENCODING 1217
SWIDTH 660 0
DWIDTH 11 0
BBX 11 17 0 0
BITMAP
2080
2080
1F00
0000
0000
C460
2480
2480
2480
1F00
1F00
2480
2480
2480
2480
C460
C460
ENDCHAR
STARTCHAR 04C2
ENCODING 1218
SWIDTH 660 0
DWIDTH 11 0
BBX 11 14 0 0
BITMAP
2080
2080
1F00
0000
0000
C460
2480
2480
1F00
2480
2480
2480
C460
C460
ENDCHAR
STARTCHAR 04C3
ENCODING 1219
SWIDTH 660 0
DWIDTH 11 0
BBX 7 15 2 -3
BITMAP
82
8C
8C
8C
F0
F0
8C
82
82
82
82
82
02
02
0C
ENDCHAR
STARTCHAR 04C4
ENCODING 1220
SWIDTH 660 0
DWIDTH 11 0
BBX 7 12 2 -3
BITMAP
82
8C
8C
90
F0
F0
8C
82
82
02
02
0C
ENDCHAR
STARTCHAR 04C5
ENCODING 1221
SWIDTH 660 0
DWIDTH 11 0
BBX 9 15 2 -3
BITMAP
7E00
6200
6200
6200
6200
6200
6200
8200
8200
8200
8380
8380
0180
0180
0200
ENDCHAR
STARTCHAR 04C6
ENCODING 1222
SWIDTH 660 0
DWIDTH 11 0
BBX 9 12 2 -3
BITMAP
7E00
6200
6200
6200
6200
6200
8200
8380
8380
0180
0180
0200
ENDCHAR
STARTCHAR 04C7
ENCODING 1223
SWIDTH 660 0
DWIDTH 11 0
BBX 7 15 2 -3
BITMAP
82
82
82
82
FE
FE
82
82
82
82
82
82
02
02
0C
ENDCHAR
STARTCHAR 04C8
ENCODING 1224
SWIDTH 660 0
DWIDTH 11 0
BBX 7 12 2 -3
BITMAP
82
82
82
FE
82
82
82
82
82
02
02
0C
ENDCHAR
STARTCHAR 04C9
ENCODING 1225
SWIDTH 660 0
DWIDTH 11 0
BBX 9 15 2 -3
BITMAP
8200
8200
8200
8200
FE00
FE00
8200
8200
8200
8200
8380
8380
0180
0180
0200
ENDCHAR
STARTCHAR 04CA
ENCODING 1226
SWIDTH 660 0
DWIDTH 11 0
BBX 9 12 2 -3
BITMAP
8200
8200
8200
FE00
8200
8200
8200
8380
8380
0180
0180
0200
ENDCHAR
STARTCHAR 04CB
ENCODING 1227
SWIDTH 660 0
DWIDTH 11 0
BBX 7 15 2 -3
BITMAP
82
82
82
82
8E
8E
72
02
02
02
0E
0E
0C
0C
0C
ENDCHAR
STARTCHAR 04CC
ENCODING 1228
SWIDTH 660 0
DWIDTH 11 0
BBX 7 12 2 -3
BITMAP
82
82
82
8E
72
72
02
0E
0E
0C
0C
0C
ENDCHAR
STARTCHAR 04CD
ENCODING 1229
SWIDTH 660 0
DWIDTH 11 0
BBX 9 15 2 -3
BITMAP
8200
8200
8200
EE00
9200
9200
9200
8200
8200
8200
8380
8380
0180
0180
0200
ENDCHAR
STARTCHAR 04CE
ENCODING 1230
SWIDTH 660 0
DWIDTH 11 0
BBX 9 12 2 -3
BITMAP
8200
EE00
EE00
9200
9200
9200
8200
8380
8380
0180
0180
0200
ENDCHAR
STARTCHAR 04CF
ENCODING 1231
SWIDTH 660 0
DWIDTH 11 0
BBX 7 12 2 0
BITMAP
FE
10
10
10
10
10
10
10
10
10
FE
FE
ENDCHAR
STARTCHAR 04D0
ENCODING 1232
SWIDTH 660 0
DWIDTH 11 0
BBX 7 17 2 0
BITMAP
82
82
7C
00
00
10
6C
6C
82
82
82
FE
82
82
82
82
82
ENDCHAR
STARTCHAR 04D1
ENCODING 1233
SWIDTH 660 0
DWIDTH 11 0
BBX 7 14 2 0
BITMAP
82
82
7C
00
00
7C
02
02
7E
82
82
8E
72
72
ENDCHAR
STARTCHAR 04D2
ENCODING 1234
SWIDTH 660 0
DWIDTH 11 0
BBX 7 15 2 0
BITMAP
6C
00
00
10
6C
6C
82
82
82
FE
82
82
82
82
82
ENDCHAR
STARTCHAR 04D3
ENCODING 1235
SWIDTH 660 0
DWIDTH 11 0
BBX 7 12 2 0
BITMAP
6C
00
00
7C
02
02
7E
82
82
8E
72
72
ENDCHAR
STARTCHAR 04D4
ENCODING 1236
SWIDTH 660 0
DWIDTH 11 0
BBX 11 12 0 0
BITMAP
1FE0
2400
2400
C400
C780
C780
FC00
C400
C400
C400
C7E0
C7E0
ENDCHAR
STARTCHAR 04D5
ENCODING 1237
SWIDTH 660 0
DWIDTH 11 0
BBX 11 9 0 0
BITMAP
3B80
0460
0460
3FE0
C400
C400
C460
3B80
3B80
ENDCHAR
STARTCHAR 04D6
ENCODING 1238
SWIDTH 660 0
DWIDTH 11 0
BBX 7 17 2 0
BITMAP
82
82
7C
00
00
FE
80
80
80
FC
FC
80
80
80
80
FE
FE
ENDCHAR
STARTCHAR 04D7
ENCODING 1239
SWIDTH 660 0
DWIDTH 11 0
BBX 7 14 2 0
BITMAP
82
82
7C
00
00
7C
82
82
FE
80
80
82
7C
7C
ENDCHAR
STARTCHAR 04DC
ENCODING 1244
SWIDTH 660 0
DWIDTH 11 0
BBX 11 15 0 0
BITMAP
1B00
0000
0000
C460
2480
2480
2480
1F00
1F00
2480
2480
2480
2480
C460
C460
ENDCHAR
STARTCHAR 04DD
ENCODING 1245
SWIDTH 660 0
DWIDTH 11 0
BBX 11 12 0 0
BITMAP
1B00
0000
0000
C460
2480
2480
1F00
2480
2480
2480
C460
C460
ENDCHAR
STARTCHAR 04DE
ENCODING 1246
SWIDTH 660 0
DWIDTH 11 0
BBX 7 15 2 0
BITMAP
6C
00
00
7C
82
82
02
1C
1C
02
02
02
82
7C
7C
ENDCHAR
STARTCHAR 04DF
ENCODING 1247
SWIDTH 660 0
DWIDTH 11 0
BBX 7 12 2 0
BITMAP
6C
00
00
7C
82
82
1C
02
02
82
7C
7C
ENDCHAR
STARTCHAR 04E0
ENCODING 1248
SWIDTH 660 0
DWIDTH 11 0
BBX 7 12 2 0
BITMAP
FE
0C
0C
10
0C
0C
02
02
02
82
7C
7C
ENDCHAR
STARTCHAR 04E1
ENCODING 1249
SWIDTH 660 0
DWIDTH 11 0
BBX 7 12 2 -3
BITMAP
FE
0C
0C
10
0C
0C
02
02
02
82
82
7C
ENDCHAR
STARTCHAR 04E2
ENCODING 1250
SWIDTH 660 0
DWIDTH 11 0
BBX 7 15 2 0
BITMAP
7C
00
00
82
82
82
8E
92
92
E2
82
82
82
82
82
ENDCHAR
STARTCHAR 04E3
ENCODING 1251
SWIDTH 660 0
DWIDTH 11 0
BBX 7 12 2 0
BITMAP
7C
00
00
82
8E
8E
92
E2
E2
82
82
82
ENDCHAR
STARTCHAR 04E4
ENCODING 1252
SWIDTH 660 0
DWIDTH 11 0
BBX 7 15 2 0
BITMAP
6C
00
00
82
82
82
8E
92
92
E2
82
82
82
82
82
ENDCHAR
STARTCHAR 04E5
ENCODING 1253
SWIDTH 660 0
DWIDTH 11 0
BBX 7 12 2 0
BITMAP
6C
00
00
82
8E
8E
92
E2
E2
82
82
82
ENDCHAR
STARTCHAR 04E6
ENCODING 1254
SWIDTH 660 0
DWIDTH 11 0
BBX 7 15 2 0
BITMAP
6C
00
00
7C
82
82
82
82
82
82
82
82
82
7C
7C
ENDCHAR
STARTCHAR 04E7
ENCODING 1255
SWIDTH 660 0
DWIDTH 11 0
BBX 7 12 2 0
BITMAP
6C
00
00
7C
82
82
82
82
82
82
7C
7C
ENDCHAR
STARTCHAR 04E8
ENCODING 1256
SWIDTH 660 0
DWIDTH 11 0
BBX 7 12 2 0
BITMAP
7C
82
82
82
FE
FE
82
82
82
82
7C
7C
ENDCHAR
STARTCHAR 04E9
ENCODING 1257
SWIDTH 660 0
DWIDTH 11 0
BBX 7 9 2 0
BITMAP
7C
82
82
FE
82
82
82
7C
7C
ENDCHAR
STARTCHAR 04EA
ENCODING 1258
SWIDTH 660 0
DWIDTH 11 0
BBX 7 15 2 0
BITMAP
6C
00
00
7C
82
82
82
FE
FE
82
82
82
82
7C
7C
ENDCHAR
STARTCHAR 04EB
ENCODING 1259
SWIDTH 660 0
DWIDTH 11 0
BBX 7 12 2 0
BITMAP
6C
00
00
7C
82
82
FE
82
82
82
7C
7C
ENDCHAR
STARTCHAR 04EC
ENCODING 1260
SWIDTH 660 0
DWIDTH 11 0
BBX 7 15 2 0
BITMAP
6C
00
00
7C
82
82
02
1E
1E
02
02
02
82
7C
7C
ENDCHAR
STARTCHAR 04ED
ENCODING 1261
SWIDTH 660 0
DWIDTH 11 0
BBX 7 12 2 0
BITMAP
6C
00
00
7C
82
82
1E
02
02
82
7C
7C
ENDCHAR
STARTCHAR 04EE
ENCODING 1262
SWIDTH 660 0
DWIDTH 11 0
BBX 7 15 2 0
BITMAP
7C
00
00
82
82
82
82
6C
6C
6C
10
10
10
E0
E0
ENDCHAR
STARTCHAR 04EF
ENCODING 1263
SWIDTH 660 0
DWIDTH 11 0
BBX 7 15 2 -3
BITMAP
7C
00
00
82
82
82
82
6C
6C
6C
10
10
10
10
E0
ENDCHAR
STARTCHAR 04F0
ENCODING 1264
SWIDTH 660 0
DWIDTH 11 0
BBX 7 15 2 0
BITMAP
6C
00
00
82
82
82
82
6C
6C
6C
10
10
10
E0
E0
ENDCHAR
STARTCHAR 04F1
ENCODING 1265
SWIDTH 660 0
DWIDTH 11 0
BBX 7 15 2 -3
BITMAP
6C
00
00
82
82
82
82
6C
6C
6C
10
10
10
10
E0
ENDCHAR
STARTCHAR 04F2
ENCODING 1266
SWIDTH 660 0
DWIDTH 11 0
BBX 7 17 2 0
BITMAP
6C
6C
6C
00
00
82
82
82
82
6C
6C
6C
10
10
10
E0
E0
ENDCHAR
STARTCHAR 04F3
ENCODING 1267
SWIDTH 660 0
DWIDTH 11 0
BBX 7 17 2 -3
BITMAP
6C
6C
6C
00
00
82
82
82
82
6C
6C
6C
10
10
10
10
E0
ENDCHAR
STARTCHAR 04F4
ENCODING 1268
SWIDTH 660 0
DWIDTH 11 0
BBX 7 15 2 0
BITMAP
6C
00
00
82
82
82
82
8E
8E
72
02
02
02
02
02
ENDCHAR
STARTCHAR 04F5
ENCODING 1269
SWIDTH 660 0
DWIDTH 11 0
BBX 7 12 2 0
BITMAP
6C
00
00
82
82
82
8E
72
72
02
02
02
ENDCHAR
STARTCHAR 04F6
ENCODING 1270
SWIDTH 660 0
DWIDTH 11 0
BBX 7 15 2 -3
BITMAP
FE
62
62
60
60
60
60
60
60
60
F0
F0
10
10
10
ENDCHAR
STARTCHAR 04F7
ENCODING 1271
SWIDTH 660 0
DWIDTH 11 0
BBX 7 12 2 -3
BITMAP
FE
62
62
60
60
60
60
F0
F0
10
10
10
ENDCHAR
STARTCHAR 04F8
ENCODING 1272
SWIDTH 660 0
DWIDTH 11 0
BBX 7 15 2 0
BITMAP
6C
00
00
82
82
82
82
E2
E2
92
92
92
92
E2
E2
ENDCHAR
STARTCHAR 04F9
ENCODING 1273
SWIDTH 660 0
DWIDTH 11 0
BBX 7 12 2 0
BITMAP
6C
00
00
82
82
82
E2
92
92
92
E2
E2
ENDCHAR
STARTCHAR 04FC
ENCODING 1276
SWIDTH 660 0
DWIDTH 11 0
BBX 7 15 2 -3
BITMAP
82
82
82
6C
10
10
6C
82
82
82
82
82
02
02
0C
ENDCHAR
STARTCHAR 04FD
ENCODING 1277
SWIDTH 660 0
DWIDTH 11 0
BBX 7 12 2 -3
BITMAP
82
6C
6C
10
6C
6C
82
82
82
02
02
0C
ENDCHAR
STARTCHAR 0510
ENCODING 1296
SWIDTH 660 0
DWIDTH 11 0
BBX 7 12 2 0
BITMAP
7C
82
82
80
70
70
80
80
80
82
7C
7C
ENDCHAR
STARTCHAR 0511
ENCODING 1297
SWIDTH 660 0
DWIDTH 11 0
BBX 7 9 2 0
BITMAP
7C
82
82
70
80
80
82
7C
7C
ENDCHAR
STARTCHAR 0512
ENCODING 1298
SWIDTH 660 0
DWIDTH 11 0
BBX 7 15 2 -3
BITMAP
7E
62
62
62
62
62
62
82
82
82
82
82
02
02
0C
ENDCHAR
STARTCHAR 0513
ENCODING 1299
SWIDTH 660 0
DWIDTH 11 0
BBX 7 12 2 -3
BITMAP
7E
62
62
62
62
62
82
82
82
02
02
0C
ENDCHAR
STARTCHAR 051C
ENCODING 1308
SWIDTH 660 0
DWIDTH 11 0
BBX 7 12 2 0
BITMAP
82
82
82
82
92
92
92
6C
6C
6C
6C
6C
ENDCHAR
STARTCHAR 051D
ENCODING 1309
SWIDTH 660 0
DWIDTH 11 0
BBX 7 9 2 0
BITMAP
92
92
92
92
92
92
92
6E
6E
ENDCHAR
STARTCHAR 0524
ENCODING 1316
SWIDTH 660 0
DWIDTH 11 0
BBX 9 15 2 -3
BITMAP
FE00
8200
8200
8200
8200
8200
8200
8200
8200
8200
8380
8380
0180
0180
0180
ENDCHAR
STARTCHAR 0525
ENCODING 1317
SWIDTH 660 0
DWIDTH 11 0
BBX 9 12 2 -3
BITMAP
FE00
8200
8200
8200
8200
8200
8200
8380
8380
0180
0180
0180
ENDCHAR
STARTCHAR 0526
ENCODING 1318
SWIDTH 660 0
DWIDTH 11 0
BBX 9 15 2 -3
BITMAP
8000
8000
8000
8000
9C00
9C00
E200
8200
8200
8200
8380
8380
0180
0180
0180
ENDCHAR
STARTCHAR 0527
ENCODING 1319
SWIDTH 660 0
DWIDTH 11 0
BBX 9 15 2 -3
BITMAP
8000
8000
8000
9C00
E200
E200
8200
8200
8200
8200
8380
8380
0180
0180
0180
ENDCHAR
STARTCHAR 0E3F
ENCODING 3647
SWIDTH 660 0
DWIDTH 11 0
BBX 7 16 2 -2
BITMAP
10
10
FC
92
92
92
FC
FC
92
92
92
92
FC
FC
10
10
ENDCHAR
STARTCHAR 1E02
ENCODING 7682
SWIDTH 660 0
DWIDTH 11 0
BBX 7 15 2 0
BITMAP
10
00
00
FC
82
82
82
FC
FC
82
82
82
82
FC
FC
ENDCHAR
STARTCHAR 1E03
ENCODING 7683
SWIDTH 660 0
DWIDTH 11 0
BBX 7 12 2 0
BITMAP
90
80
80
9C
E2
E2
82
82
82
E2
9C
9C
ENDCHAR
STARTCHAR 1E0A
ENCODING 7690
SWIDTH 660 0
DWIDTH 11 0
BBX 7 15 2 0
BITMAP
10
00
00
FC
82
82
82
82
82
82
82
82
82
FC
FC
ENDCHAR
STARTCHAR 1E0B
ENCODING 7691
SWIDTH 660 0
DWIDTH 11 0
BBX 7 12 2 0
BITMAP
12
02
02
72
8E
8E
82
82
82
8E
72
72
ENDCHAR
STARTCHAR 1E0C
ENCODING 7692
SWIDTH 660 0
DWIDTH 11 0
BBX 7 15 2 -3
BITMAP
FC
82
82
82
82
82
82
82
82
82
FC
FC
00
00
10
ENDCHAR
STARTCHAR 1E0D
ENCODING 7693
SWIDTH 660 0
DWIDTH 11 0
BBX 7 15 2 -3
BITMAP
02
02
02
72
8E
8E
82
82
82
8E
72
72
00
00
10
ENDCHAR
STARTCHAR 1E10
ENCODING 7696
SWIDTH 660 0
DWIDTH 11 0
BBX 7 17 2 -5
BITMAP
FC
82
82
82
82
82
82
82
82
82
FC
FC
10
10
0C
10
10
ENDCHAR
STARTCHAR 1E11
ENCODING 7697
SWIDTH 660 0
DWIDTH 11 0
BBX 7 17 2 -5
BITMAP
02
02
02
72
8E
8E
82
82
82
8E
72
72
10
10
0C
10
10
ENDCHAR
STARTCHAR 1E1E
ENCODING 7710
SWIDTH 660 0
DWIDTH 11 0
BBX 7 15 2 0
BITMAP
10
00
00
FE
80
80
80
FC
FC
80
80
80
80
80
80
ENDCHAR
STARTCHAR 1E1F
ENCODING 7711
SWIDTH 660 0
DWIDTH 11 0
BBX 7 15 2 0
BITMAP
10
00
00
1E
60
60
FE
60
60
60
60
60
60
FC
FC
ENDCHAR
STARTCHAR 1E20
ENCODING 7712
SWIDTH 660 0
DWIDTH 11 0
BBX 7 15 2 0
BITMAP
7C
00
00
7C
82
82
80
80
80
8E
82
82
82
7C
7C
ENDCHAR
STARTCHAR 1E21
ENCODING 7713
SWIDTH 660 0
DWIDTH 11 0
BBX 7 15 2 -3
BITMAP
7C
00
00
72
8E
8E
82
82
82
8E
72
72
02
02
7C
ENDCHAR
STARTCHAR 1E24
ENCODING 7716
SWIDTH 660 0
DWIDTH 11 0
BBX 7 15 2 -3
BITMAP
82
82
82
82
FE
FE
82
82
82
82
82
82
00
00
10
ENDCHAR
STARTCHAR 1E25
ENCODING 7717
SWIDTH 660 0
DWIDTH 11 0
BBX 7 15 2 -3
BITMAP
80
80
80
9C
E2
E2
82
82
82
82
82
82
00
00
10
ENDCHAR
STARTCHAR 1E2A
ENCODING 7722
SWIDTH 660 0
DWIDTH 11 0
BBX 7 17 2 -5
BITMAP
82
82
82
82
FE
FE
82
82
82
82
82
82
00
00
82
7C
7C
ENDCHAR
STARTCHAR 1E2B
ENCODING 7723
SWIDTH 660 0
DWIDTH 11 0
BBX 7 17 2 -5
BITMAP
80
80
80
9C
E2
E2
82
82
82
82
82
82
00
00
82
7C
7C
ENDCHAR
STARTCHAR 1E32
ENCODING 7730
SWIDTH 660 0
DWIDTH 11 0
BBX 7 15 2 -3
BITMAP
82
8C
8C
90
F0
F0
8C
8C
8C
82
82
82
00
00
10
ENDCHAR
STARTCHAR 1E33
ENCODING 7731
SWIDTH 660 0
DWIDTH 11 0
BBX 7 15 2 -3
BITMAP
80
80
80
82
8C
8C
90
F0
F0
8C
82
82
00
00
10
ENDCHAR
STARTCHAR 1E36
ENCODING 7734
SWIDTH 660 0
DWIDTH 11 0
BBX 7 15 2 -3
BITMAP
80
80
80
80
80
80
80
80
80
80
FE
FE
00
00
10
ENDCHAR
STARTCHAR 1E37
ENCODING 7735
SWIDTH 660 0
DWIDTH 11 0
BBX 7 15 2 -3
BITMAP
F0
10
10
10
10
10
10
10
10
10
FE
FE
00
00
10
ENDCHAR
STARTCHAR 1E3E
ENCODING 7742
SWIDTH 660 0
DWIDTH 11 0
BBX 7 17 2 0
BITMAP
0C
0C
10
00
00
82
82
82
EE
92
92
92
82
82
82
82
82
ENDCHAR
STARTCHAR 1E3F
ENCODING 7743
SWIDTH 660 0
DWIDTH 11 0
BBX 7 14 2 0
BITMAP
0C
0C
10
00
00
EC
92
92
92
92
92
92
92
92
ENDCHAR
STARTCHAR 1E40
ENCODING 7744
SWIDTH 660 0
DWIDTH 11 0
BBX 7 15 2 0
BITMAP
10
00
00
82
82
82
EE
92
92
92
82
82
82
82
82
ENDCHAR
STARTCHAR 1E41
ENCODING 7745
SWIDTH 660 0
DWIDTH 11 0
BBX 7 12 2 0
BITMAP
10
00
00
EC
92
92
92
92
92
92
92
92
ENDCHAR
STARTCHAR 1E44
ENCODING 7748
SWIDTH 660 0
DWIDTH 11 0
BBX 7 15 2 0
BITMAP
10
00
00
82
82
82
E2
92
92
8E
82
82
82
82
82
ENDCHAR
STARTCHAR 1E45
ENCODING 7749
SWIDTH 660 0
DWIDTH 11 0
BBX 7 12 2 0
BITMAP
10
00
00
9C
E2
E2
82
82
82
82
82
82
ENDCHAR
STARTCHAR 1E56
ENCODING 7766
SWIDTH 660 0
DWIDTH 11 0
BBX 7 15 2 0
BITMAP
10
00
00
FC
82
82
82
82
82
FC
80
80
80
80
80
ENDCHAR
STARTCHAR 1E57
ENCODING 7767
SWIDTH 660 0
DWIDTH 11 0
BBX 7 15 2 -3
BITMAP
10
00
00
9C
E2
E2
82
82
82
E2
9C
9C
80
80
80
ENDCHAR
STARTCHAR 1E5A
ENCODING 7770
SWIDTH 660 0
DWIDTH 11 0
BBX 7 15 2 -3
BITMAP
FC
82
82
82
82
82
FC
8C
8C
82
82
82
00
00
10
ENDCHAR
STARTCHAR 1E5B
ENCODING 7771
SWIDTH 660 0
DWIDTH 11 0
BBX 7 12 2 -3
BITMAP
EE
70
70
60
60
60
60
FC
FC
00
00
60
ENDCHAR
STARTCHAR 1E60
ENCODING 7776
SWIDTH 660 0
DWIDTH 11 0
BBX 7 15 2 0
BITMAP
10
00
00
7C
82
82
80
7C
7C
02
02
02
82
7C
7C
ENDCHAR
STARTCHAR 1E61
ENCODING 7777
SWIDTH 660 0
DWIDTH 11 0
BBX 7 12 2 0
BITMAP
10
00
00
7C
82
82
7C
02
02
82
7C
7C
ENDCHAR
STARTCHAR 1E62
ENCODING 7778
SWIDTH 660 0
DWIDTH 11 0
BBX 7 15 2 -3
BITMAP
7C
82
82
80
7C
7C
02
02
02
82
7C
7C
00
00
10
ENDCHAR
STARTCHAR 1E63
ENCODING 7779
SWIDTH 660 0
DWIDTH 11 0
BBX 7 12 2 -3
BITMAP
7C
82
82
7C
02
02
82
7C
7C
00
00
10
ENDCHAR
STARTCHAR 1E6A
ENCODING 7786
SWIDTH 660 0
DWIDTH 11 0
BBX 7 15 2 0
BITMAP
10
00
00
FE
10
10
10
10
10
10
10
10
10
10
10
ENDCHAR
STARTCHAR 1E6B
ENCODING 7787
SWIDTH 660 0
DWIDTH 11 0
BBX 7 15 2 0
BITMAP
60
00
00
60
60
60
FE
60
60
60
60
60
62
1C
1C
ENDCHAR
STARTCHAR 1E6C
ENCODING 7788
SWIDTH 660 0
DWIDTH 11 0
BBX 7 15 2 -3
BITMAP
FE
10
10
10
10
10
10
10
10
10
10
10
00
00
10
ENDCHAR
STARTCHAR 1E6D
ENCODING 7789
SWIDTH 660 0
DWIDTH 11 0
BBX 7 15 2 -3
BITMAP
60
60
60
FE
60
60
60
60
60
62
1C
1C
00
00
10
ENDCHAR
STARTCHAR 1E7C
ENCODING 7804
SWIDTH 660 0
DWIDTH 11 0
BBX 7 17 2 0
BITMAP
12
12
6C
00
00
82
82
82
82
82
82
82
6C
6C
6C
10
10
ENDCHAR
STARTCHAR 1E7D
ENCODING 7805
SWIDTH 660 0
DWIDTH 11 0
BBX 7 14 2 0
BITMAP
12
12
6C
00
00
82
82
82
82
6C
6C
6C
10
10
ENDCHAR
STARTCHAR 1E80
ENCODING 7808
SWIDTH 660 0
DWIDTH 11 0
BBX 7 17 2 0
BITMAP
60
60
10
00
00
82
82
82
82
92
92
92
6C
6C
6C
6C
6C
ENDCHAR
STARTCHAR 1E81
ENCODING 7809
SWIDTH 660 0
DWIDTH 11 0
BBX 7 14 2 0
BITMAP
60
60
10
00
00
92
92
92
92
92
92
92
6E
6E
ENDCHAR
STARTCHAR 1E82
ENCODING 7810
SWIDTH 660 0
DWIDTH 11 0
BBX 7 17 2 0
BITMAP
0C
0C
10
00
00
82
82
82
82
92
92
92
6C
6C
6C
6C
6C
ENDCHAR
STARTCHAR 1E83
ENCODING 7811
SWIDTH 660 0
DWIDTH 11 0
BBX 7 14 2 0
BITMAP
0C
0C
10
00
00
92
92
92
92
92
92
92
6E
6E
ENDCHAR
STARTCHAR 1E84
ENCODING 7812
SWIDTH 660 0
DWIDTH 11 0
BBX 7 15 2 0
BITMAP
6C
00
00
82
82
82
82
92
92
92
6C
6C
6C
6C
6C
ENDCHAR
STARTCHAR 1E85
ENCODING 7813
SWIDTH 660 0
DWIDTH 11 0
BBX 7 12 2 0
BITMAP
6C
00
00
92
92
92
92
92
92
92
6E
6E
ENDCHAR
STARTCHAR 1E8E
ENCODING 7822
SWIDTH 660 0
DWIDTH 11 0
BBX 7 15 2 0
BITMAP
10
00
00
82
82
82
82
6C
6C
10
10
10
10
10
10
ENDCHAR
STARTCHAR 1E8F
ENCODING 7823
SWIDTH 660 0
DWIDTH 11 0
BBX 7 15 2 -3
BITMAP
10
00
00
82
82
82
82
6C
6C
6C
10
10
10
10
E0
ENDCHAR
STARTCHAR 1E92
ENCODING 7826
SWIDTH 660 0
DWIDTH 11 0
BBX 7 15 2 -3
BITMAP
FE
02
02
0C
10
10
60
80
80
80
FE
FE
00
00
10
ENDCHAR
STARTCHAR 1E93
ENCODING 7827
SWIDTH 660 0
DWIDTH 11 0
BBX 7 12 2 -3
BITMAP
FE
0C
0C
10
60
60
80
FE
FE
00
00
10
ENDCHAR
STARTCHAR 1E9B
ENCODING 7835
SWIDTH 660 0
DWIDTH 11 0
BBX 7 12 2 0
BITMAP
1E
10
10
10
10
10
10
10
10
10
FE
FE
ENDCHAR
STARTCHAR 1E9E
ENCODING 7838
SWIDTH 660 0
DWIDTH 11 0
BBX 9 12 0 0
BITMAP
1F80
2300
2300
2300
2300
2300
2080
2080
2080
2080
E700
E700
ENDCHAR
STARTCHAR 1EA0
ENCODING 7840
SWIDTH 660 0
DWIDTH 11 0
BBX 7 15 2 -3
BITMAP
10
6C
6C
82
82
82
FE
82
82
82
82
82
00
00
10
ENDCHAR
STARTCHAR 1EA1
ENCODING 7841
SWIDTH 660 0
DWIDTH 11 0
BBX 7 12 2 -3
BITMAP
7C
02
02
7E
82
82
8E
72
72
00
00
10
ENDCHAR
STARTCHAR 1EB8
ENCODING 7864
SWIDTH 660 0
DWIDTH 11 0
BBX 7 15 2 -3
BITMAP
FE
80
80
80
FC
FC
80
80
80
80
FE
FE
00
00
10
ENDCHAR
STARTCHAR 1EB9
ENCODING 7865
SWIDTH 660 0
DWIDTH 11 0
BBX 7 12 2 -3
BITMAP
7C
82
82
FE
80
80
82
7C
7C
00
00
10
ENDCHAR
STARTCHAR 1EBC
ENCODING 7868
SWIDTH 660 0
DWIDTH 11 0
BBX 7 17 2 0
BITMAP
12
12
6C
00
00
FE
80
80
80
FC
FC
80
80
80
80
FE
FE
ENDCHAR
STARTCHAR 1EBD
ENCODING 7869
SWIDTH 660 0
DWIDTH 11 0
BBX 7 14 2 0
BITMAP
12
12
6C
00
00
7C
82
82
FE
80
80
82
7C
7C
ENDCHAR
STARTCHAR 1ECA
ENCODING 7882
SWIDTH 660 0
DWIDTH 11 0
BBX 7 15 2 -3
BITMAP
FE
10
10
10
10
10
10
10
10
10
FE
FE
00
00
10
ENDCHAR
STARTCHAR 1ECB
ENCODING 7883
SWIDTH 660 0
DWIDTH 11 0
BBX 7 15 2 -3
BITMAP
10
00
00
F0
10
10
10
10
10
10
FE
FE
00
00
10
ENDCHAR
STARTCHAR 1ECC
ENCODING 7884
SWIDTH 660 0
DWIDTH 11 0
BBX 7 15 2 -3
BITMAP
7C
82
82
82
82
82
82
82
82
82
7C
7C
00
00
10
ENDCHAR
STARTCHAR 1ECD
ENCODING 7885
SWIDTH 660 0
DWIDTH 11 0
BBX 7 12 2 -3
BITMAP
7C
82
82
82
82
82
82
7C
7C
00
00
10
ENDCHAR
STARTCHAR 1EE4
ENCODING 7908
SWIDTH 660 0
DWIDTH 11 0
BBX 7 15 2 -3
BITMAP
82
82
82
82
82
82
82
82
82
82
7C
7C
00
00
10
ENDCHAR
STARTCHAR 1EE5
ENCODING 7909
SWIDTH 660 0
DWIDTH 11 0
BBX 7 12 2 -3
BITMAP
82
82
82
82
82
82
8E
72
72
00
00
10
ENDCHAR
STARTCHAR 1EF2
ENCODING 7922
SWIDTH 660 0
DWIDTH 11 0
BBX 7 17 2 0
BITMAP
60
60
10
00
00
82
82
82
82
6C
6C
10
10
10
10
10
10
ENDCHAR
STARTCHAR 1EF3
ENCODING 7923
SWIDTH 660 0
DWIDTH 11 0
BBX 7 17 2 -3
BITMAP
60
60
10
00
00
82
82
82
82
6C
6C
6C
10
10
10
10
E0
ENDCHAR
STARTCHAR 1EF8
ENCODING 7928
SWIDTH 660 0
DWIDTH 11 0
BBX 7 17 2 0
BITMAP
12
12
6C
00
00
82
82
82
82
6C
6C
10
10
10
10
10
10
ENDCHAR
STARTCHAR 1EF9
ENCODING 7929
SWIDTH 660 0
DWIDTH 11 0
BBX 7 17 2 -3
BITMAP
12
12
6C
00
00
82
82
82
82
6C
6C
6C
10
10
10
10
E0
ENDCHAR
STARTCHAR 2010
ENCODING 8208
SWIDTH 660 0
DWIDTH 11 0
BBX 5 1 3 5
BITMAP
F8
ENDCHAR
STARTCHAR 2013
ENCODING 8211
SWIDTH 660 0
DWIDTH 11 0
BBX 7 1 2 5
BITMAP
FE
ENDCHAR
STARTCHAR 2014
ENCODING 8212
SWIDTH 660 0
DWIDTH 11 0
BBX 11 1 0 5
BITMAP
FFE0
ENDCHAR
STARTCHAR 2015
ENCODING 8213
SWIDTH 660 0
DWIDTH 11 0
BBX 11 1 0 5
BITMAP
FFE0
ENDCHAR
STARTCHAR 2018
ENCODING 8216
SWIDTH 660 0
DWIDTH 11 0
BBX 3 4 5 8
BITMAP
60
80
80
80
ENDCHAR
STARTCHAR 2019
ENCODING 8217
SWIDTH 660 0
DWIDTH 11 0
BBX 3 4 3 8
BITMAP
20
20
20
C0
ENDCHAR
STARTCHAR 201A
ENCODING 8218
SWIDTH 660 0
DWIDTH 11 0
BBX 3 5 3 -2
BITMAP
20
20
20
C0
C0
ENDCHAR
STARTCHAR 201C
ENCODING 8220
SWIDTH 660 0
DWIDTH 11 0
BBX 6 4 3 8
BITMAP
24
D8
D8
D8
ENDCHAR
STARTCHAR 201D
ENCODING 8221
SWIDTH 660 0
DWIDTH 11 0
BBX 6 4 2 8
BITMAP
6C
6C
6C
90
ENDCHAR
STARTCHAR 201E
ENCODING 8222
SWIDTH 660 0
DWIDTH 11 0
BBX 6 5 2 -2
BITMAP
6C
6C
6C
90
90
ENDCHAR
STARTCHAR 2020
ENCODING 8224
SWIDTH 660 0
DWIDTH 11 0
BBX 7 11 2 3
BITMAP
10
10
10
FE
FE
10
10
10
10
10
10
ENDCHAR
STARTCHAR 2021
ENCODING 8225
SWIDTH 660 0
DWIDTH 11 0
BBX 7 12 2 2
BITMAP
10
10
10
FE
FE
10
10
10
FE
10
10
10
ENDCHAR
STARTCHAR 2022
ENCODING 8226
SWIDTH 660 0
DWIDTH 11 0
BBX 3 3 3 5
BITMAP
E0
E0
E0
ENDCHAR
STARTCHAR 2026
ENCODING 8230
SWIDTH 660 0
DWIDTH 11 0
BBX 7 3 2 0
BITMAP
92
92
92
ENDCHAR
STARTCHAR 2027
ENCODING 8231
SWIDTH 660 0
DWIDTH 11 0
BBX 1 3 5 6
BITMAP
80
80
80
ENDCHAR
STARTCHAR 2030
ENCODING 8240
SWIDTH 660 0
DWIDTH 11 0
BBX 11 14 0 0
BITMAP
1800
1800
2400
1800
1800
00E0
1F00
1F00
E000
0480
0480
1B60
0480
0480
ENDCHAR
STARTCHAR 2032
ENCODING 8242
SWIDTH 660 0
DWIDTH 11 0
BBX 1 4 5 8
BITMAP
80
80
80
80
ENDCHAR
STARTCHAR 2033
ENCODING 8243
SWIDTH 660 0
DWIDTH 11 0
BBX 5 4 3 8
BITMAP
D8
D8
D8
D8
ENDCHAR
STARTCHAR 2039
ENCODING 8249
SWIDTH 660 0
DWIDTH 11 0
BBX 5 7 3 2
BITMAP
18
20
20
C0
20
20
18
ENDCHAR
STARTCHAR 203A
ENCODING 8250
SWIDTH 660 0
DWIDTH 11 0
BBX 5 7 3 2
BITMAP
C0
20
20
18
20
20
C0
ENDCHAR
STARTCHAR 2044
ENCODING 8260
SWIDTH 660 0
DWIDTH 11 0
BBX 11 5 0 3
BITMAP
00E0
00E0
1F00
E000
E000
ENDCHAR
STARTCHAR 204A
ENCODING 8266
SWIDTH 660 0
DWIDTH 11 0
BBX 7 12 2 -3
BITMAP
FE
02
02
02
0C
0C
0C
0C
0C
10
10
10
ENDCHAR
STARTCHAR 2052
ENCODING 8274
SWIDTH 660 0
DWIDTH 11 0
BBX 9 12 2 0
BITMAP
E180
E180
E180
0200
0C00
0C00
1000
6000
6000
8380
8380
8380
ENDCHAR
STARTCHAR 2070
ENCODING 8304
SWIDTH 660 0
DWIDTH 11 0
BBX 7 9 2 5
BITMAP
7C
7C
8E
92
92
E2
82
82
7C
ENDCHAR
STARTCHAR 2074
ENCODING 8308
SWIDTH 660 0
DWIDTH 11 0
BBX 7 9 2 5
BITMAP
0E
0E
12
62
62
82
FE
FE
02
ENDCHAR
STARTCHAR 2075
ENCODING 8309
SWIDTH 660 0
DWIDTH 11 0
BBX 7 9 2 5
BITMAP
FE
FE
80
FC
FC
02
82
82
7C
ENDCHAR
STARTCHAR 2076
ENCODING 8310
SWIDTH 660 0
DWIDTH 11 0
BBX 7 9 2 5
BITMAP
7C
7C
80
FC
FC
82
82
82
7C
ENDCHAR
STARTCHAR 2077
ENCODING 8311
SWIDTH 660 0
DWIDTH 11 0
BBX 7 9 2 5
BITMAP
FE
FE
02
0C
0C
10
60
60
60
ENDCHAR
STARTCHAR 2078
ENCODING 8312
SWIDTH 660 0
DWIDTH 11 0
BBX 7 9 2 5
BITMAP
7C
7C
82
7C
7C
82
82
82
7C
ENDCHAR
STARTCHAR 2079
ENCODING 8313
SWIDTH 660 0
DWIDTH 11 0
BBX 7 9 2 5
BITMAP
7C
7C
82
82
82
7E
02
02
7C
ENDCHAR
STARTCHAR 2080
ENCODING 8320
SWIDTH 660 0
DWIDTH 11 0
BBX 7 9 2 -3
BITMAP
7C
8E
8E
92
E2
E2
82
82
7C
ENDCHAR
STARTCHAR 2081
ENCODING 8321
SWIDTH 660 0
DWIDTH 11 0
BBX 5 9 3 -3
BITMAP
20
E0
E0
20
20
20
20
20
F8
ENDCHAR
STARTCHAR 2082
ENCODING 8322
SWIDTH 660 0
DWIDTH 11 0
BBX 7 9 2 -3
BITMAP
7C
82
82
0C
10
10
60
60
FE
ENDCHAR
STARTCHAR 2083
ENCODING 8323
SWIDTH 660 0
DWIDTH 11 0
BBX 7 9 2 -3
BITMAP
7C
82
82
1C
02
02
82
82
7C
ENDCHAR
STARTCHAR 2084
ENCODING 8324
SWIDTH 660 0
DWIDTH 11 0
BBX 7 9 2 -3
BITMAP
0E
12
12
62
82
82
FE
FE
02
ENDCHAR
STARTCHAR 2085
ENCODING 8325
SWIDTH 660 0
DWIDTH 11 0
BBX 7 9 2 -3
BITMAP
FE
80
80
FC
02
02
82
82
7C
ENDCHAR
STARTCHAR 2086
ENCODING 8326
SWIDTH 660 0
DWIDTH 11 0
BBX 7 9 2 -3
BITMAP
7C
80
80
FC
82
82
82
82
7C
ENDCHAR
STARTCHAR 2087
ENCODING 8327
SWIDTH 660 0
DWIDTH 11 0
BBX 7 9 2 -3
BITMAP
FE
02
02
0C
10
10
60
60
60
ENDCHAR
STARTCHAR 2088
ENCODING 8328
SWIDTH 660 0
DWIDTH 11 0
BBX 7 9 2 -3
BITMAP
7C
82
82
7C
82
82
82
82
7C
ENDCHAR
STARTCHAR 2089
ENCODING 8329
SWIDTH 660 0
DWIDTH 11 0
BBX 7 9 2 -3
BITMAP
7C
82
82
82
7E
7E
02
02
7C
ENDCHAR
STARTCHAR 20A3
ENCODING 8355
SWIDTH 660 0
DWIDTH 11 0
BBX 9 12 0 0
BITMAP
3F80
2000
2000
2000
3F00
3F00
2000
2000
2000
FC00
2000
2000
ENDCHAR
STARTCHAR 20A9
ENCODING 8361
SWIDTH 660 0
DWIDTH 11 0
BBX 11 12 0 0
BITMAP
2080
2080
2080
FFE0
2480
2480
2480
1B00
1B00
1B00
1B00
1B00
ENDCHAR
STARTCHAR 20AA
ENCODING 8362
SWIDTH 660 0
DWIDTH 11 0
BBX 7 12 2 0
BITMAP
E2
92
92
92
82
82
92
92
92
92
8E
8E
ENDCHAR
STARTCHAR 20AC
ENCODING 8364
SWIDTH 660 0
DWIDTH 11 0
BBX 9 12 0 0
BITMAP
1F00
2080
2080
2000
FC00
FC00
2000
2000
2000
2080
1F00
1F00
ENDCHAR
STARTCHAR 20AE
ENCODING 8366
SWIDTH 660 0
DWIDTH 11 0
BBX 7 12 2 0
BITMAP
FE
10
10
12
1C
1C
72
9C
9C
70
90
90
ENDCHAR
STARTCHAR 20B4
ENCODING 8372
SWIDTH 660 0
DWIDTH 11 0
BBX 7 12 2 0
BITMAP
7C
82
82
0C
FE
FE
60
80
80
82
7C
7C
ENDCHAR
STARTCHAR 20B8
ENCODING 8376
SWIDTH 660 0
DWIDTH 11 0
BBX 7 12 2 0
BITMAP
FE
10
10
FE
10
10
10
10
10
10
10
10
ENDCHAR
STARTCHAR 20B9
ENCODING 8377
SWIDTH 660 0
DWIDTH 11 0
BBX 7 12 2 0
BITMAP
FE
0C
0C
FE
10
10
60
10
10
0C
02
02
ENDCHAR
STARTCHAR 20BA
ENCODING 8378
SWIDTH 660 0
DWIDTH 11 0
BBX 7 12 2 0
BITMAP
6C
70
70
EC
70
70
E2
62
62
6C
70
70
ENDCHAR
STARTCHAR 20BD
ENCODING 8381
SWIDTH 660 0
DWIDTH 11 0
BBX 9 12 0 0
BITMAP
3F00
2080
2080
2080
2080
2080
FF00
2000
2000
FC00
2000
2000
ENDCHAR
STARTCHAR 20BF
ENCODING 8383
SWIDTH 660 0
DWIDTH 11 0
BBX 7 16 2 -2
BITMAP
6C
6C
FC
82
82
82
FC
FC
82
82
82
82
FC
FC
6C
6C
ENDCHAR
STARTCHAR 2113
ENCODING 8467
SWIDTH 660 0
DWIDTH 11 0
BBX 7 12 2 0
BITMAP
0C
12
12
12
62
62
6C
70
70
E2
1C
1C
ENDCHAR
STARTCHAR 2116
ENCODING 8470
SWIDTH 660 0
DWIDTH 11 0
BBX 11 12 0 0
BITMAP
C400
C480
C480
E760
DC80
DC80
C400
C480
C480
C400
C400
C400
ENDCHAR
STARTCHAR 2122
ENCODING 8482
SWIDTH 660 0
DWIDTH 11 0
BBX 9 4 2 8
BITMAP
FD80
6F80
6F80
6F80
ENDCHAR
STARTCHAR 2126
ENCODING 8486
SWIDTH 660 0
DWIDTH 11 0
BBX 7 12 2 0
BITMAP
7C
82
82
82
82
82
82
82
82
6C
EE
EE
ENDCHAR
STARTCHAR 212E
ENCODING 8494
SWIDTH 660 0
DWIDTH 11 0
BBX 11 11 0 0
BITMAP
1F00
1F00
2080
E0E0
E0E0
FFE0
E000
E000
2080
1F00
1F00
ENDCHAR
STARTCHAR 2150
ENCODING 8528
SWIDTH 660 0
DWIDTH 11 0
BBX 11 20 0 -5
BITMAP
2000
E000
E000
2000
2000
2000
F800
00E0
00E0
1F00
E000
E000
07E0
0060
0060
0080
0080
0300
0300
0300
ENDCHAR
STARTCHAR 2151
ENCODING 8529
SWIDTH 660 0
DWIDTH 11 0
BBX 11 20 0 -5
BITMAP
2000
E000
E000
2000
2000
2000
F800
00E0
00E0
1F00
E000
E000
0380
0460
0460
03E0
03E0
0060
0380
0380
ENDCHAR
STARTCHAR 2153
ENCODING 8531
SWIDTH 660 0
DWIDTH 11 0
BBX 11 20 0 -5
BITMAP
2000
E000
E000
2000
2000
2000
F800
00E0
00E0
1F00
E000
E000
0380
0460
0460
0080
0080
0460
0380
0380
ENDCHAR
STARTCHAR 2154
ENCODING 8532
SWIDTH 660 0
DWIDTH 11 0
BBX 11 20 0 -5
BITMAP
3800
C400
C400
1800
2000
2000
FC00
00E0
00E0
1F00
E000
E000
0380
0460
0460
0080
0080
0460
0380
0380
ENDCHAR
STARTCHAR 2155
ENCODING 8533
SWIDTH 660 0
DWIDTH 11 0
BBX 11 20 0 -5
BITMAP
2000
E000
E000
2000
2000
2000
F800
00E0
00E0
1F00
E000
E000
07E0
0400
0400
0780
0780
0060
0380
0380
ENDCHAR
STARTCHAR 2156
ENCODING 8534
SWIDTH 660 0
DWIDTH 11 0
BBX 11 20 0 -5
BITMAP
3800
C400
C400
1800
2000
2000
FC00
00E0
00E0
1F00
E000
E000
07E0
0400
0400
0780
0780
0060
0380
0380
ENDCHAR
STARTCHAR 2157
ENCODING 8535
SWIDTH 660 0
DWIDTH 11 0
BBX 11 20 0 -5
BITMAP
3800
C400
C400
1800
C400
C400
3800
00E0
00E0
1F00
E000
E000
07E0
0400
0400
0780
0780
0060
0380
0380
ENDCHAR
STARTCHAR 2158
ENCODING 8536
SWIDTH 660 0
DWIDTH 11 0
BBX 11 20 0 -5
BITMAP
1C00
2400
2400
C400
FC00
FC00
0400
00E0
00E0
1F00
E000
E000
07E0
0400
0400
0780
0780
0060
0380
0380
ENDCHAR
STARTCHAR 2159
ENCODING 8537
SWIDTH 660 0
DWIDTH 11 0
BBX 11 20 0 -5
BITMAP
2000
E000
E000
2000
2000
2000
F800
00E0
00E0
1F00
E000
E000
0380
0400
0400
0780
0780
0460
0380
0380
ENDCHAR
STARTCHAR 215A
ENCODING 8538
SWIDTH 660 0
DWIDTH 11 0
BBX 11 20 0 -5
BITMAP
FC00
C000
C000
F800
0400
0400
3800
00E0
00E0
1F00
E000
E000
0380
0400
0400
0780
0780
0460
0380
0380
ENDCHAR
STARTCHAR 215B
ENCODING 8539
SWIDTH 660 0
DWIDTH 11 0
BBX 11 20 0 -5
BITMAP
2000
E000
E000
2000
2000
2000
F800
00E0
00E0
1F00
E000
E000
0380
0460
0460
0380
0380
0460
0380
0380
ENDCHAR
STARTCHAR 215C
ENCODING 8540
SWIDTH 660 0
DWIDTH 11 0
BBX 11 20 0 -5
BITMAP
3800
C400
C400
1800
C400
C400
3800
00E0
00E0
1F00
E000
E000
0380
0460
0460
0380
0380
0460
0380
0380
ENDCHAR
STARTCHAR 215D
ENCODING 8541
SWIDTH 660 0
DWIDTH 11 0
BBX 11 20 0 -5
BITMAP
FC00
C000
C000
F800
0400
0400
3800
00E0
00E0
1F00
E000
E000
0380
0460
0460
0380
0380
0460
0380
0380
ENDCHAR
STARTCHAR 215E
ENCODING 8542
SWIDTH 660 0
DWIDTH 11 0
BBX 11 20 0 -5
BITMAP
FC00
0400
0400
1800
2000
2000
2000
00E0
00E0
1F00
E000
E000
0380
0460
0460
0380
0380
0460
0380
0380
ENDCHAR
STARTCHAR 2189
ENCODING 8585
SWIDTH 660 0
DWIDTH 11 0
BBX 11 20 0 -5
BITMAP
3800
DC00
DC00
E400
C400
C400
3800
00E0
00E0
1F00
E000
E000
0380
0460
0460
0080
0080
0460
0380
0380
ENDCHAR
STARTCHAR 2190
ENCODING 8592
SWIDTH 660 0
DWIDTH 11 0
BBX 11 7 0 2
BITMAP
1800
2000
2000
FFE0
2000
2000
1800
ENDCHAR
STARTCHAR 2191
ENCODING 8593
SWIDTH 660 0
DWIDTH 11 0
BBX 7 12 2 0
BITMAP
10
7C
7C
92
10
10
10
10
10
10
10
10
ENDCHAR
STARTCHAR 2192
ENCODING 8594
SWIDTH 660 0
DWIDTH 11 0
BBX 11 7 0 2
BITMAP
0300
0080
0080
FFE0
0080
0080
0300
ENDCHAR
STARTCHAR 2193
ENCODING 8595
SWIDTH 660 0
DWIDTH 11 0
BBX 7 12 2 0
BITMAP
10
10
10
10
10
10
10
92
92
7C
10
10
ENDCHAR
STARTCHAR 2195
ENCODING 8597
SWIDTH 660 0
DWIDTH 11 0
BBX 7 16 2 -2
BITMAP
10
10
7C
92
92
10
10
10
10
10
10
92
7C
7C
10
10
ENDCHAR
STARTCHAR 2196
ENCODING 8598
SWIDTH 660 0
DWIDTH 11 0
BBX 9 9 2 2
BITMAP
FC00
FC00
E000
9000
9000
8C00
0200
0200
0180
ENDCHAR
STARTCHAR 2197
ENCODING 8599
SWIDTH 660 0
DWIDTH 11 0
BBX 9 9 0 2
BITMAP
1F80
1F80
0380
0480
0480
1880
2000
2000
C000
ENDCHAR
STARTCHAR 2198
ENCODING 8600
SWIDTH 660 0
DWIDTH 11 0
BBX 9 9 0 2
BITMAP
C000
C000
2000
1880
1880
0480
0380
0380
1F80
ENDCHAR
STARTCHAR 2199
ENCODING 8601
SWIDTH 660 0
DWIDTH 11 0
BBX 9 9 2 2
BITMAP
0180
0180
0200
8C00
8C00
9000
E000
E000
FC00
ENDCHAR
STARTCHAR 21B0
ENCODING 8624
SWIDTH 660 0
DWIDTH 11 0
BBX 9 12 0 0
BITMAP
1800
2000
2000
FF80
2080
2080
1880
0080
0080
0080
0080
0080
ENDCHAR
STARTCHAR 21B1
ENCODING 8625
SWIDTH 660 0
DWIDTH 11 0
BBX 9 12 2 0
BITMAP
0C00
0200
0200
FF80
8200
8200
8C00
8000
8000
8000
8000
8000
ENDCHAR
STARTCHAR 21B2
ENCODING 8626
SWIDTH 660 0
DWIDTH 11 0
BBX 9 12 0 0
BITMAP
0080
0080
0080
0080
1880
1880
2080
FF80
FF80
2000
1800
1800
ENDCHAR
STARTCHAR 21B3
ENCODING 8627
SWIDTH 660 0
DWIDTH 11 0
BBX 9 12 2 0
BITMAP
8000
8000
8000
8000
8C00
8C00
8200
FF80
FF80
0200
0C00
0C00
ENDCHAR
STARTCHAR 21B4
ENCODING 8628
SWIDTH 660 0
DWIDTH 11 0
BBX 9 12 2 0
BITMAP
FC00
0C00
0C00
0C00
0C00
0C00
0C00
6D80
6D80
1E00
0C00
0C00
ENDCHAR
STARTCHAR 21B5
ENCODING 8629
SWIDTH 660 0
DWIDTH 11 0
BBX 9 12 0 0
BITMAP
0080
0080
0080
0080
1880
1880
2080
FF80
FF80
2000
1800
1800
ENDCHAR
STARTCHAR 2202
ENCODING 8706
SWIDTH 660 0
DWIDTH 11 0
BBX 7 12 2 0
BITMAP
1C
02
02
02
1E
1E
62
82
82
8C
70
70
ENDCHAR
STARTCHAR 2206
ENCODING 8710
SWIDTH 660 0
DWIDTH 11 0
BBX 7 12 2 0
BITMAP
10
10
10
6C
6C
6C
6C
82
82
82
FE
FE
ENDCHAR
STARTCHAR 220F
ENCODING 8719
SWIDTH 660 0
DWIDTH 11 0
BBX 7 12 2 0
BITMAP
FE
82
82
82
82
82
82
82
82
82
82
82
ENDCHAR
STARTCHAR 2211
ENCODING 8721
SWIDTH 660 0
DWIDTH 11 0
BBX 7 12 2 0
BITMAP
FE
82
82
60
10
10
60
80
80
82
FE
FE
ENDCHAR
STARTCHAR 2212
ENCODING 8722
SWIDTH 660 0
DWIDTH 11 0
BBX 7 1 2 5
BITMAP
FE
ENDCHAR
STARTCHAR 2219
ENCODING 8729
SWIDTH 660 0
DWIDTH 11 0
BBX 1 3 5 5
BITMAP
80
80
80
ENDCHAR
STARTCHAR 221A
ENCODING 8730
SWIDTH 660 0
DWIDTH 11 0
BBX 7 12 2 0
BITMAP
02
02
02
0C
0C
0C
90
90
90
60
60
60
ENDCHAR
STARTCHAR 221E
ENCODING 8734
SWIDTH 660 0
DWIDTH 11 0
BBX 7 7 2 2
BITMAP
6C
92
92
92
92
92
6C
ENDCHAR
STARTCHAR 222B
ENCODING 8747
SWIDTH 660 0
DWIDTH 11 0
BBX 7 15 2 -3
BITMAP
0E
10
10
10
10
10
10
10
10
10
10
10
10
10
E0
ENDCHAR
STARTCHAR 2248
ENCODING 8776
SWIDTH 660 0
DWIDTH 11 0
BBX 7 7 2 2
BITMAP
62
9C
9C
00
62
62
9C
ENDCHAR
STARTCHAR 2260
ENCODING 8800
SWIDTH 660 0
DWIDTH 11 0
BBX 7 7 2 2
BITMAP
0C
FE
FE
10
FE
FE
60
ENDCHAR
STARTCHAR 2264
ENCODING 8804
SWIDTH 660 0
DWIDTH 11 0
BBX 6 14 2 -2
BITMAP
0C
10
10
60
80
80
60
10
10
0C
00
00
FC
FC
ENDCHAR
STARTCHAR 2265
ENCODING 8805
SWIDTH 660 0
DWIDTH 11 0
BBX 6 14 3 -2
BITMAP
C0
20
20
18
04
04
18
20
20
C0
00
00
FC
FC
ENDCHAR
STARTCHAR 2318
ENCODING 8984
SWIDTH 660 0
DWIDTH 11 0
BBX 11 12 0 0
BITMAP
2080
DB60
DB60
3F80
1B00
1B00
1B00
3F80
3F80
DB60
2080
2080
ENDCHAR
STARTCHAR 2325
ENCODING 8997
SWIDTH 660 0
DWIDTH 11 0
BBX 9 12 0 0
BITMAP
E380
1800
1800
1800
1800
1800
0400
0400
0400
0400
0380
0380
ENDCHAR
STARTCHAR 2500
ENCODING 9472
SWIDTH 660 0
DWIDTH 11 0
BBX 11 1 0 5
BITMAP
FFE0
ENDCHAR
STARTCHAR 2501
ENCODING 9473
SWIDTH 660 0
DWIDTH 11 0
BBX 11 5 0 3
BITMAP
FFE0
FFE0
FFE0
FFE0
FFE0
ENDCHAR
STARTCHAR 2502
ENCODING 9474
SWIDTH 660 0
DWIDTH 11 0
BBX 1 22 5 -5
BITMAP
80
80
80
80
80
80
80
80
80
80
80
80
80
80
80
80
80
80
80
80
80
80
ENDCHAR
STARTCHAR 2503
ENCODING 9475
SWIDTH 660 0
DWIDTH 11 0
BBX 5 22 3 -5
BITMAP
F8
F8
F8
F8
F8
F8
F8
F8
F8
F8
F8
F8
F8
F8
F8
F8
F8
F8
F8
F8
F8
F8
ENDCHAR
STARTCHAR 2504
ENCODING 9476
SWIDTH 660 0
DWIDTH 11 0
BBX 9 1 0 5
BITMAP
E480
ENDCHAR
STARTCHAR 2505
ENCODING 9477
SWIDTH 660 0
DWIDTH 11 0
BBX 9 5 0 3
BITMAP
E480
E480
E480
E480
E480
ENDCHAR
STARTCHAR 2506
ENCODING 9478
SWIDTH 660 0
DWIDTH 11 0
BBX 1 20 5 -3
BITMAP
80
80
80
80
80
80
00
00
80
80
80
80
80
80
00
80
80
80
80
80
ENDCHAR
STARTCHAR 2507
ENCODING 9479
SWIDTH 660 0
DWIDTH 11 0
BBX 5 20 3 -3
BITMAP
F8
F8
F8
F8
F8
F8
00
00
F8
F8
F8
F8
F8
F8
00
F8
F8
F8
F8
F8
ENDCHAR
STARTCHAR 2508
ENCODING 9480
SWIDTH 660 0
DWIDTH 11 0
BBX 9 1 0 5
BITMAP
DB80
ENDCHAR
STARTCHAR 2509
ENCODING 9481
SWIDTH 660 0
DWIDTH 11 0
BBX 9 5 0 3
BITMAP
DB80
DB80
DB80
DB80
DB80
ENDCHAR
STARTCHAR 250A
ENCODING 9482
SWIDTH 660 0
DWIDTH 11 0
BBX 1 20 5 -3
BITMAP
80
80
80
00
00
80
80
80
80
00
00
80
80
80
00
80
80
80
80
80
ENDCHAR
STARTCHAR 250B
ENCODING 9483
SWIDTH 660 0
DWIDTH 11 0
BBX 5 20 3 -3
BITMAP
F8
F8
F8
00
00
F8
F8
F8
F8
00
00
F8
F8
F8
00
F8
F8
F8
F8
F8
ENDCHAR
STARTCHAR 250C
ENCODING 9484
SWIDTH 660 0
DWIDTH 11 0
BBX 6 11 5 -5
BITMAP
FC
80
80
80
80
80
80
80
80
80
80
ENDCHAR
STARTCHAR 250D
ENCODING 9485
SWIDTH 660 0
DWIDTH 11 0
BBX 6 13 5 -5
BITMAP
FC
FC
FC
FC
FC
80
80
80
80
80
80
80
80
ENDCHAR
STARTCHAR 250E
ENCODING 9486
SWIDTH 660 0
DWIDTH 11 0
BBX 8 11 3 -5
BITMAP
FF
F8
F8
F8
F8
F8
F8
F8
F8
F8
F8
ENDCHAR
STARTCHAR 250F
ENCODING 9487
SWIDTH 660 0
DWIDTH 11 0
BBX 8 13 3 -5
BITMAP
FF
FF
FF
FF
FF
F8
F8
F8
F8
F8
F8
F8
F8
ENDCHAR
STARTCHAR 2510
ENCODING 9488
SWIDTH 660 0
DWIDTH 11 0
BBX 6 11 0 -5
BITMAP
FC
04
04
04
04
04
04
04
04
04
04
ENDCHAR
STARTCHAR 2511
ENCODING 9489
SWIDTH 660 0
DWIDTH 11 0
BBX 6 13 0 -5
BITMAP
FC
FC
FC
FC
FC
04
04
04
04
04
04
04
04
ENDCHAR
STARTCHAR 2512
ENCODING 9490
SWIDTH 660 0
DWIDTH 11 0
BBX 8 11 0 -5
BITMAP
FF
1F
1F
1F
1F
1F
1F
1F
1F
1F
1F
ENDCHAR
STARTCHAR 2513
ENCODING 9491
SWIDTH 660 0
DWIDTH 11 0
BBX 8 13 0 -5
BITMAP
FF
FF
FF
FF
FF
1F
1F
1F
1F
1F
1F
1F
1F
ENDCHAR
STARTCHAR 2514
ENCODING 9492
SWIDTH 660 0
DWIDTH 11 0
BBX 6 12 5 5
BITMAP
80
80
80
80
80
80
80
80
80
80
80
FC
ENDCHAR
STARTCHAR 2515
ENCODING 9493
SWIDTH 660 0
DWIDTH 11 0
BBX 6 14 5 3
BITMAP
80
80
80
80
80
80
80
80
80
FC
FC
FC
FC
FC
ENDCHAR
STARTCHAR 2516
ENCODING 9494
SWIDTH 660 0
DWIDTH 11 0
BBX 8 12 3 5
BITMAP
F8
F8
F8
F8
F8
F8
F8
F8
F8
F8
F8
FF
ENDCHAR
STARTCHAR 2517
ENCODING 9495
SWIDTH 660 0
DWIDTH 11 0
BBX 8 14 3 3
BITMAP
F8
F8
F8
F8
F8
F8
F8
F8
F8
FF
FF
FF
FF
FF
ENDCHAR
STARTCHAR 2518
ENCODING 9496
SWIDTH 660 0
DWIDTH 11 0
BBX 6 12 0 5
BITMAP
04
04
04
04
04
04
04
04
04
04
04
FC
ENDCHAR
STARTCHAR 2519
ENCODING 9497
SWIDTH 660 0
DWIDTH 11 0
BBX 6 14 0 3
BITMAP
04
04
04
04
04
04
04
04
04
FC
FC
FC
FC
FC
ENDCHAR
STARTCHAR 251A
ENCODING 9498
SWIDTH 660 0
DWIDTH 11 0
BBX 8 12 0 5
BITMAP
1F
1F
1F
1F
1F
1F
1F
1F
1F
1F
1F
FF
ENDCHAR
STARTCHAR 251B
ENCODING 9499
SWIDTH 660 0
DWIDTH 11 0
BBX 8 14 0 3
BITMAP
1F
1F
1F
1F
1F
1F
1F
1F
1F
FF
FF
FF
FF
FF
ENDCHAR
STARTCHAR 251C
ENCODING 9500
SWIDTH 660 0
DWIDTH 11 0
BBX 6 22 5 -5
BITMAP
80
80
80
80
80
80
80
80
80
80
80
FC
80
80
80
80
80
80
80
80
80
80
ENDCHAR
STARTCHAR 251D
ENCODING 9501
SWIDTH 660 0
DWIDTH 11 0
BBX 6 22 5 -5
BITMAP
80
80
80
80
80
80
80
80
80
FC
FC
FC
FC
FC
80
80
80
80
80
80
80
80
ENDCHAR
STARTCHAR 251E
ENCODING 9502
SWIDTH 660 0
DWIDTH 11 0
BBX 8 22 3 -5
BITMAP
F8
F8
F8
F8
F8
F8
F8
F8
F8
F8
F8
FF
20
20
20
20
20
20
20
20
20
20
ENDCHAR
STARTCHAR 251F
ENCODING 9503
SWIDTH 660 0
DWIDTH 11 0
BBX 8 22 3 -5
BITMAP
20
20
20
20
20
20
20
20
20
20
20
FF
F8
F8
F8
F8
F8
F8
F8
F8
F8
F8
ENDCHAR
STARTCHAR 2520
ENCODING 9504
SWIDTH 660 0
DWIDTH 11 0
BBX 8 22 3 -5
BITMAP
F8
F8
F8
F8
F8
F8
F8
F8
F8
F8
F8
FF
F8
F8
F8
F8
F8
F8
F8
F8
F8
F8
ENDCHAR
STARTCHAR 2521
ENCODING 9505
SWIDTH 660 0
DWIDTH 11 0
BBX 8 22 3 -5
BITMAP
F8
F8
F8
F8
F8
F8
F8
F8
F8
FF
FF
FF
FF
FF
20
20
20
20
20
20
20
20
ENDCHAR
STARTCHAR 2522
ENCODING 9506
SWIDTH 660 0
DWIDTH 11 0
BBX 8 22 3 -5
BITMAP
20
20
20
20
20
20
20
20
20
FF
FF
FF
FF
FF
F8
F8
F8
F8
F8
F8
F8
F8
ENDCHAR
STARTCHAR 2523
ENCODING 9507
SWIDTH 660 0
DWIDTH 11 0
BBX 8 22 3 -5
BITMAP
F8
F8
F8
F8
F8
F8
F8
F8
F8
FF
FF
FF
FF
FF
F8
F8
F8
F8
F8
F8
F8
F8
ENDCHAR
STARTCHAR 2524
ENCODING 9508
SWIDTH 660 0
DWIDTH 11 0
BBX 6 22 0 -5
BITMAP
04
04
04
04
04
04
04
04
04
04
04
FC
04
04
04
04
04
04
04
04
04
04
ENDCHAR
STARTCHAR 2525
ENCODING 9509
SWIDTH 660 0
DWIDTH 11 0
BBX 6 22 0 -5
BITMAP
04
04
04
04
04
04
04
04
04
FC
FC
FC
FC
FC
04
04
04
04
04
04
04
04
ENDCHAR
STARTCHAR 2526
ENCODING 9510
SWIDTH 660 0
DWIDTH 11 0
BBX 8 22 0 -5
BITMAP
1F
1F
1F
1F
1F
1F
1F
1F
1F
1F
1F
FF
04
04
04
04
04
04
04
04
04
04
ENDCHAR
STARTCHAR 2527
ENCODING 9511
SWIDTH 660 0
DWIDTH 11 0
BBX 8 22 0 -5
BITMAP
04
04
04
04
04
04
04
04
04
04
04
FF
1F
1F
1F
1F
1F
1F
1F
1F
1F
1F
ENDCHAR
STARTCHAR 2528
ENCODING 9512
SWIDTH 660 0
DWIDTH 11 0
BBX 8 22 0 -5
BITMAP
1F
1F
1F
1F
1F
1F
1F
1F
1F
1F
1F
FF
1F
1F
1F
1F
1F
1F
1F
1F
1F
1F
ENDCHAR
STARTCHAR 2529
ENCODING 9513
SWIDTH 660 0
DWIDTH 11 0
BBX 8 22 0 -5
BITMAP
1F
1F
1F
1F
1F
1F
1F
1F
1F
FF
FF
FF
FF
FF
04
04
04
04
04
04
04
04
ENDCHAR
STARTCHAR 252A
ENCODING 9514
SWIDTH 660 0
DWIDTH 11 0
BBX 8 22 0 -5
BITMAP
04
04
04
04
04
04
04
04
04
FF
FF
FF
FF
FF
1F
1F
1F
1F
1F
1F
1F
1F
ENDCHAR
STARTCHAR 252B
ENCODING 9515
SWIDTH 660 0
DWIDTH 11 0
BBX 8 22 0 -5
BITMAP
1F
1F
1F
1F
1F
1F
1F
1F
1F
FF
FF
FF
FF
FF
1F
1F
1F
1F
1F
1F
1F
1F
ENDCHAR
STARTCHAR 252C
ENCODING 9516
SWIDTH 660 0
DWIDTH 11 0
BBX 11 11 0 -5
BITMAP
FFE0
0400
0400
0400
0400
0400
0400
0400
0400
0400
0400
ENDCHAR
STARTCHAR 252D
ENCODING 9517
SWIDTH 660 0
DWIDTH 11 0
BBX 11 13 0 -5
BITMAP
FF00
FF00
FFE0
FF00
FF00
0400
0400
0400
0400
0400
0400
0400
0400
ENDCHAR
STARTCHAR 252E
ENCODING 9518
SWIDTH 660 0
DWIDTH 11 0
BBX 11 13 0 -5
BITMAP
1FE0
1FE0
FFE0
1FE0
1FE0
0400
0400
0400
0400
0400
0400
0400
0400
ENDCHAR
STARTCHAR 252F
ENCODING 9519
SWIDTH 660 0
DWIDTH 11 0
BBX 11 13 0 -5
BITMAP
FFE0
FFE0
FFE0
FFE0
FFE0
0400
0400
0400
0400
0400
0400
0400
0400
ENDCHAR
STARTCHAR 2530
ENCODING 9520
SWIDTH 660 0
DWIDTH 11 0
BBX 11 11 0 -5
BITMAP
FFE0
1F00
1F00
1F00
1F00
1F00
1F00
1F00
1F00
1F00
1F00
ENDCHAR
STARTCHAR 2531
ENCODING 9521
SWIDTH 660 0
DWIDTH 11 0
BBX 11 13 0 -5
BITMAP
FF00
FF00
FFE0
FF00
FF00
1F00
1F00
1F00
1F00
1F00
1F00
1F00
1F00
ENDCHAR
STARTCHAR 2532
ENCODING 9522
SWIDTH 660 0
DWIDTH 11 0
BBX 11 13 0 -5
BITMAP
1FE0
1FE0
FFE0
1FE0
1FE0
1F00
1F00
1F00
1F00
1F00
1F00
1F00
1F00
ENDCHAR
STARTCHAR 2533
ENCODING 9523
SWIDTH 660 0
DWIDTH 11 0
BBX 11 13 0 -5
BITMAP
FFE0
FFE0
FFE0
FFE0
FFE0
1F00
1F00
1F00
1F00
1F00
1F00
1F00
1F00
ENDCHAR
STARTCHAR 2534
ENCODING 9524
SWIDTH 660 0
DWIDTH 11 0
BBX 11 12 0 5
BITMAP
0400
0400
0400
0400
0400
0400
0400
0400
0400
0400
0400
FFE0
ENDCHAR
STARTCHAR 2535
ENCODING 9525
SWIDTH 660 0
DWIDTH 11 0
BBX 11 14 0 3
BITMAP
0400
0400
0400
0400
0400
0400
0400
0400
0400
FF00
FF00
FFE0
FF00
FF00
ENDCHAR
STARTCHAR 2536
ENCODING 9526
SWIDTH 660 0
DWIDTH 11 0
BBX 11 14 0 3
BITMAP
0400
0400
0400
0400
0400
0400
0400
0400
0400
07E0
07E0
FFE0
07E0
07E0
ENDCHAR
STARTCHAR 2537
ENCODING 9527
SWIDTH 660 0
DWIDTH 11 0
BBX 11 14 0 3
BITMAP
0400
0400
0400
0400
0400
0400
0400
0400
0400
FFE0
FFE0
FFE0
FFE0
FFE0
ENDCHAR
STARTCHAR 2538
ENCODING 9528
SWIDTH 660 0
DWIDTH 11 0
BBX 11 12 0 5
BITMAP
1F00
1F00
1F00
1F00
1F00
1F00
1F00
1F00
1F00
1F00
1F00
FFE0
ENDCHAR
STARTCHAR 2539
ENCODING 9529
SWIDTH 660 0
DWIDTH 11 0
BBX 11 14 0 3
BITMAP
1F00
1F00
1F00
1F00
1F00
1F00
1F00
1F00
1F00
FF00
FF00
FFE0
FF00
FF00
ENDCHAR
STARTCHAR 253A
ENCODING 9530
SWIDTH 660 0
DWIDTH 11 0
BBX 11 14 0 3
BITMAP
1F00
1F00
1F00
1F00
1F00
1F00
1F00
1F00
1F00
1FE0
1FE0
FFE0
1FE0
1FE0
ENDCHAR
STARTCHAR 253B
ENCODING 9531
SWIDTH 660 0
DWIDTH 11 0
BBX 11 14 0 3
BITMAP
1F00
1F00
1F00
1F00
1F00
1F00
1F00
1F00
1F00
FFE0
FFE0
FFE0
FFE0
FFE0
ENDCHAR
STARTCHAR 253C
ENCODING 9532
SWIDTH 660 0
DWIDTH 11 0
BBX 11 22 0 -5
BITMAP
0400
0400
0400
0400
0400
0400
0400
0400
0400
0400
0400
FFE0
0400
0400
0400
0400
0400
0400
0400
0400
0400
0400
ENDCHAR
STARTCHAR 253D
ENCODING 9533
SWIDTH 660 0
DWIDTH 11 0
BBX 11 22 0 -5
BITMAP
0400
0400
0400
0400
0400
0400
0400
0400
0400
FC00
FC00
FFE0
FC00
FC00
0400
0400
0400
0400
0400
0400
0400
0400
ENDCHAR
STARTCHAR 253E
ENCODING 9534
SWIDTH 660 0
DWIDTH 11 0
BBX 11 22 0 -5
BITMAP
0400
0400
0400
0400
0400
0400
0400
0400
0400
07E0
07E0
FFE0
07E0
07E0
0400
0400
0400
0400
0400
0400
0400
0400
ENDCHAR
STARTCHAR 253F
ENCODING 9535
SWIDTH 660 0
DWIDTH 11 0
BBX 11 22 0 -5
BITMAP
0400
0400
0400
0400
0400
0400
0400
0400
0400
FFE0
FFE0
FFE0
FFE0
FFE0
0400
0400
0400
0400
0400
0400
0400
0400
ENDCHAR
STARTCHAR 2540
ENCODING 9536
SWIDTH 660 0
DWIDTH 11 0
BBX 11 22 0 -5
BITMAP
1F00
1F00
1F00
1F00
1F00
1F00
1F00
1F00
1F00
1F00
1F00
FFE0
0400
0400
0400
0400
0400
0400
0400
0400
0400
0400
ENDCHAR
STARTCHAR 2541
ENCODING 9537
SWIDTH 660 0
DWIDTH 11 0
BBX 11 22 0 -5
BITMAP
0400
0400
0400
0400
0400
0400
0400
0400
0400
0400
0400
FFE0
1F00
1F00
1F00
1F00
1F00
1F00
1F00
1F00
1F00
1F00
ENDCHAR
STARTCHAR 2542
ENCODING 9538
SWIDTH 660 0
DWIDTH 11 0
BBX 11 22 0 -5
BITMAP
1F00
1F00
1F00
1F00
1F00
1F00
1F00
1F00
1F00
1F00
1F00
FFE0
1F00
1F00
1F00
1F00
1F00
1F00
1F00
1F00
1F00
1F00
ENDCHAR
STARTCHAR 2543
ENCODING 9539
SWIDTH 660 0
DWIDTH 11 0
BBX 11 22 0 -5
BITMAP
1F00
1F00
1F00
1F00
1F00
1F00
1F00
1F00
1F00
FF00
FF00
FFE0
FF00
FF00
0400
0400
0400
0400
0400
0400
0400
0400
ENDCHAR
STARTCHAR 2544
ENCODING 9540
SWIDTH 660 0
DWIDTH 11 0
BBX 11 22 0 -5
BITMAP
1F00
1F00
1F00
1F00
1F00
1F00
1F00
1F00
1F00
1FE0
1FE0
FFE0
1FE0
1FE0
0400
0400
0400
0400
0400
0400
0400
0400
ENDCHAR
STARTCHAR 2545
ENCODING 9541
SWIDTH 660 0
DWIDTH 11 0
BBX 11 22 0 -5
BITMAP
0400
0400
0400
0400
0400
0400
0400
0400
0400
FF00
FF00
FFE0
FF00
FF00
1F00
1F00
1F00
1F00
1F00
1F00
1F00
1F00
ENDCHAR
STARTCHAR 2546
ENCODING 9542
SWIDTH 660 0
DWIDTH 11 0
BBX 11 22 0 -5
BITMAP
0400
0400
0400
0400
0400
0400
0400
0400
0400
1FE0
1FE0
FFE0
1FE0
1FE0
1F00
1F00
1F00
1F00
1F00
1F00
1F00
1F00
ENDCHAR
STARTCHAR 2547
ENCODING 9543
SWIDTH 660 0
DWIDTH 11 0
BBX 11 22 0 -5
BITMAP
1F00
1F00
1F00
1F00
1F00
1F00
1F00
1F00
1F00
FFE0
FFE0
FFE0
FFE0
FFE0
0400
0400
0400
0400
0400
0400
0400
0400
ENDCHAR
STARTCHAR 2548
ENCODING 9544
SWIDTH 660 0
DWIDTH 11 0
BBX 11 22 0 -5
BITMAP
0400
0400
0400
0400
0400
0400
0400
0400
0400
FFE0
FFE0
FFE0
FFE0
FFE0
1F00
1F00
1F00
1F00
1F00
1F00
1F00
1F00
ENDCHAR
STARTCHAR 2549
ENCODING 9545
SWIDTH 660 0
DWIDTH 11 0
BBX 11 22 0 -5
BITMAP
1F00
1F00
1F00
1F00
1F00
1F00
1F00
1F00
1F00
FF00
FF00
FFE0
FF00
FF00
1F00
1F00
1F00
1F00
1F00
1F00
1F00
1F00
ENDCHAR
STARTCHAR 254A
ENCODING 9546
SWIDTH 660 0
DWIDTH 11 0
BBX 11 22 0 -5
BITMAP
1F00
1F00
1F00
1F00
1F00
1F00
1F00
1F00
1F00
1FE0
1FE0
FFE0
1FE0
1FE0
1F00
1F00
1F00
1F00
1F00
1F00
1F00
1F00
ENDCHAR
STARTCHAR 254B
ENCODING 9547
SWIDTH 660 0
DWIDTH 11 0
BBX 11 22 0 -5
BITMAP
1F00
1F00
1F00
1F00
1F00
1F00
1F00
1F00
1F00
FFE0
FFE0
FFE0
FFE0
FFE0
1F00
1F00
1F00
1F00
1F00
1F00
1F00
1F00
ENDCHAR
STARTCHAR 254C
ENCODING 9548
SWIDTH 660 0
DWIDTH 11 0
BBX 9 1 0 5
BITMAP
FB80
ENDCHAR
STARTCHAR 254D
ENCODING 9549
SWIDTH 660 0
DWIDTH 11 0
BBX 9 5 0 3
BITMAP
FB80
FB80
FB80
FB80
FB80
ENDCHAR
STARTCHAR 254E
ENCODING 9550
SWIDTH 660 0
DWIDTH 11 0
BBX 1 20 5 -3
BITMAP
80
80
80
80
80
80
80
80
80
00
00
80
80
80
80
80
80
80
80
80
ENDCHAR
STARTCHAR 254F
ENCODING 9551
SWIDTH 660 0
DWIDTH 11 0
BBX 5 20 3 -3
BITMAP
F8
F8
F8
F8
F8
F8
F8
F8
F8
00
00
F8
F8
F8
F8
F8
F8
F8
F8
F8
ENDCHAR
STARTCHAR 2550
ENCODING 9552
SWIDTH 660 0
DWIDTH 11 0
BBX 11 5 0 3
BITMAP
FFE0
FFE0
0000
FFE0
FFE0
ENDCHAR
STARTCHAR 2551
ENCODING 9553
SWIDTH 660 0
DWIDTH 11 0
BBX 5 22 3 -5
BITMAP
D8
D8
D8
D8
D8
D8
D8
D8
D8
D8
D8
D8
D8
D8
D8
D8
D8
D8
D8
D8
D8
D8
ENDCHAR
STARTCHAR 2552
ENCODING 9554
SWIDTH 660 0
DWIDTH 11 0
BBX 6 13 5 -5
BITMAP
FC
FC
80
FC
FC
80
80
80
80
80
80
80
80
ENDCHAR
STARTCHAR 2553
ENCODING 9555
SWIDTH 660 0
DWIDTH 11 0
BBX 8 11 3 -5
BITMAP
FF
D8
D8
D8
D8
D8
D8
D8
D8
D8
D8
ENDCHAR
STARTCHAR 2554
ENCODING 9556
SWIDTH 660 0
DWIDTH 11 0
BBX 8 13 3 -5
BITMAP
FF
FF
C0
DF
DF
D8
D8
D8
D8
D8
D8
D8
D8
ENDCHAR
STARTCHAR 2555
ENCODING 9557
SWIDTH 660 0
DWIDTH 11 0
BBX 6 13 0 -5
BITMAP
FC
FC
04
FC
FC
04
04
04
04
04
04
04
04
ENDCHAR
STARTCHAR 2556
ENCODING 9558
SWIDTH 660 0
DWIDTH 11 0
BBX 8 11 0 -5
BITMAP
FF
1B
1B
1B
1B
1B
1B
1B
1B
1B
1B
ENDCHAR
STARTCHAR 2557
ENCODING 9559
SWIDTH 660 0
DWIDTH 11 0
BBX 8 13 0 -5
BITMAP
FF
FF
03
FB
FB
1B
1B
1B
1B
1B
1B
1B
1B
ENDCHAR
STARTCHAR 2558
ENCODING 9560
SWIDTH 660 0
DWIDTH 11 0
BBX 6 14 5 3
BITMAP
80
80
80
80
80
80
80
80
80
FC
FC
80
FC
FC
ENDCHAR
STARTCHAR 2559
ENCODING 9561
SWIDTH 660 0
DWIDTH 11 0
BBX 8 12 3 5
BITMAP
D8
D8
D8
D8
D8
D8
D8
D8
D8
D8
D8
FF
ENDCHAR
STARTCHAR 255A
ENCODING 9562
SWIDTH 660 0
DWIDTH 11 0
BBX 8 14 3 3
BITMAP
D8
D8
D8
D8
D8
D8
D8
D8
D8
DF
DF
C0
FF
FF
ENDCHAR
STARTCHAR 255B
ENCODING 9563
SWIDTH 660 0
DWIDTH 11 0
BBX 6 14 0 3
BITMAP
04
04
04
04
04
04
04
04
04
FC
FC
04
FC
FC
ENDCHAR
STARTCHAR 255C
ENCODING 9564
SWIDTH 660 0
DWIDTH 11 0
BBX 8 12 0 5
BITMAP
1B
1B
1B
1B
1B
1B
1B
1B
1B
1B
1B
FF
ENDCHAR
STARTCHAR 255D
ENCODING 9565
SWIDTH 660 0
DWIDTH 11 0
BBX 8 14 0 3
BITMAP
1B
1B
1B
1B
1B
1B
1B
1B
1B
FB
FB
03
FF
FF
ENDCHAR
STARTCHAR 255E
ENCODING 9566
SWIDTH 660 0
DWIDTH 11 0
BBX 6 22 5 -5
BITMAP
80
80
80
80
80
80
80
80
80
FC
FC
80
FC
FC
80
80
80
80
80
80
80
80
ENDCHAR
STARTCHAR 255F
ENCODING 9567
SWIDTH 660 0
DWIDTH 11 0
BBX 8 22 3 -5
BITMAP
D8
D8
D8
D8
D8
D8
D8
D8
D8
D8
D8
DF
D8
D8
D8
D8
D8
D8
D8
D8
D8
D8
ENDCHAR
STARTCHAR 2560
ENCODING 9568
SWIDTH 660 0
DWIDTH 11 0
BBX 8 22 3 -5
BITMAP
D8
D8
D8
D8
D8
D8
D8
D8
D8
DF
DF
C0
DF
DF
D8
D8
D8
D8
D8
D8
D8
D8
ENDCHAR
STARTCHAR 2561
ENCODING 9569
SWIDTH 660 0
DWIDTH 11 0
BBX 6 22 0 -5
BITMAP
04
04
04
04
04
04
04
04
04
FC
FC
04
FC
FC
04
04
04
04
04
04
04
04
ENDCHAR
STARTCHAR 2562
ENCODING 9570
SWIDTH 660 0
DWIDTH 11 0
BBX 8 22 0 -5
BITMAP
1B
1B
1B
1B
1B
1B
1B
1B
1B
1B
1B
FB
1B
1B
1B
1B
1B
1B
1B
1B
1B
1B
ENDCHAR
STARTCHAR 2563
ENCODING 9571
SWIDTH 660 0
DWIDTH 11 0
BBX 8 22 0 -5
BITMAP
1B
1B
1B
1B
1B
1B
1B
1B
1B
FB
FB
03
FB
FB
1B
1B
1B
1B
1B
1B
1B
1B
ENDCHAR
STARTCHAR 2564
ENCODING 9572
SWIDTH 660 0
DWIDTH 11 0
BBX 11 13 0 -5
BITMAP
FFE0
FFE0
0000
FFE0
FFE0
0400
0400
0400
0400
0400
0400
0400
0400
ENDCHAR
STARTCHAR 2565
ENCODING 9573
SWIDTH 660 0
DWIDTH 11 0
BBX 11 11 0 -5
BITMAP
FFE0
1B00
1B00
1B00
1B00
1B00
1B00
1B00
1B00
1B00
1B00
ENDCHAR
STARTCHAR 2566
ENCODING 9574
SWIDTH 660 0
DWIDTH 11 0
BBX 11 13 0 -5
BITMAP
FFE0
FFE0
0000
FBE0
FBE0
1B00
1B00
1B00
1B00
1B00
1B00
1B00
1B00
ENDCHAR
STARTCHAR 2567
ENCODING 9575
SWIDTH 660 0
DWIDTH 11 0
BBX 11 14 0 3
BITMAP
0400
0400
0400
0400
0400
0400
0400
0400
0400
FFE0
FFE0
0000
FFE0
FFE0
ENDCHAR
STARTCHAR 2568
ENCODING 9576
SWIDTH 660 0
DWIDTH 11 0
BBX 11 12 0 5
BITMAP
1B00
1B00
1B00
1B00
1B00
1B00
1B00
1B00
1B00
1B00
1B00
FFE0
ENDCHAR
STARTCHAR 2569
ENCODING 9577
SWIDTH 660 0
DWIDTH 11 0
BBX 11 14 0 3
BITMAP
1B00
1B00
1B00
1B00
1B00
1B00
1B00
1B00
1B00
FBE0
FBE0
0000
FFE0
FFE0
ENDCHAR
STARTCHAR 256A
ENCODING 9578
SWIDTH 660 0
DWIDTH 11 0
BBX 11 22 0 -5
BITMAP
0400
0400
0400
0400
0400
0400
0400
0400
0400
FFE0
FFE0
0400
FFE0
FFE0
0400
0400
0400
0400
0400
0400
0400
0400
ENDCHAR
STARTCHAR 256B
ENCODING 9579
SWIDTH 660 0
DWIDTH 11 0
BBX 11 22 0 -5
BITMAP
1B00
1B00
1B00
1B00
1B00
1B00
1B00
1B00
1B00
1B00
1B00
FFE0
1B00
1B00
1B00
1B00
1B00
1B00
1B00
1B00
1B00
1B00
ENDCHAR
STARTCHAR 256C
ENCODING 9580
SWIDTH 660 0
DWIDTH 11 0
BBX 11 22 0 -5
BITMAP
1B00
1B00
1B00
1B00
1B00
1B00
1B00
1B00
1B00
FBE0
FBE0
0000
FBE0
FBE0
1B00
1B00
1B00
1B00
1B00
1B00
1B00
1B00
ENDCHAR
STARTCHAR 256D
ENCODING 9581
SWIDTH 660 0
DWIDTH 11 0
BBX 6 11 5 -5
BITMAP
1C
60
60
80
80
80
80
80
80
80
80
ENDCHAR
STARTCHAR 256E
ENCODING 9582
SWIDTH 660 0
DWIDTH 11 0
BBX 6 11 0 -5
BITMAP
E0
18
18
04
04
04
04
04
04
04
04
ENDCHAR
STARTCHAR 256F
ENCODING 9583
SWIDTH 660 0
DWIDTH 11 0
BBX 6 12 0 5
BITMAP
04
04
04
04
04
04
04
04
04
18
18
E0
ENDCHAR
STARTCHAR 2570
ENCODING 9584
SWIDTH 660 0
DWIDTH 11 0
BBX 6 12 5 5
BITMAP
80
80
80
80
80
80
80
80
80
60
60
1C
ENDCHAR
STARTCHAR 2571
ENCODING 9585
SWIDTH 660 0
DWIDTH 11 0
BBX 11 22 0 -5
BITMAP
0060
0060
0060
0080
0080
0080
0300
0300
0300
0400
0400
0400
1800
1800
1800
2000
2000
2000
2000
C000
C000
C000
ENDCHAR
STARTCHAR 2572
ENCODING 9586
SWIDTH 660 0
DWIDTH 11 0
BBX 11 22 0 -5
BITMAP
C000
C000
C000
2000
2000
2000
1800
1800
1800
0400
0400
0400
0300
0300
0300
0080
0080
0080
0080
0060
0060
0060
ENDCHAR
STARTCHAR 2573
ENCODING 9587
SWIDTH 660 0
DWIDTH 11 0
BBX 11 22 0 -5
BITMAP
C060
C060
C060
2080
2080
2080
1B00
1B00
1B00
0400
0400
0400
1B00
1B00
1B00
2080
2080
2080
2080
C060
C060
C060
ENDCHAR
STARTCHAR 2574
ENCODING 9588
SWIDTH 660 0
DWIDTH 11 0
BBX 6 1 0 5
BITMAP
FC
ENDCHAR
STARTCHAR 2575
ENCODING 9589
SWIDTH 660 0
DWIDTH 11 0
BBX 1 11 5 6
BITMAP
80
80
80
80
80
80
80
80
80
80
80
ENDCHAR
STARTCHAR 2576
ENCODING 9590
SWIDTH 660 0
DWIDTH 11 0
BBX 6 1 5 5
BITMAP
FC
ENDCHAR
STARTCHAR 2577
ENCODING 9591
SWIDTH 660 0
DWIDTH 11 0
BBX 1 11 5 -5
BITMAP
80
80
80
80
80
80
80
80
80
80
80
ENDCHAR
STARTCHAR 2578
ENCODING 9592
SWIDTH 660 0
DWIDTH 11 0
BBX 6 5 0 3
BITMAP
FC
FC
FC
FC
FC
ENDCHAR
STARTCHAR 2579
ENCODING 9593
SWIDTH 660 0
DWIDTH 11 0
BBX 5 11 3 6
BITMAP
F8
F8
F8
F8
F8
F8
F8
F8
F8
F8
F8
ENDCHAR
STARTCHAR 257A
ENCODING 9594
SWIDTH 660 0
DWIDTH 11 0
BBX 6 5 5 3
BITMAP
FC
FC
FC
FC
FC
ENDCHAR
STARTCHAR 257B
ENCODING 9595
SWIDTH 660 0
DWIDTH 11 0
BBX 5 13 3 -5
BITMAP
F8
F8
F8
F8
F8
F8
F8
F8
F8
F8
F8
F8
F8
ENDCHAR
STARTCHAR 257C
ENCODING 9596
SWIDTH 660 0
DWIDTH 11 0
BBX 11 5 0 3
BITMAP
03E0
03E0
FFE0
03E0
03E0
ENDCHAR
STARTCHAR 257D
ENCODING 9597
SWIDTH 660 0
DWIDTH 11 0
BBX 5 22 3 -5
BITMAP
20
20
20
20
20
20
20
20
20
F8
F8
F8
F8
F8
F8
F8
F8
F8
F8
F8
F8
F8
ENDCHAR
STARTCHAR 257E
ENCODING 9598
SWIDTH 660 0
DWIDTH 11 0
BBX 11 5 0 3
BITMAP
FC00
FC00
FFE0
FC00
FC00
ENDCHAR
STARTCHAR 257F
ENCODING 9599
SWIDTH 660 0
DWIDTH 11 0
BBX 5 22 3 -5
BITMAP
F8
F8
F8
F8
F8
F8
F8
F8
F8
F8
F8
F8
F8
F8
20
20
20
20
20
20
20
20
ENDCHAR
STARTCHAR 2580
ENCODING 9600
SWIDTH 660 0
DWIDTH 11 0
BBX 11 11 0 6
BITMAP
FFE0
FFE0
FFE0
FFE0
FFE0
FFE0
FFE0
FFE0
FFE0
FFE0
FFE0
ENDCHAR
STARTCHAR 2581
ENCODING 9601
SWIDTH 660 0
DWIDTH 11 0
BBX 11 3 0 -5
BITMAP
FFE0
FFE0
FFE0
ENDCHAR
STARTCHAR 2582
ENCODING 9602
SWIDTH 660 0
DWIDTH 11 0
BBX 11 5 0 -5
BITMAP
FFE0
FFE0
FFE0
FFE0
FFE0
ENDCHAR
STARTCHAR 2583
ENCODING 9603
SWIDTH 660 0
DWIDTH 11 0
BBX 11 8 0 -5
BITMAP
FFE0
FFE0
FFE0
FFE0
FFE0
FFE0
FFE0
FFE0
ENDCHAR
STARTCHAR 2584
ENCODING 9604
SWIDTH 660 0
DWIDTH 11 0
BBX 11 11 0 -5
BITMAP
FFE0
FFE0
FFE0
FFE0
FFE0
FFE0
FFE0
FFE0
FFE0
FFE0
FFE0
ENDCHAR
STARTCHAR 2585
ENCODING 9605
SWIDTH 660 0
DWIDTH 11 0
BBX 11 14 0 -5
BITMAP
FFE0
FFE0
FFE0
FFE0
FFE0
FFE0
FFE0
FFE0
FFE0
FFE0
FFE0
FFE0
FFE0
FFE0
ENDCHAR
STARTCHAR 2586
ENCODING 9606
SWIDTH 660 0
DWIDTH 11 0
BBX 11 17 0 -5
BITMAP
FFE0
FFE0
FFE0
FFE0
FFE0
FFE0
FFE0
FFE0
FFE0
FFE0
FFE0
FFE0
FFE0
FFE0
FFE0
FFE0
FFE0
ENDCHAR
STARTCHAR 2587
ENCODING 9607
SWIDTH 660 0
DWIDTH 11 0
BBX 11 19 0 -5
BITMAP
FFE0
FFE0
FFE0
FFE0
FFE0
FFE0
FFE0
FFE0
FFE0
FFE0
FFE0
FFE0
FFE0
FFE0
FFE0
FFE0
FFE0
FFE0
FFE0
ENDCHAR
STARTCHAR 2588
ENCODING 9608
SWIDTH 660 0
DWIDTH 11 0
BBX 11 22 0 -5
BITMAP
FFE0
FFE0
FFE0
FFE0
FFE0
FFE0
FFE0
FFE0
FFE0
FFE0
FFE0
FFE0
FFE0
FFE0
FFE0
FFE0
FFE0
FFE0
FFE0
FFE0
FFE0
FFE0
ENDCHAR
STARTCHAR 2589
ENCODING 9609
SWIDTH 660 0
DWIDTH 11 0
BBX 9 22 0 -5
BITMAP
FF80
FF80
FF80
FF80
FF80
FF80
FF80
FF80
FF80
FF80
FF80
FF80
FF80
FF80
FF80
FF80
FF80
FF80
FF80
FF80
FF80
FF80
ENDCHAR
STARTCHAR 258A
ENCODING 9610
SWIDTH 660 0
DWIDTH 11 0
BBX 9 22 0 -5
BITMAP
FF80
FF80
FF80
FF80
FF80
FF80
FF80
FF80
FF80
FF80
FF80
FF80
FF80
FF80
FF80
FF80
FF80
FF80
FF80
FF80
FF80
FF80
ENDCHAR
STARTCHAR 258B
ENCODING 9611
SWIDTH 660 0
DWIDTH 11 0
BBX 8 22 0 -5
BITMAP
FF
FF
FF
FF
FF
FF
FF
FF
FF
FF
FF
FF
FF
FF
FF
FF
FF
FF
FF
FF
FF
FF
ENDCHAR
STARTCHAR 258C
ENCODING 9612
SWIDTH 660 0
DWIDTH 11 0
BBX 6 22 0 -5
BITMAP
FC
FC
FC
FC
FC
FC
FC
FC
FC
FC
FC
FC
FC
FC
FC
FC
FC
FC
FC
FC
FC
FC
ENDCHAR
STARTCHAR 258D
ENCODING 9613
SWIDTH 660 0
DWIDTH 11 0
BBX 5 22 0 -5
BITMAP
F8
F8
F8
F8
F8
F8
F8
F8
F8
F8
F8
F8
F8
F8
F8
F8
F8
F8
F8
F8
F8
F8
ENDCHAR
STARTCHAR 258E
ENCODING 9614
SWIDTH 660 0
DWIDTH 11 0
BBX 3 22 0 -5
BITMAP
E0
E0
E0
E0
E0
E0
E0
E0
E0
E0
E0
E0
E0
E0
E0
E0
E0
E0
E0
E0
E0
E0
ENDCHAR
STARTCHAR 258F
ENCODING 9615
SWIDTH 660 0
DWIDTH 11 0
BBX 2 22 0 -5
BITMAP
C0
C0
C0
C0
C0
C0
C0
C0
C0
C0
C0
C0
C0
C0
C0
C0
C0
C0
C0
C0
C0
C0
ENDCHAR
STARTCHAR 2590
ENCODING 9616
SWIDTH 660 0
DWIDTH 11 0
BBX 6 22 5 -5
BITMAP
FC
FC
FC
FC
FC
FC
FC
FC
FC
FC
FC
FC
FC
FC
FC
FC
FC
FC
FC
FC
FC
FC
ENDCHAR
STARTCHAR 2591
ENCODING 9617
SWIDTH 660 0
DWIDTH 11 0
BBX 11 22 0 -5
BITMAP
2080
2080
DB00
0460
0460
2300
0460
0460
DB00
0480
0480
D800
0360
0360
2400
C080
C080
2460
2460
DB00
0460
0460
ENDCHAR
STARTCHAR 2592
ENCODING 9618
SWIDTH 660 0
DWIDTH 11 0
BBX 11 22 0 -5
BITMAP
DB80
DB80
E7E0
DC80
DC80
3BE0
DF60
DF60
E480
DFE0
DFE0
24E0
FB60
FB60
DF80
E760
E760
DC80
DC80
27E0
FB60
FB60
ENDCHAR
STARTCHAR 2593
ENCODING 9619
SWIDTH 660 0
DWIDTH 11 0
BBX 11 22 0 -5
BITMAP
FFE0
FFE0
DFE0
FF80
FF80
FBE0
FFE0
FFE0
E760
FFE0
FFE0
3FE0
FF60
FF60
E7E0
FFE0
FFE0
FCE0
FCE0
DFE0
FF80
FF80
ENDCHAR
STARTCHAR 2594
ENCODING 9620
SWIDTH 660 0
DWIDTH 11 0
BBX 11 3 0 14
BITMAP
FFE0
FFE0
FFE0
ENDCHAR
STARTCHAR 2595
ENCODING 9621
SWIDTH 660 0
DWIDTH 11 0
BBX 2 22 9 -5
BITMAP
C0
C0
C0
C0
C0
C0
C0
C0
C0
C0
C0
C0
C0
C0
C0
C0
C0
C0
C0
C0
C0
C0
ENDCHAR
STARTCHAR 2596
ENCODING 9622
SWIDTH 660 0
DWIDTH 11 0
BBX 6 11 0 -5
BITMAP
FC
FC
FC
FC
FC
FC
FC
FC
FC
FC
FC
ENDCHAR
STARTCHAR 2597
ENCODING 9623
SWIDTH 660 0
DWIDTH 11 0
BBX 6 11 5 -5
BITMAP
FC
FC
FC
FC
FC
FC
FC
FC
FC
FC
FC
ENDCHAR
STARTCHAR 2598
ENCODING 9624
SWIDTH 660 0
DWIDTH 11 0
BBX 6 11 0 6
BITMAP
FC
FC
FC
FC
FC
FC
FC
FC
FC
FC
FC
ENDCHAR
STARTCHAR 2599
ENCODING 9625
SWIDTH 660 0
DWIDTH 11 0
BBX 11 22 0 -5
BITMAP
FC00
FC00
FC00
FC00
FC00
FC00
FC00
FC00
FC00
FC00
FC00
FFE0
FFE0
FFE0
FFE0
FFE0
FFE0
FFE0
FFE0
FFE0
FFE0
FFE0
ENDCHAR
STARTCHAR 259A
ENCODING 9626
SWIDTH 660 0
DWIDTH 11 0
BBX 11 22 0 -5
BITMAP
FC00
FC00
FC00
FC00
FC00
FC00
FC00
FC00
FC00
FC00
FC00
07E0
07E0
07E0
07E0
07E0
07E0
07E0
07E0
07E0
07E0
07E0
ENDCHAR
STARTCHAR 259B
ENCODING 9627
SWIDTH 660 0
DWIDTH 11 0
BBX 11 22 0 -5
BITMAP
FFE0
FFE0
FFE0
FFE0
FFE0
FFE0
FFE0
FFE0
FFE0
FFE0
FFE0
FC00
FC00
FC00
FC00
FC00
FC00
FC00
FC00
FC00
FC00
FC00
ENDCHAR
STARTCHAR 259C
ENCODING 9628
SWIDTH 660 0
DWIDTH 11 0
BBX 11 22 0 -5
BITMAP
FFE0
FFE0
FFE0
FFE0
FFE0
FFE0
FFE0
FFE0
FFE0
FFE0
FFE0
07E0
07E0
07E0
07E0
07E0
07E0
07E0
07E0
07E0
07E0
07E0
ENDCHAR
STARTCHAR 259D
ENCODING 9629
SWIDTH 660 0
DWIDTH 11 0
BBX 6 11 5 6
BITMAP
FC
FC
FC
FC
FC
FC
FC
FC
FC
FC
FC
ENDCHAR
STARTCHAR 259E
ENCODING 9630
SWIDTH 660 0
DWIDTH 11 0
BBX 11 22 0 -5
BITMAP
07E0
07E0
07E0
07E0
07E0
07E0
07E0
07E0
07E0
07E0
07E0
FC00
FC00
FC00
FC00
FC00
FC00
FC00
FC00
FC00
FC00
FC00
ENDCHAR
STARTCHAR 259F
ENCODING 9631
SWIDTH 660 0
DWIDTH 11 0
BBX 11 22 0 -5
BITMAP
07E0
07E0
07E0
07E0
07E0
07E0
07E0
07E0
07E0
07E0
07E0
FFE0
FFE0
FFE0
FFE0
FFE0
FFE0
FFE0
FFE0
FFE0
FFE0
FFE0
ENDCHAR
STARTCHAR 25A0
ENCODING 9632
SWIDTH 660 0
DWIDTH 11 0
BBX 11 11 0 0
BITMAP
FFE0
FFE0
FFE0
FFE0
FFE0
FFE0
FFE0
FFE0
FFE0
FFE0
FFE0
ENDCHAR
STARTCHAR 25A1
ENCODING 9633
SWIDTH 660 0
DWIDTH 11 0
BBX 11 11 0 0
BITMAP
FFE0
FFE0
C060
C060
C060
C060
C060
C060
C060
FFE0
FFE0
ENDCHAR
STARTCHAR 25AA
ENCODING 9642
SWIDTH 660 0
DWIDTH 11 0
BBX 7 7 2 2
BITMAP
FE
FE
FE
FE
FE
FE
FE
ENDCHAR
STARTCHAR 25AB
ENCODING 9643
SWIDTH 660 0
DWIDTH 11 0
BBX 7 7 2 2
BITMAP
FE
82
82
82
82
82
FE
ENDCHAR
STARTCHAR 25B2
ENCODING 9650
SWIDTH 660 0
DWIDTH 11 0
BBX 11 9 0 2
BITMAP
0400
0400
1F00
1F00
1F00
3F80
3F80
3F80
FFE0
ENDCHAR
STARTCHAR 25B3
ENCODING 9651
SWIDTH 660 0
DWIDTH 11 0
BBX 11 9 0 2
BITMAP
0400
0400
1B00
1B00
1B00
2080
2080
2080
FFE0
ENDCHAR
STARTCHAR 25B7
ENCODING 9655
SWIDTH 660 0
DWIDTH 11 0
BBX 9 11 0 0
BITMAP
C000
C000
F800
C700
C700
C080
C700
C700
F800
C000
C000
ENDCHAR
STARTCHAR 25BA
ENCODING 9658
SWIDTH 660 0
DWIDTH 11 0
BBX 9 11 0 0
BITMAP
C000
C000
F800
FF00
FF00
FF80
FF00
FF00
F800
C000
C000
ENDCHAR
STARTCHAR 25BC
ENCODING 9660
SWIDTH 660 0
DWIDTH 11 0
BBX 11 9 0 2
BITMAP
FFE0
FFE0
3F80
3F80
3F80
1F00
1F00
1F00
0400
ENDCHAR
STARTCHAR 25BD
ENCODING 9661
SWIDTH 660 0
DWIDTH 11 0
BBX 11 9 0 2
BITMAP
FFE0
FFE0
2080
2080
2080
1B00
1B00
1B00
0400
ENDCHAR
STARTCHAR 25C1
ENCODING 9665
SWIDTH 660 0
DWIDTH 11 0
BBX 9 11 2 0
BITMAP
0180
0180
0F80
7180
7180
8180
7180
7180
0F80
0180
0180
ENDCHAR
STARTCHAR 25C4
ENCODING 9668
SWIDTH 660 0
DWIDTH 11 0
BBX 9 11 2 0
BITMAP
0180
0180
0F80
7F80
7F80
FF80
7F80
7F80
0F80
0180
0180
ENDCHAR
STARTCHAR 25CA
ENCODING 9674
SWIDTH 660 0
DWIDTH 11 0
BBX 7 16 2 -2
BITMAP
10
10
10
6C
6C
6C
82
82
82
6C
6C
6C
10
10
10
10
ENDCHAR
STARTCHAR 25CC
ENCODING 9676
SWIDTH 660 0
DWIDTH 11 0
BBX 7 9 2 0
BITMAP
7C
00
00
82
82
82
00
7C
7C
ENDCHAR
STARTCHAR 2605
ENCODING 9733
SWIDTH 660 0
DWIDTH 11 0
BBX 11 12 0 0
BITMAP
0400
0400
0400
FFE0
3F80
3F80
1F00
1F00
1F00
3B80
2080
2080
ENDCHAR
STARTCHAR 2606
ENCODING 9734
SWIDTH 660 0
DWIDTH 11 0
BBX 11 12 0 0
BITMAP
0400
0400
0400
FFE0
2080
2080
1B00
1F00
1F00
3B80
2080
2080
ENDCHAR
STARTCHAR 2660
ENCODING 9824
SWIDTH 660 0
DWIDTH 11 0
BBX 11 12 0 0
BITMAP
0400
1F00
1F00
3F80
FFE0
FFE0
FFE0
3F80
3F80
0400
1F00
1F00
ENDCHAR
STARTCHAR 2663
ENCODING 9827
SWIDTH 660 0
DWIDTH 11 0
BBX 11 12 0 0
BITMAP
0400
1F00
1F00
1F00
2480
2480
FFE0
FFE0
FFE0
2480
0400
0400
ENDCHAR
STARTCHAR 2665
ENCODING 9829
SWIDTH 660 0
DWIDTH 11 0
BBX 11 11 0 0
BITMAP
3B80
3B80
FFE0
FFE0
FFE0
FFE0
3F80
3F80
1F00
0400
0400
ENDCHAR
STARTCHAR 2666
ENCODING 9830
SWIDTH 660 0
DWIDTH 11 0
BBX 11 12 0 0
BITMAP
0400
1F00
1F00
3F80
FFE0
FFE0
FFE0
3F80
3F80
1F00
0400
0400
ENDCHAR
STARTCHAR 2669
ENCODING 9833
SWIDTH 660 0
DWIDTH 11 0
BBX 6 14 2 -2
BITMAP
0C
0C
0C
0C
0C
0C
0C
7C
7C
FC
FC
FC
70
70
ENDCHAR
STARTCHAR 266A
ENCODING 9834
SWIDTH 660 0
DWIDTH 11 0
BBX 9 14 2 -2
BITMAP
0C00
0E00
0E00
0D80
0D80
0D80
0C00
7C00
7C00
FC00
FC00
FC00
7000
7000
ENDCHAR
STARTCHAR 266B
ENCODING 9835
SWIDTH 660 0
DWIDTH 11 0
BBX 11 17 0 -3
BITMAP
0060
0060
03E0
1C60
1C60
1860
1860
1860
18E0
1BE0
1BE0
3BE0
F880
F880
F800
F800
2000
ENDCHAR
STARTCHAR 266C
ENCODING 9836
SWIDTH 660 0
DWIDTH 11 0
BBX 11 17 0 -3
BITMAP
0060
0060
03E0
1C60
1C60
1BE0
1C60
1C60
18E0
1BE0
1BE0
3BE0
F880
F880
F800
F800
2000
ENDCHAR
STARTCHAR 2726
ENCODING 10022
SWIDTH 660 0
DWIDTH 11 0
BBX 11 11 0 0
BITMAP
0400
0400
0400
1F00
1F00
FFE0
1F00
1F00
0400
0400
0400
ENDCHAR
STARTCHAR 2727
ENCODING 10023
SWIDTH 660 0
DWIDTH 11 0
BBX 11 11 0 0
BITMAP
0400
0400
0400
1B00
1B00
E0E0
1B00
1B00
0400
0400
0400
ENDCHAR
STARTCHAR 276C
ENCODING 10092
SWIDTH 660 0
DWIDTH 11 0
BBX 5 16 3 -2
BITMAP
18
18
18
20
20
20
C0
C0
C0
20
20
20
18
18
18
18
ENDCHAR
STARTCHAR 276D
ENCODING 10093
SWIDTH 660 0
DWIDTH 11 0
BBX 5 16 3 -2
BITMAP
C0
C0
C0
20
20
20
18
18
18
20
20
20
C0
C0
C0
C0
ENDCHAR
STARTCHAR 276E
ENCODING 10094
SWIDTH 660 0
DWIDTH 11 0
BBX 6 16 3 -2
BITMAP
1C
1C
1C
38
38
38
E0
E0
E0
38
38
38
1C
1C
1C
1C
ENDCHAR
STARTCHAR 276F
ENCODING 10095
SWIDTH 660 0
DWIDTH 11 0
BBX 6 16 2 -2
BITMAP
E0
E0
E0
70
70
70
1C
1C
1C
70
70
70
E0
E0
E0
E0
ENDCHAR
STARTCHAR 2770
ENCODING 10096
SWIDTH 660 0
DWIDTH 11 0
BBX 7 16 2 -2
BITMAP
1E
1E
1E
7C
7C
7C
F0
F0
F0
7C
7C
7C
1E
1E
1E
1E
ENDCHAR
STARTCHAR 2771
ENCODING 10097
SWIDTH 660 0
DWIDTH 11 0
BBX 7 16 2 -2
BITMAP
F0
F0
F0
7C
7C
7C
1E
1E
1E
7C
7C
7C
F0
F0
F0
F0
ENDCHAR
STARTCHAR 27E8
ENCODING 10216
SWIDTH 660 0
DWIDTH 11 0
BBX 7 14 2 -2
BITMAP
02
0C
0C
10
60
60
80
60
60
10
0C
0C
02
02
ENDCHAR
STARTCHAR 27E9
ENCODING 10217
SWIDTH 660 0
DWIDTH 11 0
BBX 7 14 2 -2
BITMAP
80
60
60
10
0C
0C
02
0C
0C
10
60
60
80
80
ENDCHAR
STARTCHAR 2E17
ENCODING 11799
SWIDTH 660 0
DWIDTH 11 0
BBX 7 7 2 2
BITMAP
02
7C
7C
82
7C
7C
80
ENDCHAR
STARTCHAR A78B
ENCODING 42891
SWIDTH 660 0
DWIDTH 11 0
BBX 1 4 5 8
BITMAP
80
80
80
80
ENDCHAR
STARTCHAR A78C
ENCODING 42892
SWIDTH 660 0
DWIDTH 11 0
BBX 1 4 5 8
BITMAP
80
80
80
80
ENDCHAR
ENDFONT
